<svg width="1920" height="1080" viewBox="0 0 1920 1080" fill="none" xmlns="http://www.w3.org/2000/svg">
<rect width="1920" height="1080" rx="40" fill="black"/>
<path fill-rule="evenodd" clip-rule="evenodd" d="M90 20C78.9543 20 70 28.9543 70 40V197.143H94.9286C99.3863 197.143 103 193.529 103 189.071C103 181.339 109.268 175.071 117 175.071H153C160.732 175.071 167 181.339 167 189.071V228.337C167 236.069 160.732 242.337 153 242.337H117C109.268 242.337 103 236.069 103 228.337C103 223.879 99.3863 220.265 94.9286 220.265H70V553.439H94.9285C99.3863 553.439 103 549.825 103 545.367C103 537.635 109.268 531.367 117 531.367H153C160.732 531.367 167 537.635 167 545.367V584.633C167 592.365 160.732 598.633 153 598.633H117C109.268 598.633 103 592.365 103 584.633C103 580.175 99.3863 576.561 94.9286 576.561H70V909.735H94.9286C99.3863 909.735 103 906.121 103 901.663C103 893.931 109.268 887.663 117 887.663H153C160.732 887.663 167 893.931 167 901.663V940.929C167 948.661 160.732 954.929 153 954.929H117C109.268 954.929 103 948.661 103 940.929C103 936.471 99.3863 932.857 94.9285 932.857H70V1030C70 1041.05 78.9543 1050 90 1050H1830C1841.05 1050 1850 1041.05 1850 1030V40C1850 28.9543 1841.05 20 1830 20H90Z" fill="#FF6A3B"/>
<path d="M1484.59 417.79L1489.8 388.936C1489.82 388.824 1489.89 388.768 1490.01 388.768H1496.1C1496.21 388.768 1496.28 388.824 1496.31 388.936L1501.3 417.79C1501.33 417.93 1501.28 418 1501.14 418H1496.47C1496.36 418 1496.29 417.93 1496.26 417.79L1495.8 414.724H1490.09L1489.63 417.79C1489.6 417.93 1489.53 418 1489.42 418H1484.76C1484.64 418 1484.59 417.93 1484.59 417.79ZM1490.93 410.23H1494.96L1493.24 398.428L1492.99 396.874L1492.82 398.428L1490.93 410.23ZM1508.52 418C1508.29 418 1508.18 417.902 1508.18 417.706L1508.14 389.104C1508.14 388.88 1508.25 388.768 1508.48 388.768H1512.26L1519.35 405.316L1519.14 389.104C1519.14 388.88 1519.27 388.768 1519.52 388.768H1523.68C1523.85 388.768 1523.93 388.88 1523.93 389.104L1523.97 417.748C1523.97 417.916 1523.9 418 1523.76 418H1520.07L1512.8 402.544L1513.1 417.664C1513.1 417.888 1512.97 418 1512.72 418H1508.52ZM1535.73 418C1535.64 418 1535.6 417.944 1535.6 417.832L1535.64 405.904L1530.02 388.936C1529.99 388.824 1530.03 388.768 1530.14 388.768H1534.8C1534.94 388.768 1535.03 388.824 1535.06 388.936L1538.16 400.234L1541.31 388.936C1541.34 388.824 1541.41 388.768 1541.52 388.768H1546.23C1546.34 388.768 1546.38 388.824 1546.35 388.936L1540.68 405.736L1540.73 417.832C1540.73 417.944 1540.67 418 1540.56 418H1535.73Z" fill="black"/>
<path d="M375.825 540C374.208 540 373.4 539.192 373.4 537.575L374.37 204.38C374.37 203.087 375.017 202.44 376.31 202.44H469.43C499.177 202.44 522.618 211.493 539.755 229.6C557.215 247.707 565.945 272.28 565.945 303.32C565.945 326.277 561.418 346.162 552.365 362.975C543.312 379.788 531.51 392.722 516.96 401.775C502.41 410.828 486.567 415.355 469.43 415.355H432.57V537.575C432.57 539.192 431.762 540 430.145 540H375.825ZM432.57 356.67H469.43C479.777 356.67 488.668 351.82 496.105 342.12C503.865 332.097 507.745 319.163 507.745 303.32C507.745 290.71 504.35 280.363 497.56 272.28C490.77 264.197 481.393 260.155 469.43 260.155L432.57 260.64V356.67ZM592.635 540C591.018 540 590.21 539.192 590.21 537.575L590.695 204.38C590.695 203.087 591.342 202.44 592.635 202.44H646.955C648.248 202.44 648.895 203.087 648.895 204.38L649.38 537.575C649.38 539.192 648.733 540 647.44 540H592.635ZM735.691 540C734.398 540 733.751 539.192 733.751 537.575V261.125H670.701C669.085 261.125 668.276 260.317 668.276 258.7L668.761 204.38C668.761 203.087 669.408 202.44 670.701 202.44H855.001C856.618 202.44 857.426 203.087 857.426 204.38V258.7C857.426 260.317 856.78 261.125 855.486 261.125H791.951L792.436 537.575C792.436 539.192 791.79 540 790.496 540H735.691ZM954.877 544.85C937.094 544.85 920.927 540.485 906.377 531.755C892.15 522.702 880.834 510.738 872.427 495.865C864.02 480.992 859.817 464.34 859.817 445.91L860.302 294.59C860.302 276.807 864.344 260.64 872.427 246.09C880.834 231.217 892.15 219.415 906.377 210.685C920.927 201.632 937.094 197.105 954.877 197.105C972.66 197.105 988.665 201.47 1002.89 210.2C1017.12 218.93 1028.44 230.732 1036.84 245.605C1045.25 260.155 1049.45 276.483 1049.45 294.59V316.9C1049.45 318.193 1048.81 318.84 1047.51 318.84H993.192C991.899 318.84 991.252 318.193 991.252 316.9V294.59C991.252 283.92 987.695 274.705 980.582 266.945C973.792 259.185 965.224 255.305 954.877 255.305C943.237 255.305 934.345 259.347 928.202 267.43C922.059 275.19 918.987 284.243 918.987 294.59V445.91C918.987 457.873 922.382 467.573 929.172 475.01C936.285 482.447 944.854 486.165 954.877 486.165C965.224 486.165 973.792 482.123 980.582 474.04C987.695 465.633 991.252 456.257 991.252 445.91V423.6C991.252 422.307 991.899 421.66 993.192 421.66H1048C1049.29 421.66 1049.94 422.307 1049.94 423.6V445.91C1049.94 464.34 1045.57 480.992 1036.84 495.865C1028.44 510.738 1017.12 522.702 1002.89 531.755C988.665 540.485 972.66 544.85 954.877 544.85ZM1082.49 540C1081.2 540 1080.55 539.192 1080.55 537.575L1081.04 204.38C1081.04 203.087 1081.85 202.44 1083.46 202.44H1137.3C1138.91 202.44 1139.72 203.087 1139.72 204.38L1139.24 336.3H1211.99V204.38C1211.99 203.087 1212.63 202.44 1213.93 202.44H1267.76C1269.38 202.44 1270.19 203.087 1270.19 204.38L1271.16 537.575C1271.16 539.192 1270.35 540 1268.73 540H1214.41C1212.8 540 1211.99 539.192 1211.99 537.575V394.985H1139.24V537.575C1139.24 539.192 1138.59 540 1137.3 540H1082.49Z" fill="black"/>
<path d="M1085.74 953C1084.45 953 1083.8 952.192 1083.8 950.575L1084.77 617.38C1084.77 616.087 1085.42 615.44 1086.71 615.44H1179.83C1198.26 615.44 1214.75 619.967 1229.3 629.02C1243.85 637.75 1255.33 649.39 1263.73 663.94C1272.14 678.49 1276.34 694.333 1276.34 711.47C1276.34 725.373 1273.11 738.307 1266.64 750.27C1260.5 762.233 1253.06 771.933 1244.33 779.37C1253.71 788.747 1260.99 799.578 1266.16 811.865C1271.33 824.152 1273.92 837.085 1273.92 850.665C1273.92 869.418 1269.39 886.555 1260.34 902.075C1251.29 917.595 1239 930.043 1223.48 939.42C1208.28 948.473 1191.31 953 1172.55 953H1085.74ZM1142.97 749.3H1179.83C1191.15 749.3 1200.2 745.42 1206.99 737.66C1214.1 729.577 1217.66 720.847 1217.66 711.47C1217.66 701.123 1213.94 692.232 1206.5 684.795C1199.07 677.035 1190.18 673.155 1179.83 673.155H1142.97V749.3ZM1142.48 893.83H1172.55C1184.19 893.83 1194.22 889.627 1202.62 881.22C1211.03 872.49 1215.23 862.305 1215.23 850.665C1215.23 839.025 1211.03 829.002 1202.62 820.595C1194.22 812.188 1184.19 807.985 1172.55 807.985H1142.97L1142.48 893.83ZM1393.65 957.85C1376.19 957.85 1360.18 953.485 1345.63 944.755C1331.41 935.702 1319.93 923.9 1311.2 909.35C1302.47 894.477 1298.1 878.148 1298.1 860.365L1298.59 706.62C1298.59 688.837 1302.79 672.67 1311.2 658.12C1319.93 643.57 1331.57 631.93 1346.12 623.2C1360.67 614.47 1376.51 610.105 1393.65 610.105C1411.11 610.105 1426.95 614.47 1441.18 623.2C1455.41 631.93 1466.72 643.57 1475.13 658.12C1483.86 672.67 1488.22 688.837 1488.22 706.62L1488.71 860.365C1488.71 878.148 1484.34 894.477 1475.61 909.35C1467.21 923.9 1455.73 935.702 1441.18 944.755C1426.95 953.485 1411.11 957.85 1393.65 957.85ZM1393.65 899.165C1403.35 899.165 1411.76 895.285 1418.87 887.525C1426.31 879.442 1430.02 870.388 1430.02 860.365L1429.54 706.62C1429.54 695.95 1426.14 686.897 1419.35 679.46C1412.56 672.023 1404 668.305 1393.65 668.305C1383.63 668.305 1375.06 672.023 1367.94 679.46C1360.83 686.573 1357.27 695.627 1357.27 706.62V860.365C1357.27 871.035 1360.83 880.25 1367.94 888.01C1375.06 895.447 1383.63 899.165 1393.65 899.165ZM1486.28 953C1484.99 953 1484.5 952.192 1484.83 950.575L1540.12 777.43L1485.8 617.38C1485.47 616.087 1485.96 615.44 1487.25 615.44H1541.57C1543.19 615.44 1544.16 616.087 1544.48 617.38L1576.98 732.81L1609.96 617.38C1610.28 616.087 1611.25 615.44 1612.87 615.44H1666.7C1667.99 615.44 1668.48 616.087 1668.16 617.38L1613.84 776.945L1668.64 950.575C1669.29 952.192 1668.8 953 1667.19 953H1612.87C1611.57 953 1610.6 952.192 1609.96 950.575L1576.98 825.445L1543.51 950.575C1543.19 952.192 1542.22 953 1540.6 953H1486.28Z" fill="black"/>
<path d="M224.31 747.862C223.974 747.862 223.806 747.806 223.806 747.694V743.116C223.806 743.004 223.974 742.948 224.31 742.948H243.042C243.378 742.948 243.546 743.004 243.546 743.116V747.694C243.546 747.806 243.378 747.862 243.042 747.862H224.31ZM265.334 760C265.222 760 265.166 759.944 265.166 759.832V747.526H261.092C260.952 747.526 260.882 747.47 260.882 747.358V742.78C260.882 742.668 260.952 742.612 261.092 742.612H265.166V730.936C265.166 730.824 265.222 730.768 265.334 730.768H275.834C275.974 730.768 276.044 730.824 276.044 730.936V735.514C276.044 735.626 275.974 735.682 275.834 735.682H270.038V755.086H275.834C275.974 755.086 276.044 755.142 276.044 755.254V759.832C276.044 759.944 275.974 760 275.834 760H265.334ZM301.944 740.638C301.832 740.638 301.776 740.582 301.776 740.47V735.598C301.776 734.59 302.014 733.694 302.49 732.91C302.966 732.098 303.582 731.468 304.338 731.02C305.122 730.544 305.962 730.306 306.858 730.306V732.91C306.158 732.91 305.556 733.176 305.052 733.708C304.576 734.24 304.338 734.87 304.338 735.598H306.69C306.802 735.598 306.858 735.654 306.858 735.766V740.47C306.858 740.582 306.802 740.638 306.69 740.638H301.944ZM294.132 740.638C294.02 740.638 293.964 740.582 293.964 740.47V735.598C293.964 734.59 294.202 733.694 294.678 732.91C295.154 732.098 295.77 731.468 296.526 731.02C297.31 730.544 298.15 730.306 299.046 730.306V732.91C298.346 732.91 297.744 733.176 297.24 733.708C296.764 734.24 296.526 734.87 296.526 735.598H298.878C298.99 735.598 299.046 735.654 299.046 735.766V740.47C299.046 740.582 298.99 740.638 298.878 740.638H294.132ZM321.793 760.42C320.281 760.42 318.895 760.042 317.635 759.286C316.403 758.502 315.409 757.48 314.653 756.22C313.925 754.932 313.561 753.518 313.561 751.978V750.046C313.561 749.906 313.631 749.836 313.771 749.836H318.475C318.587 749.836 318.643 749.906 318.643 750.046V751.978C318.643 752.902 318.951 753.7 319.567 754.372C320.183 755.016 320.925 755.338 321.793 755.338C322.661 755.338 323.403 755.002 324.019 754.33C324.635 753.658 324.943 752.874 324.943 751.978C324.943 750.942 324.271 750.046 322.927 749.29C322.479 749.038 321.779 748.646 320.827 748.114C319.875 747.582 318.979 747.078 318.139 746.602C316.599 745.706 315.451 744.586 314.695 743.242C313.967 741.87 313.603 740.33 313.603 738.622C313.603 737.054 313.981 735.654 314.737 734.422C315.493 733.162 316.487 732.168 317.719 731.44C318.979 730.712 320.337 730.348 321.793 730.348C323.277 730.348 324.635 730.726 325.867 731.482C327.127 732.21 328.121 733.204 328.849 734.464C329.605 735.696 329.983 737.082 329.983 738.622V742.066C329.983 742.178 329.927 742.234 329.815 742.234H325.111C324.999 742.234 324.943 742.178 324.943 742.066L324.901 738.622C324.901 737.642 324.593 736.844 323.977 736.228C323.361 735.612 322.633 735.304 321.793 735.304C320.925 735.304 320.183 735.64 319.567 736.312C318.951 736.956 318.643 737.726 318.643 738.622C318.643 739.546 318.839 740.316 319.231 740.932C319.623 741.548 320.337 742.136 321.373 742.696C321.513 742.78 321.779 742.934 322.171 743.158C322.591 743.354 323.039 743.592 323.515 743.872C323.991 744.124 324.411 744.348 324.775 744.544C325.167 744.74 325.405 744.866 325.489 744.922C326.889 745.706 327.995 746.672 328.807 747.82C329.619 748.94 330.025 750.326 330.025 751.978C330.025 753.574 329.647 755.016 328.891 756.304C328.163 757.564 327.169 758.572 325.909 759.328C324.677 760.056 323.305 760.42 321.793 760.42ZM337.314 760C337.202 760 337.146 759.93 337.146 759.79L337.188 730.936C337.188 730.824 337.258 730.768 337.398 730.768H342.06C342.2 730.768 342.27 730.824 342.27 730.936L342.228 742.36H348.528V730.936C348.528 730.824 348.584 730.768 348.696 730.768H353.358C353.498 730.768 353.568 730.824 353.568 730.936L353.652 759.79C353.652 759.93 353.582 760 353.442 760H348.738C348.598 760 348.528 759.93 348.528 759.79V747.442H342.228V759.79C342.228 759.93 342.172 760 342.06 760H337.314ZM361.489 760C361.349 760 361.279 759.93 361.279 759.79L361.321 730.936C361.321 730.824 361.377 730.768 361.489 730.768H366.193C366.305 730.768 366.361 730.824 366.361 730.936L366.403 759.79C366.403 759.93 366.347 760 366.235 760H361.489ZM379.002 760C378.89 760 378.82 759.93 378.792 759.79L372.996 730.936C372.968 730.824 373.024 730.768 373.164 730.768H377.91C378.022 730.768 378.092 730.824 378.12 730.936L381.564 750.172L384.924 730.936C384.952 730.824 385.022 730.768 385.134 730.768H389.838C389.978 730.768 390.034 730.824 390.006 730.936L384.294 759.79C384.266 759.93 384.196 760 384.084 760H379.002ZM393.476 759.79L398.684 730.936C398.712 730.824 398.782 730.768 398.894 730.768H404.984C405.096 730.768 405.166 730.824 405.194 730.936L410.192 759.79C410.22 759.93 410.164 760 410.024 760H405.362C405.25 760 405.18 759.93 405.152 759.79L404.69 756.724H398.978L398.516 759.79C398.488 759.93 398.418 760 398.306 760H393.644C393.532 760 393.476 759.93 393.476 759.79ZM399.818 752.23H403.85L402.128 740.428L401.876 738.874L401.708 740.428L399.818 752.23ZM435.012 760.42C433.5 760.42 432.114 760.042 430.854 759.286C429.622 758.502 428.628 757.48 427.872 756.22C427.144 754.932 426.78 753.518 426.78 751.978V750.046C426.78 749.906 426.85 749.836 426.99 749.836H431.694C431.806 749.836 431.862 749.906 431.862 750.046V751.978C431.862 752.902 432.17 753.7 432.786 754.372C433.402 755.016 434.144 755.338 435.012 755.338C435.88 755.338 436.622 755.002 437.238 754.33C437.854 753.658 438.162 752.874 438.162 751.978C438.162 750.942 437.49 750.046 436.146 749.29C435.698 749.038 434.998 748.646 434.046 748.114C433.094 747.582 432.198 747.078 431.358 746.602C429.818 745.706 428.67 744.586 427.914 743.242C427.186 741.87 426.822 740.33 426.822 738.622C426.822 737.054 427.2 735.654 427.956 734.422C428.712 733.162 429.706 732.168 430.938 731.44C432.198 730.712 433.556 730.348 435.012 730.348C436.496 730.348 437.854 730.726 439.086 731.482C440.346 732.21 441.34 733.204 442.068 734.464C442.824 735.696 443.202 737.082 443.202 738.622V742.066C443.202 742.178 443.146 742.234 443.034 742.234H438.33C438.218 742.234 438.162 742.178 438.162 742.066L438.12 738.622C438.12 737.642 437.812 736.844 437.196 736.228C436.58 735.612 435.852 735.304 435.012 735.304C434.144 735.304 433.402 735.64 432.786 736.312C432.17 736.956 431.862 737.726 431.862 738.622C431.862 739.546 432.058 740.316 432.45 740.932C432.842 741.548 433.556 742.136 434.592 742.696C434.732 742.78 434.998 742.934 435.39 743.158C435.81 743.354 436.258 743.592 436.734 743.872C437.21 744.124 437.63 744.348 437.994 744.544C438.386 744.74 438.624 744.866 438.708 744.922C440.108 745.706 441.214 746.672 442.026 747.82C442.838 748.94 443.244 750.326 443.244 751.978C443.244 753.574 442.866 755.016 442.11 756.304C441.382 757.564 440.388 758.572 439.128 759.328C437.896 760.056 436.524 760.42 435.012 760.42ZM450.533 760C450.421 760 450.365 759.93 450.365 759.79L450.407 730.936C450.407 730.824 450.477 730.768 450.617 730.768H455.279C455.419 730.768 455.489 730.824 455.489 730.936L455.447 742.36H461.747V730.936C461.747 730.824 461.803 730.768 461.915 730.768H466.577C466.717 730.768 466.787 730.824 466.787 730.936L466.871 759.79C466.871 759.93 466.801 760 466.661 760H461.957C461.817 760 461.747 759.93 461.747 759.79V747.442H455.447V759.79C455.447 759.93 455.391 760 455.279 760H450.533ZM473.071 759.79L478.279 730.936C478.307 730.824 478.377 730.768 478.489 730.768H484.579C484.691 730.768 484.761 730.824 484.789 730.936L489.787 759.79C489.815 759.93 489.759 760 489.619 760H484.957C484.845 760 484.775 759.93 484.747 759.79L484.285 756.724H478.573L478.111 759.79C478.083 759.93 478.013 760 477.901 760H473.239C473.127 760 473.071 759.93 473.071 759.79ZM479.413 752.23H483.445L481.723 740.428L481.471 738.874L481.303 740.428L479.413 752.23ZM497.001 760C496.777 760 496.665 759.902 496.665 759.706L496.623 731.104C496.623 730.88 496.735 730.768 496.959 730.768H500.739L507.837 747.316L507.627 731.104C507.627 730.88 507.753 730.768 508.005 730.768H512.163C512.331 730.768 512.415 730.88 512.415 731.104L512.457 759.748C512.457 759.916 512.387 760 512.247 760H508.551L501.285 744.544L501.579 759.664C501.579 759.888 501.453 760 501.201 760H497.001ZM520.473 760C520.361 760 520.305 759.93 520.305 759.79L520.389 730.978C520.389 730.838 520.445 730.768 520.557 730.768H525.261C525.373 730.768 525.429 730.838 525.429 730.978V740.932L532.023 730.936C532.107 730.824 532.205 730.768 532.317 730.768H537.147C537.259 730.768 537.287 730.824 537.231 730.936L529.965 742.528L538.113 759.832C538.169 759.944 538.099 760 537.903 760H532.779C532.639 760 532.555 759.944 532.527 759.832L526.857 747.484L525.387 749.794V759.79C525.387 759.93 525.331 760 525.219 760H520.473ZM542.765 759.79L547.973 730.936C548.001 730.824 548.071 730.768 548.183 730.768H554.273C554.385 730.768 554.455 730.824 554.483 730.936L559.481 759.79C559.509 759.93 559.453 760 559.313 760H554.651C554.539 760 554.469 759.93 554.441 759.79L553.979 756.724H548.267L547.805 759.79C547.777 759.93 547.707 760 547.595 760H542.933C542.821 760 542.765 759.93 542.765 759.79ZM549.107 752.23H553.139L551.417 740.428L551.165 738.874L550.997 740.428L549.107 752.23ZM566.484 760C566.372 760 566.316 759.93 566.316 759.79L566.4 730.936C566.4 730.824 566.456 730.768 566.568 730.768H575.052C576.564 730.768 577.95 731.146 579.21 731.902C580.498 732.63 581.52 733.624 582.276 734.884C583.032 736.116 583.41 737.516 583.41 739.084C583.41 740.12 583.256 741.058 582.948 741.898C582.64 742.71 582.276 743.41 581.856 743.998C581.436 744.558 581.058 744.978 580.722 745.258C582.234 746.938 582.99 748.912 582.99 751.18L583.032 759.79C583.032 759.93 582.962 760 582.822 760H578.076C577.964 760 577.908 759.958 577.908 759.874V751.18C577.908 750.172 577.544 749.304 576.816 748.576C576.116 747.82 575.248 747.442 574.212 747.442H571.44L571.398 759.79C571.398 759.93 571.342 760 571.23 760H566.484ZM571.44 742.402H575.052C575.92 742.402 576.69 742.08 577.362 741.436C578.034 740.792 578.37 740.008 578.37 739.084C578.37 738.188 578.034 737.418 577.362 736.774C576.718 736.13 575.948 735.808 575.052 735.808H571.44V742.402ZM598.758 740.638V738.034C599.458 738.034 600.046 737.768 600.522 737.236C601.026 736.704 601.278 736.074 601.278 735.346H598.926C598.814 735.346 598.758 735.29 598.758 735.178V730.474C598.758 730.362 598.814 730.306 598.926 730.306H603.672C603.784 730.306 603.84 730.362 603.84 730.474V735.346C603.84 736.326 603.602 737.222 603.126 738.034C602.65 738.846 602.02 739.49 601.236 739.966C600.48 740.414 599.654 740.638 598.758 740.638ZM590.946 740.638V738.034C591.646 738.034 592.234 737.768 592.71 737.236C593.214 736.704 593.466 736.074 593.466 735.346H591.114C591.002 735.346 590.946 735.29 590.946 735.178V730.474C590.946 730.362 591.002 730.306 591.114 730.306H595.86C595.972 730.306 596.028 730.362 596.028 730.474V735.346C596.028 736.326 595.79 737.222 595.314 738.034C594.838 738.846 594.208 739.49 593.424 739.966C592.668 740.414 591.842 740.638 590.946 740.638ZM611.676 760.42C611.536 760.42 611.466 760.364 611.466 760.252V755.506C611.466 755.394 611.536 755.338 611.676 755.338H613.902C614.742 755.254 615.442 754.89 616.002 754.246C616.59 753.602 616.884 752.846 616.884 751.978V738.664C616.884 737.768 616.604 736.998 616.044 736.354C615.484 735.71 614.77 735.388 613.902 735.388H611.592C611.452 735.388 611.382 735.332 611.382 735.22V730.474C611.382 730.362 611.452 730.306 611.592 730.306H613.902H613.944C615.4 730.362 616.73 730.782 617.934 731.566C619.138 732.322 620.09 733.33 620.79 734.59C621.518 735.822 621.882 737.18 621.882 738.664L621.924 751.978C621.924 753.49 621.56 754.876 620.832 756.136C620.104 757.396 619.138 758.418 617.934 759.202C616.73 759.958 615.386 760.364 613.902 760.42H611.676ZM224.31 835.862C223.974 835.862 223.806 835.806 223.806 835.694V831.116C223.806 831.004 223.974 830.948 224.31 830.948H243.042C243.378 830.948 243.546 831.004 243.546 831.116V835.694C243.546 835.806 243.378 835.862 243.042 835.862H224.31ZM262.436 848C262.324 848 262.268 847.93 262.268 847.79L262.31 818.936C262.31 818.824 262.366 818.768 262.478 818.768H275.96C276.072 818.768 276.128 818.838 276.128 818.978V823.682C276.128 823.794 276.072 823.85 275.96 823.85H267.35V830.402H275.96C276.072 830.402 276.128 830.458 276.128 830.57L276.17 835.316C276.17 835.428 276.114 835.484 276.002 835.484H267.35V842.834H276.002C276.114 842.834 276.17 842.904 276.17 843.044V847.832C276.17 847.944 276.114 848 276.002 848H262.436ZM284.272 848C284.16 848 284.104 847.93 284.104 847.79L284.188 818.936C284.188 818.824 284.244 818.768 284.356 818.768H292.84C294.352 818.768 295.738 819.146 296.998 819.902C298.286 820.63 299.308 821.624 300.064 822.884C300.82 824.116 301.198 825.516 301.198 827.084C301.198 828.12 301.044 829.058 300.736 829.898C300.428 830.71 300.064 831.41 299.644 831.998C299.224 832.558 298.846 832.978 298.51 833.258C300.022 834.938 300.778 836.912 300.778 839.18L300.82 847.79C300.82 847.93 300.75 848 300.61 848H295.864C295.752 848 295.696 847.958 295.696 847.874V839.18C295.696 838.172 295.332 837.304 294.604 836.576C293.904 835.82 293.036 835.442 292 835.442H289.228L289.186 847.79C289.186 847.93 289.13 848 289.018 848H284.272ZM289.228 830.402H292.84C293.708 830.402 294.478 830.08 295.15 829.436C295.822 828.792 296.158 828.008 296.158 827.084C296.158 826.188 295.822 825.418 295.15 824.774C294.506 824.13 293.736 823.808 292.84 823.808H289.228V830.402ZM308.734 848C308.622 848 308.566 847.93 308.566 847.79L308.65 818.936C308.65 818.824 308.706 818.768 308.818 818.768H317.302C318.814 818.768 320.2 819.146 321.46 819.902C322.748 820.63 323.77 821.624 324.526 822.884C325.282 824.116 325.66 825.516 325.66 827.084C325.66 828.12 325.506 829.058 325.198 829.898C324.89 830.71 324.526 831.41 324.106 831.998C323.686 832.558 323.308 832.978 322.972 833.258C324.484 834.938 325.24 836.912 325.24 839.18L325.282 847.79C325.282 847.93 325.212 848 325.072 848H320.326C320.214 848 320.158 847.958 320.158 847.874V839.18C320.158 838.172 319.794 837.304 319.066 836.576C318.366 835.82 317.498 835.442 316.462 835.442H313.69L313.648 847.79C313.648 847.93 313.592 848 313.48 848H308.734ZM313.69 830.402H317.302C318.17 830.402 318.94 830.08 319.612 829.436C320.284 828.792 320.62 828.008 320.62 827.084C320.62 826.188 320.284 825.418 319.612 824.774C318.968 824.13 318.198 823.808 317.302 823.808H313.69V830.402ZM340.593 848.42C339.081 848.42 337.695 848.042 336.435 847.286C335.203 846.502 334.209 845.48 333.453 844.22C332.697 842.932 332.319 841.518 332.319 839.978L332.361 826.664C332.361 825.124 332.725 823.724 333.453 822.464C334.209 821.204 335.217 820.196 336.477 819.44C337.737 818.684 339.109 818.306 340.593 818.306C342.105 818.306 343.477 818.684 344.709 819.44C345.941 820.196 346.921 821.204 347.649 822.464C348.405 823.724 348.783 825.124 348.783 826.664L348.825 839.978C348.825 841.518 348.447 842.932 347.691 844.22C346.963 845.48 345.969 846.502 344.709 847.286C343.477 848.042 342.105 848.42 340.593 848.42ZM340.593 843.338C341.433 843.338 342.161 843.002 342.777 842.33C343.421 841.63 343.743 840.846 343.743 839.978L343.701 826.664C343.701 825.74 343.407 824.956 342.819 824.312C342.231 823.668 341.489 823.346 340.593 823.346C339.725 823.346 338.983 823.668 338.367 824.312C337.751 824.928 337.443 825.712 337.443 826.664V839.978C337.443 840.902 337.751 841.7 338.367 842.372C338.983 843.016 339.725 843.338 340.593 843.338ZM356.386 848C356.274 848 356.218 847.93 356.218 847.79L356.302 818.936C356.302 818.824 356.358 818.768 356.47 818.768H364.954C366.466 818.768 367.852 819.146 369.112 819.902C370.4 820.63 371.422 821.624 372.178 822.884C372.934 824.116 373.312 825.516 373.312 827.084C373.312 828.12 373.158 829.058 372.85 829.898C372.542 830.71 372.178 831.41 371.758 831.998C371.338 832.558 370.96 832.978 370.624 833.258C372.136 834.938 372.892 836.912 372.892 839.18L372.934 847.79C372.934 847.93 372.864 848 372.724 848H367.978C367.866 848 367.81 847.958 367.81 847.874V839.18C367.81 838.172 367.446 837.304 366.718 836.576C366.018 835.82 365.15 835.442 364.114 835.442H361.342L361.3 847.79C361.3 847.93 361.244 848 361.132 848H356.386ZM361.342 830.402H364.954C365.822 830.402 366.592 830.08 367.264 829.436C367.936 828.792 368.272 828.008 368.272 827.084C368.272 826.188 367.936 825.418 367.264 824.774C366.62 824.13 365.85 823.808 364.954 823.808H361.342V830.402Z" fill="black"/>
</svg>
