<svg width="50" height="311" viewBox="0 0 50 311" fill="none" xmlns="http://www.w3.org/2000/svg">
<path d="M42.5 22.4106C42.55 22.8606 42.575 23.2023 42.575 23.4356C42.575 23.669 42.5333 24.0523 42.45 24.5856L25 17.7356C24.9333 17.3856 24.9 17.0606 24.9 16.7606C24.9 16.4606 24.9167 16.1773 24.95 15.9106L42.5 22.4106ZM26.675 38.9854C26.675 41.4688 27.6833 42.7105 29.7 42.7105C30.6833 42.7105 31.5167 42.1021 32.2 40.8854C32.5167 40.3354 32.8167 39.7271 33.1 39.0604C33.3833 38.4104 33.6917 37.7521 34.025 37.0854C34.3583 36.4188 34.7167 35.8104 35.1 35.2604C35.4833 34.7271 35.9667 34.2854 36.55 33.9354C37.1333 33.6021 37.7917 33.4354 38.525 33.4354C39.725 33.4354 40.7417 33.9188 41.575 34.8854C42.425 35.8688 42.85 37.2104 42.85 38.9104C42.85 40.6104 42.3333 42.4021 41.3 44.2854C40.35 44.2854 39.1583 44.1688 37.725 43.9354C37.675 43.5688 37.65 43.0854 37.65 42.4854L40.55 41.7354C40.65 41.5354 40.75 41.1354 40.85 40.5354C40.95 39.9521 41 39.4354 41 38.9854C41 38.0188 40.7917 37.2688 40.375 36.7354C39.975 36.2021 39.4083 35.9354 38.675 35.9354C37.9583 35.9354 37.3083 36.2438 36.725 36.8604C36.1583 37.4938 35.6667 38.2521 35.25 39.1354C34.85 40.0354 34.4333 40.9271 34 41.8104C33.5667 42.7104 33 43.4688 32.3 44.0854C31.6167 44.7188 30.8167 45.0354 29.9 45.0354C28.2333 45.0354 26.9417 44.4771 26.025 43.3604C25.125 42.2438 24.675 40.7854 24.675 38.9854C24.675 38.0021 24.825 36.9354 25.125 35.7854C25.4417 34.6521 25.8417 33.7104 26.325 32.9604C27.4417 32.9938 28.7333 33.1188 30.2 33.3354C30.25 33.7021 30.275 34.1854 30.275 34.7854L27.275 35.3104C27.125 35.6771 26.9833 36.2271 26.85 36.9604C26.7333 37.7104 26.675 38.3854 26.675 38.9854ZM26.65 53.5165C26.65 53.9998 26.75 54.5415 26.95 55.1415C27.1667 55.7415 27.425 56.2332 27.725 56.6165C31.275 56.5498 33.9667 56.4915 35.8 56.4415C35.8 55.4082 35.9 54.6415 36.1 54.1415L37.4 54.2415C37.65 55.6582 37.775 56.7665 37.775 57.5665C37.775 58.3832 37.7583 58.8998 37.725 59.1165C37.425 59.1165 37.025 59.0665 36.525 58.9665C36.025 58.8832 35.75 58.8248 35.7 58.7915L26.775 58.4915C26.725 59.3748 26.625 60.0915 26.475 60.6415L25.2 60.5915C24.9667 59.8582 24.85 59.1498 24.85 58.4665C24.85 57.7832 24.8583 57.3665 24.875 57.2165C25.5083 56.8998 26.0917 56.7165 26.625 56.6665C26.0083 55.8498 25.5333 55.0915 25.2 54.3915C24.8667 53.7082 24.7 53.2582 24.7 53.0415C24.7 51.5748 25.0917 50.5082 25.875 49.8415C26.675 49.1915 27.8417 48.8665 29.375 48.8665C29.3917 48.8665 31.525 48.9415 35.775 49.0915C35.775 48.1248 35.8833 47.2332 36.1 46.4165L37.4 46.5165C37.65 47.9332 37.775 49.0332 37.775 49.8165C37.775 50.5998 37.7583 51.0998 37.725 51.3165C37.325 51.3165 36.8833 51.2665 36.4 51.1665C35.9167 51.0665 35.6833 51.0082 35.7 50.9915L30.3 51.0165C29.0333 51.0165 28.1083 51.1748 27.525 51.4915C26.9417 51.8082 26.65 52.4832 26.65 53.5165ZM38 69.7347C38 71.3347 37.6 72.493 36.8 73.2097C36.0167 73.9263 34.8167 74.2847 33.2 74.2847C32.7333 74.2847 30.5667 74.218 26.7 74.0847L26.5 76.1847C26.0333 76.1847 25.5333 76.043 25 75.7597V70.0097L25.875 69.9347C26.1417 70.7013 26.3417 71.4513 26.475 72.1847C30.8417 72.0847 33.2667 71.993 33.75 71.9097C34.25 71.843 34.6833 71.7263 35.05 71.5597C35.4167 71.393 35.675 71.143 35.825 70.8097C35.975 70.4763 36.05 70.0347 36.05 69.4847C36.05 68.3847 35.7833 67.318 35.25 66.2847C31.45 66.1847 28.6 66.118 26.7 66.0847L26.5 68.1847C26.0333 68.1847 25.5333 68.043 25 67.7597V62.0097L25.875 61.9347C26.1417 62.7013 26.3417 63.4513 26.475 64.1847C30.7083 64.0847 33.8417 64.0013 35.875 63.9347C35.925 63.018 36.025 62.2847 36.175 61.7347L37.475 61.8347C37.725 62.7347 37.85 64.043 37.85 65.7597C37.55 65.9597 37.1167 66.1097 36.55 66.2097C36.9333 66.9263 37.2667 67.643 37.55 68.3597C37.85 69.093 38 69.5513 38 69.7347ZM36.575 85.9399L41.575 85.8649C41.625 84.9483 41.725 84.2149 41.875 83.6649L43.175 83.7649C43.425 84.6149 43.55 85.8483 43.55 87.4649C43.55 87.9816 43.5333 88.3483 43.5 88.5649C43.2 88.5649 42.8 88.5149 42.3 88.4149C41.8167 88.3316 41.55 88.2733 41.5 88.2399L26.725 88.0149C26.6917 88.6983 26.575 89.4233 26.375 90.1899L25.5 90.1399C24.9667 88.9899 24.7 87.9733 24.7 87.0899C24.7 86.9066 24.7083 86.7649 24.725 86.6649C24.975 86.5316 25.55 86.3649 26.45 86.1649C25.3667 84.2483 24.7833 82.9066 24.7 82.1399C24.7 80.5399 25.3083 79.3399 26.525 78.5399C27.7417 77.7399 29.3 77.3399 31.2 77.3399C33.1167 77.3399 34.725 77.7399 36.025 78.5399C37.3417 79.3566 38 80.5566 38 82.1399C38 83.3733 37.525 84.6399 36.575 85.9399ZM36.3 82.5649C36.3 80.6149 34.7 79.6399 31.5 79.6399C30.25 79.6399 29.1667 79.8399 28.25 80.2399C27.75 80.4399 27.35 80.7316 27.05 81.1149C26.75 81.5149 26.6 81.9733 26.6 82.4899C26.6 83.0066 26.7167 83.6066 26.95 84.2899C27.1833 84.9899 27.45 85.5899 27.75 86.0899L34.875 85.9399C35.2583 85.4899 35.5917 84.9399 35.875 84.2899C36.1583 83.6399 36.3 83.0649 36.3 82.5649ZM33.175 101.526L26.725 101.401C26.675 102.117 26.5583 102.834 26.375 103.551L25.5 103.501C25.3667 103.234 25.2167 102.751 25.05 102.051C24.9 101.367 24.825 100.692 24.825 100.026C25.425 99.7257 26 99.559 26.55 99.5257C25.3 97.6257 24.675 96.2924 24.675 95.5257C24.675 94.3424 24.9917 93.3924 25.625 92.6757C26.2583 91.959 27.1417 91.6007 28.275 91.6007C30.8917 91.6007 32.2417 93.2007 32.325 96.4007C32.375 98.2674 32.4 99.209 32.4 99.2257L33.25 99.2007C34.4 99.1674 35.225 98.9507 35.725 98.5507C36.2417 98.1507 36.5 97.434 36.5 96.4007C36.5 95.9674 36.4 95.5007 36.2 95.0007L33.7 94.4007C33.6833 94.3174 33.675 94.1757 33.675 93.9757L33.75 92.9507C34.4667 92.684 35.4583 92.5424 36.725 92.5257C36.8917 92.8424 37.1417 93.5674 37.475 94.7007C37.825 95.834 38 96.559 38 96.8757C38 98.5757 37.625 99.7757 36.875 100.476C36.125 101.176 34.8917 101.526 33.175 101.526ZM26.375 96.0757C26.375 96.559 26.9167 97.6757 28 99.4257L31.125 99.3007C31.025 98.1674 30.9333 97.2174 30.85 96.4507C30.7667 95.684 30.5417 95.0674 30.175 94.6007C29.825 94.134 29.2667 93.9007 28.5 93.9007C27.0833 93.9007 26.375 94.6257 26.375 96.0757ZM35.9 112.627C35.9833 112.544 36.025 112.361 36.025 112.077C36.025 111.794 35.925 111.369 35.725 110.802C35.525 110.252 35.2917 109.752 35.025 109.302C31.325 109.202 28.55 109.136 26.7 109.102L26.5 111.202C26.0333 111.202 25.5333 111.061 25 110.777V105.027L25.875 104.952C26.1417 105.719 26.3417 106.469 26.475 107.202C30.7083 107.102 33.8417 107.019 35.875 106.952C35.925 106.036 36.025 105.302 36.175 104.752L37.475 104.852C37.725 105.736 37.85 107.044 37.85 108.777C37.4333 109.044 36.9 109.211 36.25 109.277C37.4167 111.194 38 112.336 38 112.702C38 113.069 37.925 113.494 37.775 113.977C37.6417 114.461 37.4917 114.819 37.325 115.052C35.6583 115.052 34.3 114.894 33.25 114.577C33.1833 114.344 33.15 114.069 33.15 113.752C33.15 113.452 33.1583 113.244 33.175 113.127L35.9 112.627ZM33.175 126.233L26.725 126.108C26.675 126.824 26.5583 127.541 26.375 128.258L25.5 128.208C25.3667 127.941 25.2167 127.458 25.05 126.758C24.9 126.074 24.825 125.399 24.825 124.733C25.425 124.433 26 124.266 26.55 124.233C25.3 122.333 24.675 120.999 24.675 120.233C24.675 119.049 24.9917 118.099 25.625 117.383C26.2583 116.666 27.1417 116.308 28.275 116.308C30.8917 116.308 32.2417 117.908 32.325 121.108C32.375 122.974 32.4 123.916 32.4 123.933L33.25 123.908C34.4 123.874 35.225 123.658 35.725 123.258C36.2417 122.858 36.5 122.141 36.5 121.108C36.5 120.674 36.4 120.208 36.2 119.708L33.7 119.108C33.6833 119.024 33.675 118.883 33.675 118.683L33.75 117.658C34.4667 117.391 35.4583 117.249 36.725 117.233C36.8917 117.549 37.1417 118.274 37.475 119.408C37.825 120.541 38 121.266 38 121.583C38 123.283 37.625 124.483 36.875 125.183C36.125 125.883 34.8917 126.233 33.175 126.233ZM26.375 120.783C26.375 121.266 26.9167 122.383 28 124.133L31.125 124.008C31.025 122.874 30.9333 121.924 30.85 121.158C30.7667 120.391 30.5417 119.774 30.175 119.308C29.825 118.841 29.2667 118.608 28.5 118.608C27.0833 118.608 26.375 119.333 26.375 120.783ZM35.2 141.784C34.6667 141.851 34.05 141.884 33.35 141.884C32.65 141.884 30.4333 141.818 26.7 141.684L26.5 143.784C26.0333 143.784 25.5333 143.643 25 143.359V137.609L25.875 137.534C26.1417 138.301 26.3417 139.051 26.475 139.784C30.9083 139.684 33.375 139.593 33.875 139.509C34.375 139.443 34.7917 139.326 35.125 139.159C35.475 138.993 35.7167 138.734 35.85 138.384C35.9833 138.034 36.05 137.501 36.05 136.784C36.05 136.084 35.7833 135.159 35.25 134.009C31.45 133.909 28.6 133.843 26.7 133.809L26.5 135.909C26.0333 135.909 25.5333 135.768 25 135.484V129.734L25.875 129.659C26.1417 130.426 26.3417 131.176 26.475 131.909C27.675 131.893 29.3667 131.851 31.55 131.784C33.75 131.718 35.1917 131.676 35.875 131.659C35.925 130.743 36.025 130.009 36.175 129.459L37.475 129.559C37.725 130.459 37.85 131.768 37.85 133.484C37.4333 133.718 37 133.868 36.55 133.934C36.9333 134.668 37.2667 135.393 37.55 136.109C37.85 136.826 38 137.276 38 137.459C38 139.309 37.4333 140.601 36.3 141.334C36.7167 142.101 37.1 142.893 37.45 143.709C37.8167 144.543 38 145.043 38 145.209C38 146.726 37.625 147.859 36.875 148.609C36.1417 149.376 34.9333 149.759 33.25 149.759C32.75 149.759 30.5667 149.693 26.7 149.559L26.5 151.659C26.0333 151.659 25.5333 151.518 25 151.234V145.484L25.875 145.409C26.1417 146.176 26.3417 146.926 26.475 147.659C29.1083 147.593 31.1 147.534 32.45 147.484C33.8 147.434 34.7333 147.243 35.25 146.909C35.7833 146.576 36.05 145.909 36.05 144.909C36.05 143.909 35.7667 142.868 35.2 141.784ZM39.675 167.648L39.7 167.248V167.148L42.15 166.373C42.2167 166.006 42.25 165.681 42.25 165.398C42.25 164.581 41.9333 164.006 41.3 163.673C40.6667 163.356 39.5583 163.198 37.975 163.198H37.675V163.573C37.675 164.723 37.6083 165.606 37.475 166.223C37.475 166.24 37.4667 166.273 37.45 166.323C36.9667 166.306 36.475 166.165 35.975 165.898V163.048H26.7V163.423C26.7 164.073 26.6667 164.648 26.6 165.148C26.5333 165.648 26.4833 165.915 26.45 165.948C26.0167 165.948 25.5333 165.806 25 165.523V158.973L25.875 158.898C26.1417 159.665 26.3417 160.365 26.475 160.998H35.975V159.073L36.85 158.998C37.0833 159.598 37.2667 160.265 37.4 160.998H38.425C40.3083 160.998 41.6833 161.348 42.55 162.048C42.8833 162.331 43.1583 162.731 43.375 163.248C43.6083 163.765 43.725 164.365 43.725 165.048C43.725 166.381 43.4333 167.648 42.85 168.848C41.8167 168.848 40.7833 168.748 39.75 168.548C39.7 168.365 39.675 168.065 39.675 167.648ZM40.075 173.002C39.975 172.569 39.925 172.144 39.925 171.727C39.925 171.327 39.95 170.927 40 170.527C40.4667 170.427 40.9333 170.377 41.4 170.377C41.8833 170.377 42.2417 170.394 42.475 170.427C42.5583 170.794 42.6 171.177 42.6 171.577C42.6 171.994 42.5833 172.435 42.55 172.902C42.1167 173.002 41.6917 173.052 41.275 173.052C40.875 173.052 40.475 173.035 40.075 173.002ZM37.45 168.452C37.7 169.869 37.825 170.969 37.825 171.752C37.825 172.535 37.8083 173.035 37.775 173.252C37.375 173.252 36.9333 173.202 36.45 173.102C35.9667 173.002 35.7333 172.944 35.75 172.927L26.7 172.702L26.5 174.802C26.0333 174.802 25.5333 174.66 25 174.377V168.627L25.875 168.552C26.1417 169.319 26.3417 170.069 26.475 170.802C30.6417 170.702 33.7667 170.619 35.85 170.552C35.85 169.585 35.95 168.852 36.15 168.352L37.45 168.452ZM38 183.992C38 185.592 37.6 186.751 36.8 187.467C36.0167 188.184 34.8167 188.542 33.2 188.542C32.7333 188.542 30.5667 188.476 26.7 188.342L26.5 190.442C26.0333 190.442 25.5333 190.301 25 190.017V184.267L25.875 184.192C26.1417 184.959 26.3417 185.709 26.475 186.442C30.8417 186.342 33.2667 186.251 33.75 186.167C34.25 186.101 34.6833 185.984 35.05 185.817C35.4167 185.651 35.675 185.401 35.825 185.067C35.975 184.734 36.05 184.292 36.05 183.742C36.05 182.642 35.7833 181.576 35.25 180.542C31.45 180.442 28.6 180.376 26.7 180.342L26.5 182.442C26.0333 182.442 25.5333 182.301 25 182.017V176.267L25.875 176.192C26.1417 176.959 26.3417 177.709 26.475 178.442C30.7083 178.342 33.8417 178.259 35.875 178.192C35.925 177.276 36.025 176.542 36.175 175.992L37.475 176.092C37.725 176.992 37.85 178.301 37.85 180.017C37.55 180.217 37.1167 180.367 36.55 180.467C36.9333 181.184 37.2667 181.901 37.55 182.617C37.85 183.351 38 183.809 38 183.992ZM33.175 201.648L26.725 201.523C26.675 202.239 26.5583 202.956 26.375 203.673L25.5 203.623C25.3667 203.356 25.2167 202.873 25.05 202.173C24.9 201.489 24.825 200.814 24.825 200.148C25.425 199.848 26 199.681 26.55 199.648C25.3 197.748 24.675 196.414 24.675 195.648C24.675 194.464 24.9917 193.514 25.625 192.798C26.2583 192.081 27.1417 191.723 28.275 191.723C30.8917 191.723 32.2417 193.323 32.325 196.523C32.375 198.389 32.4 199.331 32.4 199.348L33.25 199.323C34.4 199.289 35.225 199.073 35.725 198.673C36.2417 198.273 36.5 197.556 36.5 196.523C36.5 196.089 36.4 195.623 36.2 195.123L33.7 194.523C33.6833 194.439 33.675 194.298 33.675 194.098L33.75 193.073C34.4667 192.806 35.4583 192.664 36.725 192.648C36.8917 192.964 37.1417 193.689 37.475 194.823C37.825 195.956 38 196.681 38 196.998C38 198.698 37.625 199.898 36.875 200.598C36.125 201.298 34.8917 201.648 33.175 201.648ZM26.375 196.198C26.375 196.681 26.9167 197.798 28 199.548L31.125 199.423C31.025 198.289 30.9333 197.339 30.85 196.573C30.7667 195.806 30.5417 195.189 30.175 194.723C29.825 194.256 29.2667 194.023 28.5 194.023C27.0833 194.023 26.375 194.748 26.375 196.198ZM38 212.874C38 214.474 37.6 215.633 36.8 216.349C36.0167 217.066 34.8167 217.424 33.2 217.424C32.7333 217.424 30.5667 217.358 26.7 217.224L26.5 219.324C26.0333 219.324 25.5333 219.183 25 218.899V213.149L25.875 213.074C26.1417 213.841 26.3417 214.591 26.475 215.324C30.8417 215.224 33.2667 215.133 33.75 215.049C34.25 214.983 34.6833 214.866 35.05 214.699C35.4167 214.533 35.675 214.283 35.825 213.949C35.975 213.616 36.05 213.174 36.05 212.624C36.05 211.524 35.7833 210.458 35.25 209.424C31.45 209.324 28.6 209.258 26.7 209.224L26.5 211.324C26.0333 211.324 25.5333 211.183 25 210.899V205.149L25.875 205.074C26.1417 205.841 26.3417 206.591 26.475 207.324C30.7083 207.224 33.8417 207.141 35.875 207.074C35.925 206.158 36.025 205.424 36.175 204.874L37.475 204.974C37.725 205.874 37.85 207.183 37.85 208.899C37.55 209.099 37.1167 209.249 36.55 209.349C36.9333 210.066 37.2667 210.783 37.55 211.499C37.85 212.233 38 212.691 38 212.874ZM24.7 226.43C24.7 224.43 25.2583 222.938 26.375 221.955C27.5083 220.971 29.1167 220.48 31.2 220.48C35.7333 220.48 38 222.496 38 226.53C38 227.18 37.9 227.855 37.7 228.555C37.5167 229.255 37.3083 229.805 37.075 230.205C35.525 230.155 34.425 229.996 33.775 229.73C33.6917 229.43 33.65 229.188 33.65 229.005V228.58C33.65 228.496 33.6583 228.396 33.675 228.28L36.425 227.655C36.475 227.105 36.5 226.788 36.5 226.705C36.5 225.505 36.1333 224.546 35.4 223.83C34.6667 223.13 33.4333 222.78 31.7 222.78C29.9667 222.78 28.65 223.046 27.75 223.58C26.85 224.13 26.4 225.18 26.4 226.73C26.4 227.463 26.75 228.613 27.45 230.18C27.0167 230.496 26.6333 230.663 26.3 230.68C25.8 229.83 25.4083 228.996 25.125 228.18C24.8417 227.363 24.7 226.78 24.7 226.43ZM26.4 238.622C26.4 239.355 26.75 240.505 27.45 242.072C27.0167 242.388 26.6333 242.555 26.3 242.572C25.8 241.722 25.4083 240.888 25.125 240.072C24.8417 239.255 24.7 238.672 24.7 238.322C24.7 236.388 25.275 234.913 26.425 233.897C27.5917 232.88 29.2167 232.372 31.3 232.372C33.3833 232.372 35.0167 232.863 36.2 233.847C37.4 234.847 38 236.338 38 238.322C38 239.855 37.45 241.022 36.35 241.822C35.25 242.638 33.775 243.047 31.925 243.047C31.6917 242.913 31.5333 242.805 31.45 242.722L31.575 234.672C29.8917 234.688 28.6083 234.98 27.725 235.547C26.8417 236.13 26.4 237.155 26.4 238.622ZM33 240.772C34.1 240.772 34.95 240.572 35.55 240.172C36.1667 239.772 36.475 239.105 36.475 238.172C36.475 237.238 36.3 236.405 35.95 235.672C34.95 235.172 33.925 234.855 32.875 234.722C32.8917 236.038 32.9333 238.055 33 240.772ZM42.5 257.909C42.55 258.359 42.575 258.7 42.575 258.934C42.575 259.167 42.5333 259.55 42.45 260.084L25 253.234C24.9333 252.884 24.9 252.559 24.9 252.259C24.9 251.959 24.9167 251.675 24.95 251.409L42.5 257.909Z" fill="black"/>
<path d="M7.29288 310.707C7.6834 311.098 8.31657 311.098 8.70709 310.707L15.0711 304.343C15.4616 303.953 15.4616 303.319 15.0711 302.929C14.6805 302.538 14.0474 302.538 13.6568 302.929L7.99999 308.586L2.34313 302.929C1.95261 302.538 1.31944 302.538 0.928919 302.929C0.538395 303.319 0.538395 303.953 0.928919 304.343L7.29288 310.707ZM7 -4.37114e-08L6.99999 310L8.99999 310L9 4.37114e-08L7 -4.37114e-08Z" fill="black"/>
</svg>
