<svg width="1920" height="1080" viewBox="0 0 1920 1080" fill="none" xmlns="http://www.w3.org/2000/svg">
<rect width="1920" height="1080" rx="40" fill="black"/>
<path d="M131.92 264.56C135.387 264.56 138.533 265.013 141.36 265.92C144.213 266.827 146.507 268.307 148.24 270.36C150 272.387 150.88 275.027 150.88 278.28C150.88 281.533 150 284.187 148.24 286.24C146.507 288.267 144.213 289.733 141.36 290.64C138.533 291.547 135.387 292 131.92 292H104.6V287.8H113.08V268.76H104.6V264.56H131.92ZM131.16 287.8C133.853 287.8 136.213 287.573 138.24 287.12C140.293 286.667 141.987 285.747 143.32 284.36C144.653 282.947 145.32 280.92 145.32 278.28C145.32 274.52 144.013 272 141.4 270.72C138.787 269.413 135.373 268.76 131.16 268.76H118.4V287.8H131.16ZM197.885 275.32V268.76H172.525V276.4H184.485V272.56H188.725V284.2H184.485V280.36H172.525V287.8H197.885V281.24H202.605V292H158.845V287.8H167.285V268.76H158.845V264.56H202.605V275.32H197.885ZM258.242 268.76H251.042L234.962 292.52H232.162L216.002 268.76H208.802V264.56H227.802V268.76H222.562L234.242 286.32L245.802 268.76H240.002V264.56H258.242V268.76ZM302.196 275.32V268.76H276.836V276.4H288.796V272.56H293.036V284.2H288.796V280.36H276.836V287.8H302.196V281.24H306.916V292H263.156V287.8H271.596V268.76H263.156V264.56H306.916V275.32H302.196ZM356.45 280.48V292H317.05V287.8H325.53V268.76H317.05V264.56H339.25V268.76H330.77V287.8H351.73V280.48H356.45ZM385.593 292.52C381.486 292.52 377.793 291.92 374.513 290.72C371.259 289.52 368.699 287.84 366.833 285.68C364.993 283.493 364.073 281.027 364.073 278.28C364.073 275.533 364.993 273.08 366.833 270.92C368.699 268.733 371.259 267.04 374.513 265.84C377.793 264.613 381.486 264 385.593 264C389.673 264 393.339 264.613 396.593 265.84C399.873 267.04 402.432 268.733 404.273 270.92C406.113 273.08 407.033 275.533 407.033 278.28C407.033 281.027 406.113 283.493 404.273 285.68C402.432 287.84 399.886 289.52 396.633 290.72C393.379 291.92 389.699 292.52 385.593 292.52ZM385.553 288.2C388.726 288.2 391.513 287.773 393.913 286.92C396.339 286.067 398.206 284.893 399.513 283.4C400.819 281.907 401.473 280.2 401.473 278.28C401.473 276.307 400.819 274.573 399.513 273.08C398.206 271.587 396.339 270.427 393.913 269.6C391.513 268.747 388.726 268.32 385.553 268.32C382.353 268.32 379.553 268.747 377.153 269.6C374.753 270.453 372.899 271.64 371.592 273.16C370.286 274.653 369.633 276.36 369.633 278.28C369.633 280.227 370.273 281.96 371.553 283.48C372.859 284.973 374.713 286.133 377.113 286.96C379.539 287.787 382.353 288.2 385.553 288.2ZM448.075 264.56C450.315 264.56 452.301 264.907 454.035 265.6C455.795 266.293 457.168 267.307 458.155 268.64C459.141 269.973 459.635 271.56 459.635 273.4C459.635 275.187 459.141 276.76 458.155 278.12C457.168 279.453 455.795 280.48 454.035 281.2C452.275 281.92 450.288 282.28 448.075 282.28H428.755V287.8H437.755V292H414.955V287.8H423.435V268.76H414.955V264.56H448.075ZM447.955 278.2C449.821 278.2 451.328 277.773 452.475 276.92C453.621 276.067 454.195 274.92 454.195 273.48C454.195 271.987 453.621 270.827 452.475 270C451.355 269.173 449.848 268.76 447.955 268.76H428.755V278.2H447.955ZM506.092 275.32V268.76H480.732V276.4H492.692V272.56H496.932V284.2H492.692V280.36H480.732V287.8H506.092V281.24H510.812V292H467.052V287.8H475.492V268.76H467.052V264.56H510.812V275.32H506.092ZM548.265 264.56C551.732 264.56 554.879 265.013 557.705 265.92C560.559 266.827 562.852 268.307 564.585 270.36C566.345 272.387 567.225 275.027 567.225 278.28C567.225 281.533 566.345 284.187 564.585 286.24C562.852 288.267 560.559 289.733 557.705 290.64C554.879 291.547 551.732 292 548.265 292H520.945V287.8H529.425V268.76H520.945V264.56H548.265ZM547.505 287.8C550.199 287.8 552.559 287.573 554.585 287.12C556.639 286.667 558.332 285.747 559.665 284.36C560.999 282.947 561.665 280.92 561.665 278.28C561.665 274.52 560.359 272 557.745 270.72C555.132 269.413 551.719 268.76 547.505 268.76H534.745V287.8H547.505ZM647.116 287.8V292H627.756V287.8H633.636L629.916 282.52H610.396L606.636 287.8H612.516V292H593.116V287.8H600.836L615.196 268.72H609.076V264.56H631.156V268.72H625.076L639.476 287.8H647.116ZM627.316 278.8L620.236 268.72H620.116L612.996 278.8H627.316ZM737.087 268.76H729.927L717.527 292.52H714.807L703.487 271.96L692.167 292.52H689.487L677.047 268.76H669.887V264.56H688.487V268.76H682.887L691.327 285.64L702.607 265.12H705.407L716.407 285.6L724.847 268.76H719.207V264.56H737.087V268.76ZM787.932 268.76V287.8H796.372V292H774.172V287.8H782.612V279.96H756.012V287.8H764.412V292H742.172V287.8H750.692V268.76H742.172V264.56H764.412V268.76H756.012V276H782.612V268.76H774.172V264.56H796.372V268.76H787.932ZM854.097 287.8V292H834.737V287.8H840.617L836.897 282.52H817.377L813.617 287.8H819.497V292H800.097V287.8H807.817L822.177 268.72H816.057V264.56H838.137V268.72H832.057L846.457 287.8H854.097ZM834.297 278.8L827.217 268.72H827.097L819.977 278.8H834.297ZM898.847 264.56V275.32H894.127V268.72H879.927V287.8H888.647V292H865.927V287.8H874.607V268.72H860.407V275.32H855.727V264.56H898.847ZM927.492 276.2C931.652 276.68 934.945 277.28 937.372 278C939.799 278.72 941.572 279.64 942.692 280.76C943.812 281.853 944.372 283.253 944.372 284.96C944.372 287.333 943.225 289.2 940.932 290.56C938.665 291.893 935.532 292.56 931.532 292.56C928.252 292.56 924.972 292.08 921.692 291.12C918.439 290.133 915.439 288.787 912.692 287.08V292H907.892V281.92L911.092 281.28C913.732 283.547 916.852 285.307 920.452 286.56C924.052 287.813 927.745 288.44 931.532 288.44C933.852 288.44 935.652 288.147 936.932 287.56C938.239 286.947 938.892 286.08 938.892 284.96C938.892 284.16 938.465 283.533 937.612 283.08C936.759 282.6 935.332 282.187 933.332 281.84C931.332 281.493 928.225 281.067 924.012 280.56C920.092 280.107 916.972 279.533 914.652 278.84C912.332 278.12 910.639 277.213 909.572 276.12C908.532 275 908.012 273.6 908.012 271.92C908.012 269.44 909.185 267.507 911.532 266.12C913.879 264.733 917.199 264.04 921.492 264.04C924.532 264.04 927.425 264.48 930.172 265.36C932.945 266.213 935.479 267.427 937.772 269V264.56H942.492V274.44L939.452 275.04C937.345 272.853 934.759 271.173 931.692 270C928.625 268.827 925.212 268.24 921.452 268.24C919.052 268.24 917.132 268.573 915.692 269.24C914.252 269.907 913.532 270.8 913.532 271.92C913.532 272.693 913.932 273.32 914.732 273.8C915.532 274.253 916.879 274.653 918.772 275C920.665 275.347 923.572 275.747 927.492 276.2ZM1003.36 287.8V292H983.996V287.8H989.876L986.156 282.52H966.636L962.876 287.8H968.756V292H949.356V287.8H957.076L971.436 268.72H965.316V264.56H987.396V268.72H981.316L995.716 287.8H1003.36ZM983.556 278.8L976.476 268.72H976.356L969.236 278.8H983.556ZM1039.88 264.56C1042.12 264.56 1044.1 264.907 1045.84 265.6C1047.6 266.293 1048.97 267.307 1049.96 268.64C1050.94 269.973 1051.44 271.56 1051.44 273.4C1051.44 275.187 1050.94 276.76 1049.96 278.12C1048.97 279.453 1047.6 280.48 1045.84 281.2C1044.08 281.92 1042.09 282.28 1039.88 282.28H1020.56V287.8H1029.56V292H1006.76V287.8H1015.24V268.76H1006.76V264.56H1039.88ZM1039.76 278.2C1041.62 278.2 1043.13 277.773 1044.28 276.92C1045.42 276.067 1046 274.92 1046 273.48C1046 271.987 1045.42 270.827 1044.28 270C1043.16 269.173 1041.65 268.76 1039.76 268.76H1020.56V278.2H1039.76ZM1091.97 264.56C1094.21 264.56 1096.2 264.907 1097.93 265.6C1099.69 266.293 1101.07 267.307 1102.05 268.64C1103.04 269.973 1103.53 271.56 1103.53 273.4C1103.53 275.187 1103.04 276.76 1102.05 278.12C1101.07 279.453 1099.69 280.48 1097.93 281.2C1096.17 281.92 1094.19 282.28 1091.97 282.28H1072.65V287.8H1081.65V292H1058.85V287.8H1067.33V268.76H1058.85V264.56H1091.97ZM1091.85 278.2C1093.72 278.2 1095.23 277.773 1096.37 276.92C1097.52 276.067 1098.09 274.92 1098.09 273.48C1098.09 271.987 1097.52 270.827 1096.37 270C1095.25 269.173 1093.75 268.76 1091.85 268.76H1072.65V278.2H1091.85ZM1182.68 287.8V292H1163.32V287.8H1169.2L1165.48 282.52H1145.96L1142.2 287.8H1148.08V292H1128.68V287.8H1136.4L1150.76 268.72H1144.64V264.56H1166.72V268.72H1160.64L1175.04 287.8H1182.68ZM1162.88 278.8L1155.8 268.72H1155.68L1148.56 278.8H1162.88ZM1219.2 264.56C1221.44 264.56 1223.43 264.907 1225.16 265.6C1226.92 266.293 1228.3 267.307 1229.28 268.64C1230.27 269.973 1230.76 271.56 1230.76 273.4C1230.76 275.187 1230.27 276.76 1229.28 278.12C1228.3 279.453 1226.92 280.48 1225.16 281.2C1223.4 281.92 1221.42 282.28 1219.2 282.28H1199.88V287.8H1208.88V292H1186.08V287.8H1194.56V268.76H1186.08V264.56H1219.2ZM1219.08 278.2C1220.95 278.2 1222.46 277.773 1223.6 276.92C1224.75 276.067 1225.32 274.92 1225.32 273.48C1225.32 271.987 1224.75 270.827 1223.6 270C1222.48 269.173 1220.98 268.76 1219.08 268.76H1199.88V278.2H1219.08ZM1251.98 268.76V287.8H1260.42V292H1238.18V287.8H1246.66V268.76H1238.18V264.56H1260.42V268.76H1251.98ZM1339.61 268.76H1331.21V278.08C1331.21 281.227 1330.44 283.88 1328.89 286.04C1327.34 288.2 1325.22 289.827 1322.53 290.92C1319.84 291.987 1316.74 292.52 1313.25 292.52C1309.7 292.52 1306.57 291.987 1303.85 290.92C1301.16 289.827 1299.05 288.2 1297.53 286.04C1296.04 283.88 1295.29 281.227 1295.29 278.08V268.76H1286.85V264.56H1308.33V268.76H1300.49L1300.57 278.28C1300.6 281.667 1301.74 284.173 1304.01 285.8C1306.28 287.4 1309.36 288.2 1313.25 288.2C1317.12 288.2 1320.18 287.387 1322.45 285.76C1324.74 284.107 1325.9 281.587 1325.93 278.2L1326.01 268.76H1318.25V264.56H1339.61V268.76ZM1365.88 276.2C1370.04 276.68 1373.34 277.28 1375.76 278C1378.19 278.72 1379.96 279.64 1381.08 280.76C1382.2 281.853 1382.76 283.253 1382.76 284.96C1382.76 287.333 1381.62 289.2 1379.32 290.56C1377.06 291.893 1373.92 292.56 1369.92 292.56C1366.64 292.56 1363.36 292.08 1360.08 291.12C1356.83 290.133 1353.83 288.787 1351.08 287.08V292H1346.28V281.92L1349.48 281.28C1352.12 283.547 1355.24 285.307 1358.84 286.56C1362.44 287.813 1366.14 288.44 1369.92 288.44C1372.24 288.44 1374.04 288.147 1375.32 287.56C1376.63 286.947 1377.28 286.08 1377.28 284.96C1377.28 284.16 1376.86 283.533 1376 283.08C1375.15 282.6 1373.72 282.187 1371.72 281.84C1369.72 281.493 1366.62 281.067 1362.4 280.56C1358.48 280.107 1355.36 279.533 1353.04 278.84C1350.72 278.12 1349.03 277.213 1347.96 276.12C1346.92 275 1346.4 273.6 1346.4 271.92C1346.4 269.44 1347.58 267.507 1349.92 266.12C1352.27 264.733 1355.59 264.04 1359.88 264.04C1362.92 264.04 1365.82 264.48 1368.56 265.36C1371.34 266.213 1373.87 267.427 1376.16 269V264.56H1380.88V274.44L1377.84 275.04C1375.74 272.853 1373.15 271.173 1370.08 270C1367.02 268.827 1363.6 268.24 1359.84 268.24C1357.44 268.24 1355.52 268.573 1354.08 269.24C1352.64 269.907 1351.92 270.8 1351.92 271.92C1351.92 272.693 1352.32 273.32 1353.12 273.8C1353.92 274.253 1355.27 274.653 1357.16 275C1359.06 275.347 1361.96 275.747 1365.88 276.2ZM1405.05 268.76V287.8H1413.49V292H1391.25V287.8H1399.73V268.76H1391.25V264.56H1413.49V268.76H1405.05ZM1476.76 268.76H1468.28V292.24L1465.56 292.28L1435.08 271.08V287.8H1444.12V292H1421.48V287.8H1429.96V268.76H1421.48V264.56H1435.08L1463.4 284.44V268.76H1454.96V264.56H1476.76V268.76ZM1502.5 268.16C1499.62 268.16 1497.02 268.56 1494.7 269.36C1492.38 270.16 1490.54 271.333 1489.18 272.88C1487.84 274.4 1487.18 276.213 1487.18 278.32C1487.18 280.427 1487.83 282.24 1489.14 283.76C1490.47 285.253 1492.3 286.4 1494.62 287.2C1496.96 287.973 1499.63 288.36 1502.62 288.36C1505.42 288.36 1508.1 288 1510.66 287.28C1513.24 286.533 1515.4 285.587 1517.14 284.44V281.4H1502.62V277.44H1522.22V286.64C1519.68 288.427 1516.71 289.853 1513.3 290.92C1509.91 291.987 1506.28 292.52 1502.42 292.52C1498.47 292.52 1494.92 291.96 1491.78 290.84C1488.63 289.693 1486.15 288.053 1484.34 285.92C1482.52 283.76 1481.62 281.227 1481.62 278.32C1481.62 275.44 1482.48 272.92 1484.22 270.76C1485.95 268.6 1488.3 266.933 1491.26 265.76C1494.24 264.587 1497.55 264 1501.18 264C1507.87 264 1513.32 265.84 1517.54 269.52V264.56H1522.22V273.88L1518.86 274.48C1516.72 272.427 1514.27 270.867 1511.5 269.8C1508.72 268.707 1505.72 268.16 1502.5 268.16ZM165.36 375.8V380H144.76V375.8H151.6V365.6C151.6 363.653 151.88 361.147 152.44 358.08L136.28 380.16H133.48L117.48 358.2C117.933 361.48 118.16 363.947 118.16 365.6V375.8H125.04V380H104.6V375.8H113.16V356.76H104.6V352.56H119.32L135.08 374.28L150.6 352.56H165.32V356.76H156.88V375.8H165.36ZM212.378 363.32V356.76H187.018V364.4H198.978V360.56H203.218V372.2H198.978V368.36H187.018V375.8H212.378V369.24H217.098V380H173.338V375.8H181.778V356.76H173.338V352.56H217.098V363.32H212.378ZM269.165 352.56V363.32H264.445V356.72H250.245V375.8H258.965V380H236.245V375.8H244.925V356.72H230.725V363.32H226.045V352.56H269.165ZM324.781 375.8V380H305.421V375.8H311.301L307.581 370.52H288.061L284.301 375.8H290.181V380H270.781V375.8H278.501L292.861 356.72H286.741V352.56H308.821V356.72H302.741L317.141 375.8H324.781ZM304.981 366.8L297.901 356.72H297.781L290.661 366.8H304.981ZM401.553 375.8V380H382.193V375.8H388.073L384.353 370.52H364.833L361.073 375.8H366.953V380H347.553V375.8H355.273L369.633 356.72H363.513V352.56H385.593V356.72H379.513L393.913 375.8H401.553ZM381.753 366.8L374.673 356.72H374.553L367.433 366.8H381.753ZM438.075 352.56C440.315 352.56 442.301 352.907 444.035 353.6C445.795 354.293 447.168 355.307 448.155 356.64C449.141 357.973 449.635 359.56 449.635 361.4C449.635 363.187 449.141 364.76 448.155 366.12C447.168 367.453 445.795 368.48 444.035 369.2C442.275 369.92 440.288 370.28 438.075 370.28H418.755V375.8H427.755V380H404.955V375.8H413.435V356.76H404.955V352.56H438.075ZM437.955 366.2C439.821 366.2 441.328 365.773 442.475 364.92C443.621 364.067 444.195 362.92 444.195 361.48C444.195 359.987 443.621 358.827 442.475 358C441.355 357.173 439.848 356.76 437.955 356.76H418.755V366.2H437.955ZM470.852 356.76V375.8H479.292V380H457.052V375.8H465.532V356.76H457.052V352.56H479.292V356.76H470.852ZM559.003 375.8V380H539.643V375.8H545.523L541.803 370.52H522.283L518.523 375.8H524.403V380H505.003V375.8H512.723L527.083 356.72H520.963V352.56H543.043V356.72H536.963L551.363 375.8H559.003ZM539.203 366.8L532.123 356.72H532.003L524.883 366.8H539.203ZM617.685 356.76H609.205V380.24L606.485 380.28L576.005 359.08V375.8H585.045V380H562.405V375.8H570.885V356.76H562.405V352.56H576.005L604.325 372.44V356.76H595.885V352.56H617.685V356.76ZM650.65 352.56C654.116 352.56 657.263 353.013 660.09 353.92C662.943 354.827 665.236 356.307 666.97 358.36C668.73 360.387 669.61 363.027 669.61 366.28C669.61 369.533 668.73 372.187 666.97 374.24C665.236 376.267 662.943 377.733 660.09 378.64C657.263 379.547 654.116 380 650.65 380H623.33V375.8H631.81V356.76H623.33V352.56H650.65ZM649.89 375.8C652.583 375.8 654.943 375.573 656.97 375.12C659.023 374.667 660.716 373.747 662.05 372.36C663.383 370.947 664.05 368.92 664.05 366.28C664.05 362.52 662.743 360 660.13 358.72C657.516 357.413 654.103 356.76 649.89 356.76H637.13V375.8H649.89ZM744.94 356.76H737.74L721.66 380.52H718.86L702.7 356.76H695.5V352.56H714.5V356.76H709.26L720.94 374.32L732.5 356.76H726.7V352.56H744.94V356.76ZM763.655 356.76V375.8H772.095V380H749.855V375.8H758.335V356.76H749.855V352.56H772.095V356.76H763.655ZM818.997 365.72C822.81 366.733 824.717 368.947 824.717 372.36C824.717 374.813 823.797 376.707 821.957 378.04C820.143 379.347 817.503 380 814.037 380H780.077V375.8H788.557V356.76H780.077V352.56H813.277C816.29 352.56 818.597 353.227 820.197 354.56C821.823 355.893 822.637 357.653 822.637 359.84C822.637 361.173 822.303 362.333 821.637 363.32C820.997 364.307 820.117 365.107 818.997 365.72ZM793.877 356.76V364.36H812.037C815.583 364.36 817.357 363.067 817.357 360.48C817.357 359.2 816.93 358.267 816.077 357.68C815.25 357.067 814.237 356.76 813.037 356.76H793.877ZM813.597 375.8C817.49 375.8 819.437 374.52 819.437 371.96C819.437 369.427 817.57 368.16 813.837 368.16H793.877V375.8H813.597ZM885.38 369.28V370.64C885.38 372.48 884.953 374.16 884.1 375.68C883.246 377.173 882.073 378.36 880.58 379.24C879.113 380.12 877.486 380.56 875.7 380.56C873.94 380.56 872.34 380.227 870.9 379.56C869.46 378.867 868.206 378.027 867.14 377.04C866.073 376.027 864.953 374.813 863.78 373.4C862.633 372.04 861.713 371.04 861.02 370.4C860.326 369.76 859.446 369.253 858.38 368.88C857.313 368.48 855.926 368.28 854.22 368.28H847.38V375.8H855.62V380H833.58V375.76H842.06V356.76H833.58V352.56H867.22C870.713 352.56 873.433 353.253 875.38 354.64C877.353 356.027 878.34 357.947 878.34 360.4C878.34 362.827 877.38 364.747 875.46 366.16C873.566 367.573 870.966 368.28 867.66 368.28H863.74C864.486 368.6 865.233 369.053 865.98 369.64C866.726 370.227 867.566 371.013 868.5 372C869.94 373.493 871.153 374.56 872.14 375.2C873.153 375.813 874.34 376.12 875.7 376.12C876.606 376.12 877.446 375.893 878.22 375.44C878.993 374.987 879.606 374.347 880.06 373.52C880.54 372.693 880.78 371.76 880.78 370.72V369.28H885.38ZM847.38 356.76V364.32H867.38C869.193 364.32 870.58 363.973 871.54 363.28C872.526 362.56 873.02 361.6 873.02 360.4C873.02 359.28 872.526 358.4 871.54 357.76C870.58 357.093 869.193 356.76 867.38 356.76H847.38ZM941.442 375.8V380H922.082V375.8H927.962L924.242 370.52H904.722L900.962 375.8H906.842V380H887.442V375.8H895.162L909.522 356.72H903.402V352.56H925.482V356.72H919.402L933.802 375.8H941.442ZM921.642 366.8L914.562 356.72H914.442L907.322 366.8H921.642ZM1000.12 356.76H991.644V380.24L988.924 380.28L958.444 359.08V375.8H967.484V380H944.844V375.8H953.324V356.76H944.844V352.56H958.444L986.764 372.44V356.76H978.324V352.56H1000.12V356.76ZM1048.29 352.56V363.32H1043.57V356.72H1029.37V375.8H1038.09V380H1015.37V375.8H1024.05V356.72H1009.85V363.32H1005.17V352.56H1048.29ZM1098.37 364.2C1102.53 364.68 1105.82 365.28 1108.25 366C1110.67 366.72 1112.45 367.64 1113.57 368.76C1114.69 369.853 1115.25 371.253 1115.25 372.96C1115.25 375.333 1114.1 377.2 1111.81 378.56C1109.54 379.893 1106.41 380.56 1102.41 380.56C1099.13 380.56 1095.85 380.08 1092.57 379.12C1089.31 378.133 1086.31 376.787 1083.57 375.08V380H1078.77V369.92L1081.97 369.28C1084.61 371.547 1087.73 373.307 1091.33 374.56C1094.93 375.813 1098.62 376.44 1102.41 376.44C1104.73 376.44 1106.53 376.147 1107.81 375.56C1109.11 374.947 1109.77 374.08 1109.77 372.96C1109.77 372.16 1109.34 371.533 1108.49 371.08C1107.63 370.6 1106.21 370.187 1104.21 369.84C1102.21 369.493 1099.1 369.067 1094.89 368.56C1090.97 368.107 1087.85 367.533 1085.53 366.84C1083.21 366.12 1081.51 365.213 1080.45 364.12C1079.41 363 1078.89 361.6 1078.89 359.92C1078.89 357.44 1080.06 355.507 1082.41 354.12C1084.75 352.733 1088.07 352.04 1092.37 352.04C1095.41 352.04 1098.3 352.48 1101.05 353.36C1103.82 354.213 1106.35 355.427 1108.65 357V352.56H1113.37V362.44L1110.33 363.04C1108.22 360.853 1105.63 359.173 1102.57 358C1099.5 356.827 1096.09 356.24 1092.33 356.24C1089.93 356.24 1088.01 356.573 1086.57 357.24C1085.13 357.907 1084.41 358.8 1084.41 359.92C1084.41 360.693 1084.81 361.32 1085.61 361.8C1086.41 362.253 1087.75 362.653 1089.65 363C1091.54 363.347 1094.45 363.747 1098.37 364.2ZM1162.78 363.32V356.76H1137.42V364.4H1149.38V360.56H1153.62V372.2H1149.38V368.36H1137.42V375.8H1162.78V369.24H1167.5V380H1123.74V375.8H1132.18V356.76H1123.74V352.56H1167.5V363.32H1162.78ZM1198.38 364.2C1202.54 364.68 1205.83 365.28 1208.26 366C1210.69 366.72 1212.46 367.64 1213.58 368.76C1214.7 369.853 1215.26 371.253 1215.26 372.96C1215.26 375.333 1214.11 377.2 1211.82 378.56C1209.55 379.893 1206.42 380.56 1202.42 380.56C1199.14 380.56 1195.86 380.08 1192.58 379.12C1189.33 378.133 1186.33 376.787 1183.58 375.08V380H1178.78V369.92L1181.98 369.28C1184.62 371.547 1187.74 373.307 1191.34 374.56C1194.94 375.813 1198.63 376.44 1202.42 376.44C1204.74 376.44 1206.54 376.147 1207.82 375.56C1209.13 374.947 1209.78 374.08 1209.78 372.96C1209.78 372.16 1209.35 371.533 1208.5 371.08C1207.65 370.6 1206.22 370.187 1204.22 369.84C1202.22 369.493 1199.11 369.067 1194.9 368.56C1190.98 368.107 1187.86 367.533 1185.54 366.84C1183.22 366.12 1181.53 365.213 1180.46 364.12C1179.42 363 1178.9 361.6 1178.9 359.92C1178.9 357.44 1180.07 355.507 1182.42 354.12C1184.77 352.733 1188.09 352.04 1192.38 352.04C1195.42 352.04 1198.31 352.48 1201.06 353.36C1203.83 354.213 1206.37 355.427 1208.66 357V352.56H1213.38V362.44L1210.34 363.04C1208.23 360.853 1205.65 359.173 1202.58 358C1199.51 356.827 1196.1 356.24 1192.34 356.24C1189.94 356.24 1188.02 356.573 1186.58 357.24C1185.14 357.907 1184.42 358.8 1184.42 359.92C1184.42 360.693 1184.82 361.32 1185.62 361.8C1186.42 362.253 1187.77 362.653 1189.66 363C1191.55 363.347 1194.46 363.747 1198.38 364.2ZM1245.17 364.2C1249.33 364.68 1252.62 365.28 1255.05 366C1257.47 366.72 1259.25 367.64 1260.37 368.76C1261.49 369.853 1262.05 371.253 1262.05 372.96C1262.05 375.333 1260.9 377.2 1258.61 378.56C1256.34 379.893 1253.21 380.56 1249.21 380.56C1245.93 380.56 1242.65 380.08 1239.37 379.12C1236.11 378.133 1233.11 376.787 1230.37 375.08V380H1225.57V369.92L1228.77 369.28C1231.41 371.547 1234.53 373.307 1238.13 374.56C1241.73 375.813 1245.42 376.44 1249.21 376.44C1251.53 376.44 1253.33 376.147 1254.61 375.56C1255.91 374.947 1256.57 374.08 1256.57 372.96C1256.57 372.16 1256.14 371.533 1255.29 371.08C1254.43 370.6 1253.01 370.187 1251.01 369.84C1249.01 369.493 1245.9 369.067 1241.69 368.56C1237.77 368.107 1234.65 367.533 1232.33 366.84C1230.01 366.12 1228.31 365.213 1227.25 364.12C1226.21 363 1225.69 361.6 1225.69 359.92C1225.69 357.44 1226.86 355.507 1229.21 354.12C1231.55 352.733 1234.87 352.04 1239.17 352.04C1242.21 352.04 1245.1 352.48 1247.85 353.36C1250.62 354.213 1253.15 355.427 1255.45 357V352.56H1260.17V362.44L1257.13 363.04C1255.02 360.853 1252.43 359.173 1249.37 358C1246.3 356.827 1242.89 356.24 1239.13 356.24C1236.73 356.24 1234.81 356.573 1233.37 357.24C1231.93 357.907 1231.21 358.8 1231.21 359.92C1231.21 360.693 1231.61 361.32 1232.41 361.8C1233.21 362.253 1234.55 362.653 1236.45 363C1238.34 363.347 1241.25 363.747 1245.17 364.2ZM1284.34 356.76V375.8H1292.78V380H1270.54V375.8H1279.02V356.76H1270.54V352.56H1292.78V356.76H1284.34ZM1322.24 380.52C1318.14 380.52 1314.44 379.92 1311.16 378.72C1307.91 377.52 1305.35 375.84 1303.48 373.68C1301.64 371.493 1300.72 369.027 1300.72 366.28C1300.72 363.533 1301.64 361.08 1303.48 358.92C1305.35 356.733 1307.91 355.04 1311.16 353.84C1314.44 352.613 1318.14 352 1322.24 352C1326.32 352 1329.99 352.613 1333.24 353.84C1336.52 355.04 1339.08 356.733 1340.92 358.92C1342.76 361.08 1343.68 363.533 1343.68 366.28C1343.68 369.027 1342.76 371.493 1340.92 373.68C1339.08 375.84 1336.54 377.52 1333.28 378.72C1330.03 379.92 1326.35 380.52 1322.24 380.52ZM1322.2 376.2C1325.38 376.2 1328.16 375.773 1330.56 374.92C1332.99 374.067 1334.86 372.893 1336.16 371.4C1337.47 369.907 1338.12 368.2 1338.12 366.28C1338.12 364.307 1337.47 362.573 1336.16 361.08C1334.86 359.587 1332.99 358.427 1330.56 357.6C1328.16 356.747 1325.38 356.32 1322.2 356.32C1319 356.32 1316.2 356.747 1313.8 357.6C1311.4 358.453 1309.55 359.64 1308.24 361.16C1306.94 362.653 1306.28 364.36 1306.28 366.28C1306.28 368.227 1306.92 369.96 1308.2 371.48C1309.51 372.973 1311.36 374.133 1313.76 374.96C1316.19 375.787 1319 376.2 1322.2 376.2ZM1406.89 356.76H1398.41V380.24L1395.69 380.28L1365.21 359.08V375.8H1374.25V380H1351.61V375.8H1360.09V356.76H1351.61V352.56H1365.21L1393.53 372.44V356.76H1385.09V352.56H1406.89V356.76ZM1476.22 352.56V363.32H1471.5V356.76H1446.98V364.72H1458.62V360.88H1462.86V372.56H1458.62V368.68H1446.98V375.8H1455.98V380H1433.26V375.8H1441.74V356.76H1433.26V352.56H1476.22ZM1505.63 380.52C1501.52 380.52 1497.83 379.92 1494.55 378.72C1491.3 377.52 1488.74 375.84 1486.87 373.68C1485.03 371.493 1484.11 369.027 1484.11 366.28C1484.11 363.533 1485.03 361.08 1486.87 358.92C1488.74 356.733 1491.3 355.04 1494.55 353.84C1497.83 352.613 1501.52 352 1505.63 352C1509.71 352 1513.38 352.613 1516.63 353.84C1519.91 355.04 1522.47 356.733 1524.31 358.92C1526.15 361.08 1527.07 363.533 1527.07 366.28C1527.07 369.027 1526.15 371.493 1524.31 373.68C1522.47 375.84 1519.92 377.52 1516.67 378.72C1513.42 379.92 1509.74 380.52 1505.63 380.52ZM1505.59 376.2C1508.76 376.2 1511.55 375.773 1513.95 374.92C1516.38 374.067 1518.24 372.893 1519.55 371.4C1520.86 369.907 1521.51 368.2 1521.51 366.28C1521.51 364.307 1520.86 362.573 1519.55 361.08C1518.24 359.587 1516.38 358.427 1513.95 357.6C1511.55 356.747 1508.76 356.32 1505.59 356.32C1502.39 356.32 1499.59 356.747 1497.19 357.6C1494.79 358.453 1492.94 359.64 1491.63 361.16C1490.32 362.653 1489.67 364.36 1489.67 366.28C1489.67 368.227 1490.31 369.96 1491.59 371.48C1492.9 372.973 1494.75 374.133 1497.15 374.96C1499.58 375.787 1502.39 376.2 1505.59 376.2ZM1586.79 369.28V370.64C1586.79 372.48 1586.37 374.16 1585.51 375.68C1584.66 377.173 1583.49 378.36 1581.99 379.24C1580.53 380.12 1578.9 380.56 1577.11 380.56C1575.35 380.56 1573.75 380.227 1572.31 379.56C1570.87 378.867 1569.62 378.027 1568.55 377.04C1567.49 376.027 1566.37 374.813 1565.19 373.4C1564.05 372.04 1563.13 371.04 1562.43 370.4C1561.74 369.76 1560.86 369.253 1559.79 368.88C1558.73 368.48 1557.34 368.28 1555.63 368.28H1548.79V375.8H1557.03V380H1534.99V375.76H1543.47V356.76H1534.99V352.56H1568.63C1572.13 352.56 1574.85 353.253 1576.79 354.64C1578.77 356.027 1579.75 357.947 1579.75 360.4C1579.75 362.827 1578.79 364.747 1576.87 366.16C1574.98 367.573 1572.38 368.28 1569.07 368.28H1565.15C1565.9 368.6 1566.65 369.053 1567.39 369.64C1568.14 370.227 1568.98 371.013 1569.91 372C1571.35 373.493 1572.57 374.56 1573.55 375.2C1574.57 375.813 1575.75 376.12 1577.11 376.12C1578.02 376.12 1578.86 375.893 1579.63 375.44C1580.41 374.987 1581.02 374.347 1581.47 373.52C1581.95 372.693 1582.19 371.76 1582.19 370.72V369.28H1586.79ZM1548.79 356.76V364.32H1568.79C1570.61 364.32 1571.99 363.973 1572.95 363.28C1573.94 362.56 1574.43 361.6 1574.43 360.4C1574.43 359.28 1573.94 358.4 1572.95 357.76C1571.99 357.093 1570.61 356.76 1568.79 356.76H1548.79ZM131.92 440.56C135.387 440.56 138.533 441.013 141.36 441.92C144.213 442.827 146.507 444.307 148.24 446.36C150 448.387 150.88 451.027 150.88 454.28C150.88 457.533 150 460.187 148.24 462.24C146.507 464.267 144.213 465.733 141.36 466.64C138.533 467.547 135.387 468 131.92 468H104.6V463.8H113.08V444.76H104.6V440.56H131.92ZM131.16 463.8C133.853 463.8 136.213 463.573 138.24 463.12C140.293 462.667 141.987 461.747 143.32 460.36C144.653 458.947 145.32 456.92 145.32 454.28C145.32 450.52 144.013 448 141.4 446.72C138.787 445.413 135.373 444.76 131.16 444.76H118.4V463.8H131.16ZM208.791 463.8V468H189.431V463.8H195.311L191.591 458.52H172.071L168.311 463.8H174.191V468H154.791V463.8H162.511L176.871 444.72H170.751V440.56H192.831V444.72H186.751L201.151 463.8H208.791ZM188.991 454.8L181.911 444.72H181.791L174.671 454.8H188.991ZM225.992 444.76V463.8H234.432V468H212.192V463.8H220.672V444.76H212.192V440.56H234.432V444.76H225.992ZM281.814 456.48V468H242.414V463.8H250.894V444.76H242.414V440.56H264.614V444.76H256.134V463.8H277.094V456.48H281.814ZM310.136 457.44V463.8H318.496V468H296.496V463.8H304.816V457.64L290.936 444.76H284.576V440.56H302.256V444.76H297.736L307.976 454.56L317.856 444.76H312.656V440.56H330.296V444.76H323.336L310.136 457.44ZM408.591 457.28V458.64C408.591 460.48 408.164 462.16 407.311 463.68C406.457 465.173 405.284 466.36 403.791 467.24C402.324 468.12 400.697 468.56 398.911 468.56C397.151 468.56 395.551 468.227 394.111 467.56C392.671 466.867 391.417 466.027 390.351 465.04C389.284 464.027 388.164 462.813 386.991 461.4C385.844 460.04 384.924 459.04 384.231 458.4C383.537 457.76 382.657 457.253 381.591 456.88C380.524 456.48 379.137 456.28 377.431 456.28H370.591V463.8H378.831V468H356.791V463.76H365.271V444.76H356.791V440.56H390.431C393.924 440.56 396.644 441.253 398.591 442.64C400.564 444.027 401.551 445.947 401.551 448.4C401.551 450.827 400.591 452.747 398.671 454.16C396.777 455.573 394.177 456.28 390.871 456.28H386.951C387.697 456.6 388.444 457.053 389.191 457.64C389.937 458.227 390.777 459.013 391.711 460C393.151 461.493 394.364 462.56 395.351 463.2C396.364 463.813 397.551 464.12 398.911 464.12C399.817 464.12 400.657 463.893 401.431 463.44C402.204 462.987 402.817 462.347 403.271 461.52C403.751 460.693 403.991 459.76 403.991 458.72V457.28H408.591ZM370.591 444.76V452.32H390.591C392.404 452.32 393.791 451.973 394.751 451.28C395.737 450.56 396.231 449.6 396.231 448.4C396.231 447.28 395.737 446.4 394.751 445.76C393.791 445.093 392.404 444.76 390.591 444.76H370.591ZM452.967 451.32V444.76H427.607V452.4H439.567V448.56H443.807V460.2H439.567V456.36H427.607V463.8H452.967V457.24H457.687V468H413.927V463.8H422.367V444.76H413.927V440.56H457.687V451.32H452.967ZM500.94 440.56C503.18 440.56 505.167 440.907 506.9 441.6C508.66 442.293 510.034 443.307 511.02 444.64C512.007 445.973 512.5 447.56 512.5 449.4C512.5 451.187 512.007 452.76 511.02 454.12C510.034 455.453 508.66 456.48 506.9 457.2C505.14 457.92 503.154 458.28 500.94 458.28H481.62V463.8H490.62V468H467.82V463.8H476.3V444.76H467.82V440.56H500.94ZM500.82 454.2C502.687 454.2 504.194 453.773 505.34 452.92C506.487 452.067 507.06 450.92 507.06 449.48C507.06 447.987 506.487 446.827 505.34 446C504.22 445.173 502.714 444.76 500.82 444.76H481.62V454.2H500.82ZM541.636 468.52C537.53 468.52 533.836 467.92 530.556 466.72C527.303 465.52 524.743 463.84 522.876 461.68C521.036 459.493 520.116 457.027 520.116 454.28C520.116 451.533 521.036 449.08 522.876 446.92C524.743 444.733 527.303 443.04 530.556 441.84C533.836 440.613 537.53 440 541.636 440C545.716 440 549.383 440.613 552.636 441.84C555.916 443.04 558.476 444.733 560.316 446.92C562.156 449.08 563.076 451.533 563.076 454.28C563.076 457.027 562.156 459.493 560.316 461.68C558.476 463.84 555.93 465.52 552.676 466.72C549.423 467.92 545.743 468.52 541.636 468.52ZM541.596 464.2C544.77 464.2 547.556 463.773 549.956 462.92C552.383 462.067 554.25 460.893 555.556 459.4C556.863 457.907 557.516 456.2 557.516 454.28C557.516 452.307 556.863 450.573 555.556 449.08C554.25 447.587 552.383 446.427 549.956 445.6C547.556 444.747 544.77 444.32 541.596 444.32C538.396 444.32 535.596 444.747 533.196 445.6C530.796 446.453 528.943 447.64 527.636 449.16C526.33 450.653 525.676 452.36 525.676 454.28C525.676 456.227 526.316 457.96 527.596 459.48C528.903 460.973 530.756 462.133 533.156 462.96C535.583 463.787 538.396 464.2 541.596 464.2ZM622.798 457.28V458.64C622.798 460.48 622.372 462.16 621.518 463.68C620.665 465.173 619.492 466.36 617.998 467.24C616.532 468.12 614.905 468.56 613.118 468.56C611.358 468.56 609.758 468.227 608.318 467.56C606.878 466.867 605.625 466.027 604.558 465.04C603.492 464.027 602.372 462.813 601.198 461.4C600.052 460.04 599.132 459.04 598.438 458.4C597.745 457.76 596.865 457.253 595.798 456.88C594.732 456.48 593.345 456.28 591.638 456.28H584.798V463.8H593.038V468H570.998V463.76H579.478V444.76H570.998V440.56H604.638C608.132 440.56 610.852 441.253 612.798 442.64C614.772 444.027 615.758 445.947 615.758 448.4C615.758 450.827 614.798 452.747 612.878 454.16C610.985 455.573 608.385 456.28 605.078 456.28H601.158C601.905 456.6 602.652 457.053 603.398 457.64C604.145 458.227 604.985 459.013 605.918 460C607.358 461.493 608.572 462.56 609.558 463.2C610.572 463.813 611.758 464.12 613.118 464.12C614.025 464.12 614.865 463.893 615.638 463.44C616.412 462.987 617.025 462.347 617.478 461.52C617.958 460.693 618.198 459.76 618.198 458.72V457.28H622.798ZM584.798 444.76V452.32H604.798C606.612 452.32 607.998 451.973 608.958 451.28C609.945 450.56 610.438 449.6 610.438 448.4C610.438 447.28 609.945 446.4 608.958 445.76C607.998 445.093 606.612 444.76 604.798 444.76H584.798ZM668.545 440.56V451.32H663.825V444.72H649.625V463.8H658.345V468H635.625V463.8H644.305V444.72H630.105V451.32H625.425V440.56H668.545ZM697.19 452.2C701.35 452.68 704.644 453.28 707.07 454C709.497 454.72 711.27 455.64 712.39 456.76C713.51 457.853 714.07 459.253 714.07 460.96C714.07 463.333 712.924 465.2 710.63 466.56C708.364 467.893 705.23 468.56 701.23 468.56C697.95 468.56 694.67 468.08 691.39 467.12C688.137 466.133 685.137 464.787 682.39 463.08V468H677.59V457.92L680.79 457.28C683.43 459.547 686.55 461.307 690.15 462.56C693.75 463.813 697.444 464.44 701.23 464.44C703.55 464.44 705.35 464.147 706.63 463.56C707.937 462.947 708.59 462.08 708.59 460.96C708.59 460.16 708.164 459.533 707.31 459.08C706.457 458.6 705.03 458.187 703.03 457.84C701.03 457.493 697.924 457.067 693.71 456.56C689.79 456.107 686.67 455.533 684.35 454.84C682.03 454.12 680.337 453.213 679.27 452.12C678.23 451 677.71 449.6 677.71 447.92C677.71 445.44 678.884 443.507 681.23 442.12C683.577 440.733 686.897 440.04 691.19 440.04C694.23 440.04 697.124 440.48 699.87 441.36C702.644 442.213 705.177 443.427 707.47 445V440.56H712.19V450.44L709.15 451.04C707.044 448.853 704.457 447.173 701.39 446C698.324 444.827 694.91 444.24 691.15 444.24C688.75 444.24 686.83 444.573 685.39 445.24C683.95 445.907 683.23 446.8 683.23 447.92C683.23 448.693 683.63 449.32 684.43 449.8C685.23 450.253 686.577 450.653 688.47 451C690.364 451.347 693.27 451.747 697.19 452.2ZM730.985 467.36C730.985 469.653 728.825 472.493 724.505 475.88L723.225 474.56C723.385 474.4 723.958 473.867 724.945 472.96C725.958 472.053 726.732 471.2 727.265 470.4C727.825 469.627 728.145 468.92 728.225 468.28C727.745 468.44 726.998 468.52 725.985 468.52C724.972 468.52 724.145 468.28 723.505 467.8C722.892 467.32 722.585 466.707 722.585 465.96C722.585 465.133 722.958 464.48 723.705 464C724.478 463.493 725.492 463.24 726.745 463.24C728.078 463.24 729.118 463.6 729.865 464.32C730.612 465.04 730.985 466.053 730.985 467.36ZM793.353 440.56C795.593 440.56 797.579 440.907 799.313 441.6C801.073 442.293 802.446 443.307 803.433 444.64C804.419 445.973 804.913 447.56 804.913 449.4C804.913 451.187 804.419 452.76 803.433 454.12C802.446 455.453 801.073 456.48 799.313 457.2C797.553 457.92 795.566 458.28 793.353 458.28H774.033V463.8H783.033V468H760.233V463.8H768.713V444.76H760.233V440.56H793.353ZM793.233 454.2C795.099 454.2 796.606 453.773 797.753 452.92C798.899 452.067 799.473 450.92 799.473 449.48C799.473 447.987 798.899 446.827 797.753 446C796.633 445.173 795.126 444.76 793.233 444.76H774.033V454.2H793.233ZM864.13 457.28V458.64C864.13 460.48 863.703 462.16 862.85 463.68C861.996 465.173 860.823 466.36 859.33 467.24C857.863 468.12 856.236 468.56 854.45 468.56C852.69 468.56 851.09 468.227 849.65 467.56C848.21 466.867 846.956 466.027 845.89 465.04C844.823 464.027 843.703 462.813 842.53 461.4C841.383 460.04 840.463 459.04 839.77 458.4C839.076 457.76 838.196 457.253 837.13 456.88C836.063 456.48 834.676 456.28 832.97 456.28H826.13V463.8H834.37V468H812.33V463.76H820.81V444.76H812.33V440.56H845.97C849.463 440.56 852.183 441.253 854.13 442.64C856.103 444.027 857.09 445.947 857.09 448.4C857.09 450.827 856.13 452.747 854.21 454.16C852.316 455.573 849.716 456.28 846.41 456.28H842.49C843.236 456.6 843.983 457.053 844.73 457.64C845.476 458.227 846.316 459.013 847.25 460C848.69 461.493 849.903 462.56 850.89 463.2C851.903 463.813 853.09 464.12 854.45 464.12C855.356 464.12 856.196 463.893 856.97 463.44C857.743 462.987 858.356 462.347 858.81 461.52C859.29 460.693 859.53 459.76 859.53 458.72V457.28H864.13ZM826.13 444.76V452.32H846.13C847.943 452.32 849.33 451.973 850.29 451.28C851.276 450.56 851.77 449.6 851.77 448.4C851.77 447.28 851.276 446.4 850.29 445.76C849.33 445.093 847.943 444.76 846.13 444.76H826.13ZM891.81 468.52C887.703 468.52 884.01 467.92 880.73 466.72C877.476 465.52 874.916 463.84 873.05 461.68C871.21 459.493 870.29 457.027 870.29 454.28C870.29 451.533 871.21 449.08 873.05 446.92C874.916 444.733 877.476 443.04 880.73 441.84C884.01 440.613 887.703 440 891.81 440C895.89 440 899.556 440.613 902.81 441.84C906.09 443.04 908.65 444.733 910.49 446.92C912.33 449.08 913.25 451.533 913.25 454.28C913.25 457.027 912.33 459.493 910.49 461.68C908.65 463.84 906.103 465.52 902.85 466.72C899.596 467.92 895.916 468.52 891.81 468.52ZM891.77 464.2C894.943 464.2 897.73 463.773 900.13 462.92C902.556 462.067 904.423 460.893 905.73 459.4C907.036 457.907 907.69 456.2 907.69 454.28C907.69 452.307 907.036 450.573 905.73 449.08C904.423 447.587 902.556 446.427 900.13 445.6C897.73 444.747 894.943 444.32 891.77 444.32C888.57 444.32 885.77 444.747 883.37 445.6C880.97 446.453 879.116 447.64 877.81 449.16C876.503 450.653 875.85 452.36 875.85 454.28C875.85 456.227 876.49 457.96 877.77 459.48C879.076 460.973 880.93 462.133 883.33 462.96C885.756 463.787 888.57 464.2 891.77 464.2ZM967.026 444.76H959.826L943.746 468.52H940.946L924.786 444.76H917.586V440.56H936.586V444.76H931.346L943.026 462.32L954.586 444.76H948.786V440.56H967.026V444.76ZM985.741 444.76V463.8H994.181V468H971.941V463.8H980.421V444.76H971.941V440.56H994.181V444.76H985.741ZM1029.48 440.56C1032.95 440.56 1036.1 441.013 1038.92 441.92C1041.78 442.827 1044.07 444.307 1045.8 446.36C1047.56 448.387 1048.44 451.027 1048.44 454.28C1048.44 457.533 1047.56 460.187 1045.8 462.24C1044.07 464.267 1041.78 465.733 1038.92 466.64C1036.1 467.547 1032.95 468 1029.48 468H1002.16V463.8H1010.64V444.76H1002.16V440.56H1029.48ZM1028.72 463.8C1031.42 463.8 1033.78 463.573 1035.8 463.12C1037.86 462.667 1039.55 461.747 1040.88 460.36C1042.22 458.947 1042.88 456.92 1042.88 454.28C1042.88 450.52 1041.58 448 1038.96 446.72C1036.35 445.413 1032.94 444.76 1028.72 444.76H1015.96V463.8H1028.72ZM1070.21 444.76V463.8H1078.65V468H1056.41V463.8H1064.89V444.76H1056.41V440.56H1078.65V444.76H1070.21ZM1141.91 444.76H1133.43V468.24L1130.71 468.28L1100.23 447.08V463.8H1109.27V468H1086.63V463.8H1095.11V444.76H1086.63V440.56H1100.23L1128.55 460.44V444.76H1120.11V440.56H1141.91V444.76ZM1167.65 444.16C1164.77 444.16 1162.17 444.56 1159.85 445.36C1157.53 446.16 1155.69 447.333 1154.33 448.88C1153 450.4 1152.33 452.213 1152.33 454.32C1152.33 456.427 1152.98 458.24 1154.29 459.76C1155.62 461.253 1157.45 462.4 1159.77 463.2C1162.12 463.973 1164.78 464.36 1167.77 464.36C1170.57 464.36 1173.25 464 1175.81 463.28C1178.4 462.533 1180.56 461.587 1182.29 460.44V457.4H1167.77V453.44H1187.37V462.64C1184.84 464.427 1181.86 465.853 1178.45 466.92C1175.06 467.987 1171.44 468.52 1167.57 468.52C1163.62 468.52 1160.08 467.96 1156.93 466.84C1153.78 465.693 1151.3 464.053 1149.49 461.92C1147.68 459.76 1146.77 457.227 1146.77 454.32C1146.77 451.44 1147.64 448.92 1149.37 446.76C1151.1 444.6 1153.45 442.933 1156.41 441.76C1159.4 440.587 1162.7 440 1166.33 440C1173.02 440 1178.48 441.84 1182.69 445.52V440.56H1187.37V449.88L1184.01 450.48C1181.88 448.427 1179.42 446.867 1176.65 445.8C1173.88 444.707 1170.88 444.16 1167.65 444.16ZM1268.33 463.8V468H1248.97V463.8H1254.85L1251.13 458.52H1231.61L1227.85 463.8H1233.73V468H1214.33V463.8H1222.05L1236.41 444.72H1230.29V440.56H1252.37V444.72H1246.29L1260.69 463.8H1268.33ZM1248.53 454.8L1241.45 444.72H1241.33L1234.21 454.8H1248.53ZM145.56 549.36C143.187 551.44 140.293 553.16 136.88 554.52C133.467 555.853 129.48 556.52 124.92 556.52C121.133 556.52 117.707 555.96 114.64 554.84C111.6 553.72 109.187 552.093 107.4 549.96C105.64 547.827 104.76 545.293 104.76 542.36C104.76 539.4 105.64 536.84 107.4 534.68C109.16 532.493 111.533 530.84 114.52 529.72C117.533 528.573 120.853 528 124.48 528C127.653 528 130.6 528.493 133.32 529.48C136.04 530.44 138.453 531.827 140.56 533.64V528.56H145.24L145.28 538.48L141.84 539.16C137.6 534.52 131.813 532.2 124.48 532.2C121.68 532.2 119.2 532.64 117.04 533.52C114.907 534.373 113.253 535.56 112.08 537.08C110.907 538.6 110.32 540.333 110.32 542.28C110.32 544.28 110.973 546.027 112.28 547.52C113.587 549.013 115.347 550.173 117.56 551C119.773 551.8 122.227 552.2 124.92 552.2C132.2 552.2 138.267 550.027 143.12 545.68L145.56 549.36ZM193.081 539.32V532.76H167.721V540.4H179.681V536.56H183.921V548.2H179.681V544.36H167.721V551.8H193.081V545.24H197.801V556H154.041V551.8H162.481V532.76H154.041V528.56H197.801V539.32H193.081ZM263.214 532.76H254.734V556.24L252.014 556.28L221.534 535.08V551.8H230.574V556H207.934V551.8H216.414V532.76H207.934V528.56H221.534L249.854 548.44V532.76H241.414V528.56H263.214V532.76ZM311.379 528.56V539.32H306.659V532.72H292.459V551.8H301.179V556H278.459V551.8H287.139V532.72H272.939V539.32H268.259V528.56H311.379ZM370.608 545.28V546.64C370.608 548.48 370.181 550.16 369.328 551.68C368.474 553.173 367.301 554.36 365.808 555.24C364.341 556.12 362.714 556.56 360.928 556.56C359.168 556.56 357.568 556.227 356.128 555.56C354.688 554.867 353.434 554.027 352.368 553.04C351.301 552.027 350.181 550.813 349.008 549.4C347.861 548.04 346.941 547.04 346.248 546.4C345.554 545.76 344.674 545.253 343.608 544.88C342.541 544.48 341.154 544.28 339.448 544.28H332.608V551.8H340.848V556H318.808V551.76H327.288V532.76H318.808V528.56H352.448C355.941 528.56 358.661 529.253 360.608 530.64C362.581 532.027 363.568 533.947 363.568 536.4C363.568 538.827 362.608 540.747 360.688 542.16C358.794 543.573 356.194 544.28 352.888 544.28H348.968C349.714 544.6 350.461 545.053 351.208 545.64C351.954 546.227 352.794 547.013 353.728 548C355.168 549.493 356.381 550.56 357.368 551.2C358.381 551.813 359.568 552.12 360.928 552.12C361.834 552.12 362.674 551.893 363.448 551.44C364.221 550.987 364.834 550.347 365.288 549.52C365.768 548.693 366.008 547.76 366.008 546.72V545.28H370.608ZM332.608 532.76V540.32H352.608C354.421 540.32 355.808 539.973 356.768 539.28C357.754 538.56 358.248 537.6 358.248 536.4C358.248 535.28 357.754 534.4 356.768 533.76C355.808 533.093 354.421 532.76 352.608 532.76H332.608ZM426.67 551.8V556H407.31V551.8H413.19L409.47 546.52H389.95L386.19 551.8H392.07V556H372.67V551.8H380.39L394.75 532.72H388.63V528.56H410.71V532.72H404.63L419.03 551.8H426.67ZM406.87 542.8L399.79 532.72H399.67L392.55 542.8H406.87ZM469.472 544.48V556H430.072V551.8H438.552V532.76H430.072V528.56H452.272V532.76H443.792V551.8H464.752V544.48H469.472ZM491.203 532.76V551.8H499.643V556H477.403V551.8H485.883V532.76H477.403V528.56H499.643V532.76H491.203ZM509.634 552.36L535.114 533.88C535.568 533.56 536.048 533.293 536.554 533.08C537.061 532.867 537.461 532.733 537.754 532.68L537.714 532.44C537.634 532.44 537.314 532.493 536.754 532.6C536.194 532.707 535.568 532.76 534.874 532.76H514.154V540.8H509.434V528.56H545.834V532.2L520.274 550.76C519.554 551.24 518.714 551.613 517.754 551.88L517.794 552.12C517.954 552.093 518.314 552.04 518.874 551.96C519.434 551.853 519.981 551.8 520.514 551.8H541.354V543.72H546.074V556H509.634V552.36ZM594.621 539.32V532.76H569.261V540.4H581.221V536.56H585.461V548.2H581.221V544.36H569.261V551.8H594.621V545.24H599.341V556H555.581V551.8H564.021V532.76H555.581V528.56H599.341V539.32H594.621ZM636.795 528.56C640.262 528.56 643.408 529.013 646.235 529.92C649.088 530.827 651.382 532.307 653.115 534.36C654.875 536.387 655.755 539.027 655.755 542.28C655.755 545.533 654.875 548.187 653.115 550.24C651.382 552.267 649.088 553.733 646.235 554.64C643.408 555.547 640.262 556 636.795 556H609.475V551.8H617.955V532.76H609.475V528.56H636.795ZM636.035 551.8C638.728 551.8 641.088 551.573 643.115 551.12C645.168 550.667 646.862 549.747 648.195 548.36C649.528 546.947 650.195 544.92 650.195 542.28C650.195 538.52 648.888 536 646.275 534.72C643.662 533.413 640.248 532.76 636.035 532.76H623.275V551.8H636.035ZM717.765 528.56C720.005 528.56 721.992 528.907 723.725 529.6C725.485 530.293 726.859 531.307 727.845 532.64C728.832 533.973 729.325 535.56 729.325 537.4C729.325 539.187 728.832 540.76 727.845 542.12C726.859 543.453 725.485 544.48 723.725 545.2C721.965 545.92 719.979 546.28 717.765 546.28H698.445V551.8H707.445V556H684.645V551.8H693.125V532.76H684.645V528.56H717.765ZM717.645 542.2C719.512 542.2 721.019 541.773 722.165 540.92C723.312 540.067 723.885 538.92 723.885 537.48C723.885 535.987 723.312 534.827 722.165 534C721.045 533.173 719.539 532.76 717.645 532.76H698.445V542.2H717.645ZM788.542 545.28V546.64C788.542 548.48 788.116 550.16 787.262 551.68C786.409 553.173 785.236 554.36 783.742 555.24C782.276 556.12 780.649 556.56 778.862 556.56C777.102 556.56 775.502 556.227 774.062 555.56C772.622 554.867 771.369 554.027 770.302 553.04C769.236 552.027 768.116 550.813 766.942 549.4C765.796 548.04 764.876 547.04 764.182 546.4C763.489 545.76 762.609 545.253 761.542 544.88C760.476 544.48 759.089 544.28 757.382 544.28H750.542V551.8H758.782V556H736.742V551.76H745.222V532.76H736.742V528.56H770.382C773.876 528.56 776.596 529.253 778.542 530.64C780.516 532.027 781.502 533.947 781.502 536.4C781.502 538.827 780.542 540.747 778.622 542.16C776.729 543.573 774.129 544.28 770.822 544.28H766.902C767.649 544.6 768.396 545.053 769.142 545.64C769.889 546.227 770.729 547.013 771.662 548C773.102 549.493 774.316 550.56 775.302 551.2C776.316 551.813 777.502 552.12 778.862 552.12C779.769 552.12 780.609 551.893 781.382 551.44C782.156 550.987 782.769 550.347 783.222 549.52C783.702 548.693 783.942 547.76 783.942 546.72V545.28H788.542ZM750.542 532.76V540.32H770.542C772.356 540.32 773.742 539.973 774.702 539.28C775.689 538.56 776.182 537.6 776.182 536.4C776.182 535.28 775.689 534.4 774.702 533.76C773.742 533.093 772.356 532.76 770.542 532.76H750.542ZM816.222 556.52C812.116 556.52 808.422 555.92 805.142 554.72C801.889 553.52 799.329 551.84 797.462 549.68C795.622 547.493 794.702 545.027 794.702 542.28C794.702 539.533 795.622 537.08 797.462 534.92C799.329 532.733 801.889 531.04 805.142 529.84C808.422 528.613 812.116 528 816.222 528C820.302 528 823.969 528.613 827.222 529.84C830.502 531.04 833.062 532.733 834.902 534.92C836.742 537.08 837.662 539.533 837.662 542.28C837.662 545.027 836.742 547.493 834.902 549.68C833.062 551.84 830.516 553.52 827.262 554.72C824.009 555.92 820.329 556.52 816.222 556.52ZM816.182 552.2C819.356 552.2 822.142 551.773 824.542 550.92C826.969 550.067 828.836 548.893 830.142 547.4C831.449 545.907 832.102 544.2 832.102 542.28C832.102 540.307 831.449 538.573 830.142 537.08C828.836 535.587 826.969 534.427 824.542 533.6C822.142 532.747 819.356 532.32 816.182 532.32C812.982 532.32 810.182 532.747 807.782 533.6C805.382 534.453 803.529 535.64 802.222 537.16C800.916 538.653 800.262 540.36 800.262 542.28C800.262 544.227 800.902 545.96 802.182 547.48C803.489 548.973 805.342 550.133 807.742 550.96C810.169 551.787 812.982 552.2 816.182 552.2ZM888.544 528.56V539.32H883.824V532.76H859.304V540.72H870.944V536.88H875.184V548.56H870.944V544.68H859.304V551.8H868.304V556H845.584V551.8H854.064V532.76H845.584V528.56H888.544ZM910.348 532.76V551.8H918.788V556H896.548V551.8H905.028V532.76H896.548V528.56H918.788V532.76H910.348ZM966.17 544.48V556H926.77V551.8H935.25V532.76H926.77V528.56H948.97V532.76H940.49V551.8H961.45V544.48H966.17ZM1013.14 539.32V532.76H987.782V540.4H999.742V536.56H1003.98V548.2H999.742V544.36H987.782V551.8H1013.14V545.24H1017.86V556H974.102V551.8H982.542V532.76H974.102V528.56H1017.86V539.32H1013.14ZM1091.25 528.56V539.32H1086.52V532.72H1072.33V551.8H1081.05V556H1058.33V551.8H1067.01V532.72H1052.81V539.32H1048.13V528.56H1091.25ZM1144.43 532.76V551.8H1152.87V556H1130.67V551.8H1139.11V543.96H1112.51V551.8H1120.91V556H1098.67V551.8H1107.19V532.76H1098.67V528.56H1120.91V532.76H1112.51V540H1139.11V532.76H1130.67V528.56H1152.87V532.76H1144.43ZM1210.6 551.8V556H1191.24V551.8H1197.12L1193.4 546.52H1173.88L1170.12 551.8H1176V556H1156.6V551.8H1164.32L1178.68 532.72H1172.56V528.56H1194.64V532.72H1188.56L1202.96 551.8H1210.6ZM1190.8 542.8L1183.72 532.72H1183.6L1176.48 542.8H1190.8ZM1255.35 528.56V539.32H1250.63V532.72H1236.43V551.8H1245.15V556H1222.43V551.8H1231.11V532.72H1216.91V539.32H1212.23V528.56H1255.35ZM1334.51 551.8V556H1315.15V551.8H1321.03L1317.31 546.52H1297.79L1294.03 551.8H1299.91V556H1280.51V551.8H1288.23L1302.59 532.72H1296.47V528.56H1318.55V532.72H1312.47L1326.87 551.8H1334.51ZM1314.71 542.8L1307.63 532.72H1307.51L1300.39 542.8H1314.71ZM1377.31 544.48V556H1337.91V551.8H1346.39V532.76H1337.91V528.56H1360.11V532.76H1351.63V551.8H1372.59V544.48H1377.31ZM1424.64 544.48V556H1385.24V551.8H1393.72V532.76H1385.24V528.56H1407.44V532.76H1398.96V551.8H1419.92V544.48H1424.64ZM1453.78 556.52C1449.67 556.52 1445.98 555.92 1442.7 554.72C1439.45 553.52 1436.89 551.84 1435.02 549.68C1433.18 547.493 1432.26 545.027 1432.26 542.28C1432.26 539.533 1433.18 537.08 1435.02 534.92C1436.89 532.733 1439.45 531.04 1442.7 529.84C1445.98 528.613 1449.67 528 1453.78 528C1457.86 528 1461.53 528.613 1464.78 529.84C1468.06 531.04 1470.62 532.733 1472.46 534.92C1474.3 537.08 1475.22 539.533 1475.22 542.28C1475.22 545.027 1474.3 547.493 1472.46 549.68C1470.62 551.84 1468.07 553.52 1464.82 554.72C1461.57 555.92 1457.89 556.52 1453.78 556.52ZM1453.74 552.2C1456.91 552.2 1459.7 551.773 1462.1 550.92C1464.53 550.067 1466.39 548.893 1467.7 547.4C1469.01 545.907 1469.66 544.2 1469.66 542.28C1469.66 540.307 1469.01 538.573 1467.7 537.08C1466.39 535.587 1464.53 534.427 1462.1 533.6C1459.7 532.747 1456.91 532.32 1453.74 532.32C1450.54 532.32 1447.74 532.747 1445.34 533.6C1442.94 534.453 1441.09 535.64 1439.78 537.16C1438.47 538.653 1437.82 540.36 1437.82 542.28C1437.82 544.227 1438.46 545.96 1439.74 547.48C1441.05 548.973 1442.9 550.133 1445.3 550.96C1447.73 551.787 1450.54 552.2 1453.74 552.2ZM1546.76 532.76H1539.6L1527.2 556.52H1524.48L1513.16 535.96L1501.84 556.52H1499.16L1486.72 532.76H1479.56V528.56H1498.16V532.76H1492.56L1501 549.64L1512.28 529.12H1515.08L1526.08 549.6L1534.52 532.76H1528.88V528.56H1546.76V532.76ZM1572.63 540.2C1576.79 540.68 1580.08 541.28 1582.51 542C1584.94 542.72 1586.71 543.64 1587.83 544.76C1588.95 545.853 1589.51 547.253 1589.51 548.96C1589.51 551.333 1588.36 553.2 1586.07 554.56C1583.8 555.893 1580.67 556.56 1576.67 556.56C1573.39 556.56 1570.11 556.08 1566.83 555.12C1563.58 554.133 1560.58 552.787 1557.83 551.08V556H1553.03V545.92L1556.23 545.28C1558.87 547.547 1561.99 549.307 1565.59 550.56C1569.19 551.813 1572.88 552.44 1576.67 552.44C1578.99 552.44 1580.79 552.147 1582.07 551.56C1583.38 550.947 1584.03 550.08 1584.03 548.96C1584.03 548.16 1583.6 547.533 1582.75 547.08C1581.9 546.6 1580.47 546.187 1578.47 545.84C1576.47 545.493 1573.36 545.067 1569.15 544.56C1565.23 544.107 1562.11 543.533 1559.79 542.84C1557.47 542.12 1555.78 541.213 1554.71 540.12C1553.67 539 1553.15 537.6 1553.15 535.92C1553.15 533.44 1554.32 531.507 1556.67 530.12C1559.02 528.733 1562.34 528.04 1566.63 528.04C1569.67 528.04 1572.56 528.48 1575.31 529.36C1578.08 530.213 1580.62 531.427 1582.91 533V528.56H1587.63V538.44L1584.59 539.04C1582.48 536.853 1579.9 535.173 1576.83 534C1573.76 532.827 1570.35 532.24 1566.59 532.24C1564.19 532.24 1562.27 532.573 1560.83 533.24C1559.39 533.907 1558.67 534.8 1558.67 535.92C1558.67 536.693 1559.07 537.32 1559.87 537.8C1560.67 538.253 1562.02 538.653 1563.91 539C1565.8 539.347 1568.71 539.747 1572.63 540.2ZM145.56 637.36C143.187 639.44 140.293 641.16 136.88 642.52C133.467 643.853 129.48 644.52 124.92 644.52C121.133 644.52 117.707 643.96 114.64 642.84C111.6 641.72 109.187 640.093 107.4 637.96C105.64 635.827 104.76 633.293 104.76 630.36C104.76 627.4 105.64 624.84 107.4 622.68C109.16 620.493 111.533 618.84 114.52 617.72C117.533 616.573 120.853 616 124.48 616C127.653 616 130.6 616.493 133.32 617.48C136.04 618.44 138.453 619.827 140.56 621.64V616.56H145.24L145.28 626.48L141.84 627.16C137.6 622.52 131.813 620.2 124.48 620.2C121.68 620.2 119.2 620.64 117.04 621.52C114.907 622.373 113.253 623.56 112.08 625.08C110.907 626.6 110.32 628.333 110.32 630.28C110.32 632.28 110.973 634.027 112.28 635.52C113.587 637.013 115.347 638.173 117.56 639C119.773 639.8 122.227 640.2 124.92 640.2C132.2 640.2 138.267 638.027 143.12 633.68L145.56 637.36ZM204.013 620.76H195.613V630.08C195.613 633.227 194.839 635.88 193.293 638.04C191.746 640.2 189.626 641.827 186.933 642.92C184.239 643.987 181.146 644.52 177.653 644.52C174.106 644.52 170.973 643.987 168.253 642.92C165.559 641.827 163.453 640.2 161.933 638.04C160.439 635.88 159.693 633.227 159.693 630.08V620.76H151.253V616.56H172.733V620.76H164.893L164.973 630.28C164.999 633.667 166.146 636.173 168.413 637.8C170.679 639.4 173.759 640.2 177.653 640.2C181.519 640.2 184.586 639.387 186.853 637.76C189.146 636.107 190.306 633.587 190.333 630.2L190.413 620.76H182.653V616.56H204.013V620.76ZM230.284 628.2C234.444 628.68 237.737 629.28 240.164 630C242.591 630.72 244.364 631.64 245.484 632.76C246.604 633.853 247.164 635.253 247.164 636.96C247.164 639.333 246.017 641.2 243.724 642.56C241.457 643.893 238.324 644.56 234.324 644.56C231.044 644.56 227.764 644.08 224.484 643.12C221.231 642.133 218.231 640.787 215.484 639.08V644H210.684V633.92L213.884 633.28C216.524 635.547 219.644 637.307 223.244 638.56C226.844 639.813 230.537 640.44 234.324 640.44C236.644 640.44 238.444 640.147 239.724 639.56C241.031 638.947 241.684 638.08 241.684 636.96C241.684 636.16 241.257 635.533 240.404 635.08C239.551 634.6 238.124 634.187 236.124 633.84C234.124 633.493 231.017 633.067 226.804 632.56C222.884 632.107 219.764 631.533 217.444 630.84C215.124 630.12 213.431 629.213 212.364 628.12C211.324 627 210.804 625.6 210.804 623.92C210.804 621.44 211.977 619.507 214.324 618.12C216.671 616.733 219.991 616.04 224.284 616.04C227.324 616.04 230.217 616.48 232.964 617.36C235.737 618.213 238.271 619.427 240.564 621V616.56H245.284V626.44L242.244 627.04C240.137 624.853 237.551 623.173 234.484 622C231.417 620.827 228.004 620.24 224.244 620.24C221.844 620.24 219.924 620.573 218.484 621.24C217.044 621.907 216.324 622.8 216.324 623.92C216.324 624.693 216.724 625.32 217.524 625.8C218.324 626.253 219.671 626.653 221.564 627C223.457 627.347 226.364 627.747 230.284 628.2ZM297.668 616.56V627.32H292.948V620.72H278.748V639.8H287.468V644H264.748V639.8H273.428V620.72H259.228V627.32H254.548V616.56H297.668ZM326.699 644.52C322.592 644.52 318.899 643.92 315.619 642.72C312.365 641.52 309.805 639.84 307.939 637.68C306.099 635.493 305.179 633.027 305.179 630.28C305.179 627.533 306.099 625.08 307.939 622.92C309.805 620.733 312.365 619.04 315.619 617.84C318.899 616.613 322.592 616 326.699 616C330.779 616 334.445 616.613 337.699 617.84C340.979 619.04 343.539 620.733 345.379 622.92C347.219 625.08 348.139 627.533 348.139 630.28C348.139 633.027 347.219 635.493 345.379 637.68C343.539 639.84 340.992 641.52 337.739 642.72C334.485 643.92 330.805 644.52 326.699 644.52ZM326.659 640.2C329.832 640.2 332.619 639.773 335.019 638.92C337.445 638.067 339.312 636.893 340.619 635.4C341.925 633.907 342.579 632.2 342.579 630.28C342.579 628.307 341.925 626.573 340.619 625.08C339.312 623.587 337.445 622.427 335.019 621.6C332.619 620.747 329.832 620.32 326.659 620.32C323.459 620.32 320.659 620.747 318.259 621.6C315.859 622.453 314.005 623.64 312.699 625.16C311.392 626.653 310.739 628.36 310.739 630.28C310.739 632.227 311.379 633.96 312.659 635.48C313.965 636.973 315.819 638.133 318.219 638.96C320.645 639.787 323.459 640.2 326.659 640.2ZM416.821 639.8V644H396.221V639.8H403.061V629.6C403.061 627.653 403.341 625.147 403.901 622.08L387.741 644.16H384.941L368.941 622.2C369.394 625.48 369.621 627.947 369.621 629.6V639.8H376.501V644H356.061V639.8H364.621V620.76H356.061V616.56H370.781L386.541 638.28L402.061 616.56H416.781V620.76H408.341V639.8H416.821ZM463.838 627.32V620.76H438.478V628.4H450.438V624.56H454.678V636.2H450.438V632.36H438.478V639.8H463.838V633.24H468.558V644H424.798V639.8H433.238V620.76H424.798V616.56H468.558V627.32H463.838ZM530.492 633.28V634.64C530.492 636.48 530.066 638.16 529.212 639.68C528.359 641.173 527.186 642.36 525.692 643.24C524.226 644.12 522.599 644.56 520.812 644.56C519.052 644.56 517.452 644.227 516.012 643.56C514.572 642.867 513.319 642.027 512.252 641.04C511.186 640.027 510.066 638.813 508.892 637.4C507.746 636.04 506.826 635.04 506.132 634.4C505.439 633.76 504.559 633.253 503.492 632.88C502.426 632.48 501.039 632.28 499.332 632.28H492.492V639.8H500.732V644H478.692V639.76H487.172V620.76H478.692V616.56H512.332C515.826 616.56 518.546 617.253 520.492 618.64C522.466 620.027 523.452 621.947 523.452 624.4C523.452 626.827 522.492 628.747 520.572 630.16C518.679 631.573 516.079 632.28 512.772 632.28H508.852C509.599 632.6 510.346 633.053 511.092 633.64C511.839 634.227 512.679 635.013 513.612 636C515.052 637.493 516.266 638.56 517.252 639.2C518.266 639.813 519.452 640.12 520.812 640.12C521.719 640.12 522.559 639.893 523.332 639.44C524.106 638.987 524.719 638.347 525.172 637.52C525.652 636.693 525.892 635.76 525.892 634.72V633.28H530.492ZM492.492 620.76V628.32H512.492C514.306 628.32 515.692 627.973 516.652 627.28C517.639 626.56 518.132 625.6 518.132 624.4C518.132 623.28 517.639 622.4 516.652 621.76C515.692 621.093 514.306 620.76 512.492 620.76H492.492ZM556.186 628.2C560.346 628.68 563.639 629.28 566.066 630C568.492 630.72 570.266 631.64 571.386 632.76C572.506 633.853 573.066 635.253 573.066 636.96C573.066 639.333 571.919 641.2 569.626 642.56C567.359 643.893 564.226 644.56 560.226 644.56C556.946 644.56 553.666 644.08 550.386 643.12C547.132 642.133 544.132 640.787 541.386 639.08V644H536.586V633.92L539.786 633.28C542.426 635.547 545.546 637.307 549.146 638.56C552.746 639.813 556.439 640.44 560.226 640.44C562.546 640.44 564.346 640.147 565.626 639.56C566.932 638.947 567.586 638.08 567.586 636.96C567.586 636.16 567.159 635.533 566.306 635.08C565.452 634.6 564.026 634.187 562.026 633.84C560.026 633.493 556.919 633.067 552.706 632.56C548.786 632.107 545.666 631.533 543.346 630.84C541.026 630.12 539.332 629.213 538.266 628.12C537.226 627 536.706 625.6 536.706 623.92C536.706 621.44 537.879 619.507 540.226 618.12C542.572 616.733 545.892 616.04 550.186 616.04C553.226 616.04 556.119 616.48 558.866 617.36C561.639 618.213 564.172 619.427 566.466 621V616.56H571.186V626.44L568.146 627.04C566.039 624.853 563.452 623.173 560.386 622C557.319 620.827 553.906 620.24 550.146 620.24C547.746 620.24 545.826 620.573 544.386 621.24C542.946 621.907 542.226 622.8 542.226 623.92C542.226 624.693 542.626 625.32 543.426 625.8C544.226 626.253 545.572 626.653 547.466 627C549.359 627.347 552.266 627.747 556.186 628.2ZM644.808 616.56V627.32H640.087V620.72H625.888V639.8H634.608V644H611.888V639.8H620.568V620.72H606.368V627.32H601.688V616.56H644.808ZM673.838 644.52C669.731 644.52 666.038 643.92 662.758 642.72C659.504 641.52 656.944 639.84 655.078 637.68C653.238 635.493 652.318 633.027 652.318 630.28C652.318 627.533 653.238 625.08 655.078 622.92C656.944 620.733 659.504 619.04 662.758 617.84C666.038 616.613 669.731 616 673.838 616C677.918 616 681.584 616.613 684.838 617.84C688.118 619.04 690.678 620.733 692.518 622.92C694.358 625.08 695.278 627.533 695.278 630.28C695.278 633.027 694.358 635.493 692.518 637.68C690.678 639.84 688.131 641.52 684.878 642.72C681.624 643.92 677.944 644.52 673.838 644.52ZM673.798 640.2C676.971 640.2 679.758 639.773 682.158 638.92C684.584 638.067 686.451 636.893 687.758 635.4C689.064 633.907 689.718 632.2 689.718 630.28C689.718 628.307 689.064 626.573 687.758 625.08C686.451 623.587 684.584 622.427 682.158 621.6C679.758 620.747 676.971 620.32 673.798 620.32C670.598 620.32 667.798 620.747 665.398 621.6C662.998 622.453 661.144 623.64 659.838 625.16C658.531 626.653 657.878 628.36 657.878 630.28C657.878 632.227 658.518 633.96 659.798 635.48C661.104 636.973 662.958 638.133 665.358 638.96C667.784 639.787 670.598 640.2 673.798 640.2ZM751.445 616.56C754.912 616.56 758.058 617.013 760.885 617.92C763.738 618.827 766.032 620.307 767.765 622.36C769.525 624.387 770.405 627.027 770.405 630.28C770.405 633.533 769.525 636.187 767.765 638.24C766.032 640.267 763.738 641.733 760.885 642.64C758.058 643.547 754.912 644 751.445 644H724.125V639.8H732.605V620.76H724.125V616.56H751.445ZM750.685 639.8C753.378 639.8 755.738 639.573 757.765 639.12C759.818 638.667 761.512 637.747 762.845 636.36C764.178 634.947 764.845 632.92 764.845 630.28C764.845 626.52 763.538 624 760.925 622.72C758.312 621.413 754.898 620.76 750.685 620.76H737.925V639.8H750.685ZM792.17 620.76V639.8H800.61V644H778.37V639.8H786.85V620.76H778.37V616.56H800.61V620.76H792.17ZM830.317 628.2C834.477 628.68 837.77 629.28 840.197 630C842.624 630.72 844.397 631.64 845.517 632.76C846.637 633.853 847.197 635.253 847.197 636.96C847.197 639.333 846.05 641.2 843.757 642.56C841.49 643.893 838.357 644.56 834.357 644.56C831.077 644.56 827.797 644.08 824.517 643.12C821.264 642.133 818.264 640.787 815.517 639.08V644H810.717V633.92L813.917 633.28C816.557 635.547 819.677 637.307 823.277 638.56C826.877 639.813 830.57 640.44 834.357 640.44C836.677 640.44 838.477 640.147 839.757 639.56C841.064 638.947 841.717 638.08 841.717 636.96C841.717 636.16 841.29 635.533 840.437 635.08C839.584 634.6 838.157 634.187 836.157 633.84C834.157 633.493 831.05 633.067 826.837 632.56C822.917 632.107 819.797 631.533 817.477 630.84C815.157 630.12 813.464 629.213 812.397 628.12C811.357 627 810.837 625.6 810.837 623.92C810.837 621.44 812.01 619.507 814.357 618.12C816.704 616.733 820.024 616.04 824.317 616.04C827.357 616.04 830.25 616.48 832.997 617.36C835.77 618.213 838.304 619.427 840.597 621V616.56H845.317V626.44L842.277 627.04C840.17 624.853 837.584 623.173 834.517 622C831.45 620.827 828.037 620.24 824.277 620.24C821.877 620.24 819.957 620.573 818.517 621.24C817.077 621.907 816.357 622.8 816.357 623.92C816.357 624.693 816.757 625.32 817.557 625.8C818.357 626.253 819.704 626.653 821.597 627C823.49 627.347 826.397 627.747 830.317 628.2ZM896.454 637.36C894.08 639.44 891.187 641.16 887.774 642.52C884.36 643.853 880.374 644.52 875.814 644.52C872.027 644.52 868.6 643.96 865.534 642.84C862.494 641.72 860.08 640.093 858.294 637.96C856.534 635.827 855.654 633.293 855.654 630.36C855.654 627.4 856.534 624.84 858.294 622.68C860.054 620.493 862.427 618.84 865.414 617.72C868.427 616.573 871.747 616 875.374 616C878.547 616 881.494 616.493 884.214 617.48C886.934 618.44 889.347 619.827 891.454 621.64V616.56H896.134L896.174 626.48L892.734 627.16C888.494 622.52 882.707 620.2 875.374 620.2C872.574 620.2 870.094 620.64 867.934 621.52C865.8 622.373 864.147 623.56 862.974 625.08C861.8 626.6 861.214 628.333 861.214 630.28C861.214 632.28 861.867 634.027 863.174 635.52C864.48 637.013 866.24 638.173 868.454 639C870.667 639.8 873.12 640.2 875.814 640.2C883.094 640.2 889.16 638.027 894.014 633.68L896.454 637.36ZM926.614 644.52C922.508 644.52 918.814 643.92 915.534 642.72C912.281 641.52 909.721 639.84 907.854 637.68C906.014 635.493 905.094 633.027 905.094 630.28C905.094 627.533 906.014 625.08 907.854 622.92C909.721 620.733 912.281 619.04 915.534 617.84C918.814 616.613 922.508 616 926.614 616C930.694 616 934.361 616.613 937.614 617.84C940.894 619.04 943.454 620.733 945.294 622.92C947.134 625.08 948.054 627.533 948.054 630.28C948.054 633.027 947.134 635.493 945.294 637.68C943.454 639.84 940.908 641.52 937.654 642.72C934.401 643.92 930.721 644.52 926.614 644.52ZM926.574 640.2C929.748 640.2 932.534 639.773 934.934 638.92C937.361 638.067 939.228 636.893 940.534 635.4C941.841 633.907 942.494 632.2 942.494 630.28C942.494 628.307 941.841 626.573 940.534 625.08C939.228 623.587 937.361 622.427 934.934 621.6C932.534 620.747 929.748 620.32 926.574 620.32C923.374 620.32 920.574 620.747 918.174 621.6C915.774 622.453 913.921 623.64 912.614 625.16C911.308 626.653 910.654 628.36 910.654 630.28C910.654 632.227 911.294 633.96 912.574 635.48C913.881 636.973 915.734 638.133 918.134 638.96C920.561 639.787 923.374 640.2 926.574 640.2ZM1001.83 620.76H994.631L978.551 644.52H975.751L959.591 620.76H952.391V616.56H971.391V620.76H966.151L977.831 638.32L989.391 620.76H983.591V616.56H1001.83V620.76ZM1045.79 627.32V620.76H1020.43V628.4H1032.39V624.56H1036.63V636.2H1032.39V632.36H1020.43V639.8H1045.79V633.24H1050.51V644H1006.75V639.8H1015.19V620.76H1006.75V616.56H1050.51V627.32H1045.79ZM1112.44 633.28V634.64C1112.44 636.48 1112.01 638.16 1111.16 639.68C1110.31 641.173 1109.13 642.36 1107.64 643.24C1106.17 644.12 1104.55 644.56 1102.76 644.56C1101 644.56 1099.4 644.227 1097.96 643.56C1096.52 642.867 1095.27 642.027 1094.2 641.04C1093.13 640.027 1092.01 638.813 1090.84 637.4C1089.69 636.04 1088.77 635.04 1088.08 634.4C1087.39 633.76 1086.51 633.253 1085.44 632.88C1084.37 632.48 1082.99 632.28 1081.28 632.28H1074.44V639.8H1082.68V644H1060.64V639.76H1069.12V620.76H1060.64V616.56H1094.28C1097.77 616.56 1100.49 617.253 1102.44 618.64C1104.41 620.027 1105.4 621.947 1105.4 624.4C1105.4 626.827 1104.44 628.747 1102.52 630.16C1100.63 631.573 1098.03 632.28 1094.72 632.28H1090.8C1091.55 632.6 1092.29 633.053 1093.04 633.64C1093.79 634.227 1094.63 635.013 1095.56 636C1097 637.493 1098.21 638.56 1099.2 639.2C1100.21 639.813 1101.4 640.12 1102.76 640.12C1103.67 640.12 1104.51 639.893 1105.28 639.44C1106.05 638.987 1106.67 638.347 1107.12 637.52C1107.6 636.693 1107.84 635.76 1107.84 634.72V633.28H1112.44ZM1074.44 620.76V628.32H1094.44C1096.25 628.32 1097.64 627.973 1098.6 627.28C1099.59 626.56 1100.08 625.6 1100.08 624.4C1100.08 623.28 1099.59 622.4 1098.6 621.76C1097.64 621.093 1096.25 620.76 1094.44 620.76H1074.44ZM1199.26 639.8V644H1178.66V639.8H1185.5V629.6C1185.5 627.653 1185.78 625.147 1186.34 622.08L1170.18 644.16H1167.38L1151.38 622.2C1151.84 625.48 1152.06 627.947 1152.06 629.6V639.8H1158.94V644H1138.5V639.8H1147.06V620.76H1138.5V616.56H1153.22L1168.98 638.28L1184.5 616.56H1199.22V620.76H1190.78V639.8H1199.26ZM1257.14 620.76H1248.74V630.08C1248.74 633.227 1247.96 635.88 1246.42 638.04C1244.87 640.2 1242.75 641.827 1240.06 642.92C1237.36 643.987 1234.27 644.52 1230.78 644.52C1227.23 644.52 1224.1 643.987 1221.38 642.92C1218.68 641.827 1216.58 640.2 1215.06 638.04C1213.56 635.88 1212.82 633.227 1212.82 630.08V620.76H1204.38V616.56H1225.86V620.76H1218.02L1218.1 630.28C1218.12 633.667 1219.27 636.173 1221.54 637.8C1223.8 639.4 1226.88 640.2 1230.78 640.2C1234.64 640.2 1237.71 639.387 1239.98 637.76C1242.27 636.107 1243.43 633.587 1243.46 630.2L1243.54 620.76H1235.78V616.56H1257.14V620.76ZM1301.67 632.48V644H1262.27V639.8H1270.75V620.76H1262.27V616.56H1284.47V620.76H1275.99V639.8H1296.95V632.48H1301.67ZM1349.31 616.56V627.32H1344.59V620.72H1330.39V639.8H1339.11V644H1316.39V639.8H1325.07V620.72H1310.87V627.32H1306.19V616.56H1349.31ZM1370.54 620.76V639.8H1378.98V644H1356.74V639.8H1365.22V620.76H1356.74V616.56H1378.98V620.76H1370.54ZM1420.08 616.56C1422.32 616.56 1424.3 616.907 1426.04 617.6C1427.8 618.293 1429.17 619.307 1430.16 620.64C1431.14 621.973 1431.64 623.56 1431.64 625.4C1431.64 627.187 1431.14 628.76 1430.16 630.12C1429.17 631.453 1427.8 632.48 1426.04 633.2C1424.28 633.92 1422.29 634.28 1420.08 634.28H1400.76V639.8H1409.76V644H1386.96V639.8H1395.44V620.76H1386.96V616.56H1420.08ZM1419.96 630.2C1421.82 630.2 1423.33 629.773 1424.48 628.92C1425.62 628.067 1426.2 626.92 1426.2 625.48C1426.2 623.987 1425.62 622.827 1424.48 622C1423.36 621.173 1421.85 620.76 1419.96 620.76H1400.76V630.2H1419.96ZM1478.45 632.48V644H1439.05V639.8H1447.53V620.76H1439.05V616.56H1461.25V620.76H1452.77V639.8H1473.73V632.48H1478.45ZM1525.43 627.32V620.76H1500.07V628.4H1512.03V624.56H1516.27V636.2H1512.03V632.36H1500.07V639.8H1525.43V633.24H1530.15V644H1486.39V639.8H1494.83V620.76H1486.39V616.56H1530.15V627.32H1525.43ZM137.72 704.56C139.96 704.56 141.947 704.907 143.68 705.6C145.44 706.293 146.813 707.307 147.8 708.64C148.787 709.973 149.28 711.56 149.28 713.4C149.28 715.187 148.787 716.76 147.8 718.12C146.813 719.453 145.44 720.48 143.68 721.2C141.92 721.92 139.933 722.28 137.72 722.28H118.4V727.8H127.4V732H104.6V727.8H113.08V708.76H104.6V704.56H137.72ZM137.6 718.2C139.467 718.2 140.973 717.773 142.12 716.92C143.267 716.067 143.84 714.92 143.84 713.48C143.84 711.987 143.267 710.827 142.12 710C141 709.173 139.493 708.76 137.6 708.76H118.4V718.2H137.6ZM208.497 721.28V722.64C208.497 724.48 208.07 726.16 207.217 727.68C206.364 729.173 205.19 730.36 203.697 731.24C202.23 732.12 200.604 732.56 198.817 732.56C197.057 732.56 195.457 732.227 194.017 731.56C192.577 730.867 191.324 730.027 190.257 729.04C189.19 728.027 188.07 726.813 186.897 725.4C185.75 724.04 184.83 723.04 184.137 722.4C183.444 721.76 182.564 721.253 181.497 720.88C180.43 720.48 179.044 720.28 177.337 720.28H170.497V727.8H178.737V732H156.697V727.76H165.177V708.76H156.697V704.56H190.337C193.83 704.56 196.55 705.253 198.497 706.64C200.47 708.027 201.457 709.947 201.457 712.4C201.457 714.827 200.497 716.747 198.577 718.16C196.684 719.573 194.084 720.28 190.777 720.28H186.857C187.604 720.6 188.35 721.053 189.097 721.64C189.844 722.227 190.684 723.013 191.617 724C193.057 725.493 194.27 726.56 195.257 727.2C196.27 727.813 197.457 728.12 198.817 728.12C199.724 728.12 200.564 727.893 201.337 727.44C202.11 726.987 202.724 726.347 203.177 725.52C203.657 724.693 203.897 723.76 203.897 722.72V721.28H208.497ZM170.497 708.76V716.32H190.497C192.31 716.32 193.697 715.973 194.657 715.28C195.644 714.56 196.137 713.6 196.137 712.4C196.137 711.28 195.644 710.4 194.657 709.76C193.697 709.093 192.31 708.76 190.497 708.76H170.497ZM236.177 732.52C232.07 732.52 228.377 731.92 225.097 730.72C221.844 729.52 219.284 727.84 217.417 725.68C215.577 723.493 214.657 721.027 214.657 718.28C214.657 715.533 215.577 713.08 217.417 710.92C219.284 708.733 221.844 707.04 225.097 705.84C228.377 704.613 232.07 704 236.177 704C240.257 704 243.924 704.613 247.177 705.84C250.457 707.04 253.017 708.733 254.857 710.92C256.697 713.08 257.617 715.533 257.617 718.28C257.617 721.027 256.697 723.493 254.857 725.68C253.017 727.84 250.47 729.52 247.217 730.72C243.964 731.92 240.284 732.52 236.177 732.52ZM236.137 728.2C239.31 728.2 242.097 727.773 244.497 726.92C246.924 726.067 248.79 724.893 250.097 723.4C251.404 721.907 252.057 720.2 252.057 718.28C252.057 716.307 251.404 714.573 250.097 713.08C248.79 711.587 246.924 710.427 244.497 709.6C242.097 708.747 239.31 708.32 236.137 708.32C232.937 708.32 230.137 708.747 227.737 709.6C225.337 710.453 223.484 711.64 222.177 713.16C220.87 714.653 220.217 716.36 220.217 718.28C220.217 720.227 220.857 721.96 222.137 723.48C223.444 724.973 225.297 726.133 227.697 726.96C230.124 727.787 232.937 728.2 236.137 728.2ZM292.859 704.56C296.326 704.56 299.472 705.013 302.299 705.92C305.152 706.827 307.446 708.307 309.179 710.36C310.939 712.387 311.819 715.027 311.819 718.28C311.819 721.533 310.939 724.187 309.179 726.24C307.446 728.267 305.152 729.733 302.299 730.64C299.472 731.547 296.326 732 292.859 732H265.539V727.8H274.019V708.76H265.539V704.56H292.859ZM292.099 727.8C294.792 727.8 297.152 727.573 299.179 727.12C301.232 726.667 302.926 725.747 304.259 724.36C305.592 722.947 306.259 720.92 306.259 718.28C306.259 714.52 304.952 712 302.339 710.72C299.726 709.413 296.312 708.76 292.099 708.76H279.339V727.8H292.099ZM369.522 708.76H361.122V718.08C361.122 721.227 360.349 723.88 358.802 726.04C357.256 728.2 355.136 729.827 352.442 730.92C349.749 731.987 346.656 732.52 343.162 732.52C339.616 732.52 336.482 731.987 333.762 730.92C331.069 729.827 328.962 728.2 327.442 726.04C325.949 723.88 325.202 721.227 325.202 718.08V708.76H316.762V704.56H338.242V708.76H330.402L330.482 718.28C330.509 721.667 331.656 724.173 333.922 725.8C336.189 727.4 339.269 728.2 343.162 728.2C347.029 728.2 350.096 727.387 352.362 725.76C354.656 724.107 355.816 721.587 355.842 718.2L355.922 708.76H348.162V704.56H369.522V708.76ZM415.263 725.36C412.89 727.44 409.996 729.16 406.583 730.52C403.17 731.853 399.183 732.52 394.623 732.52C390.836 732.52 387.41 731.96 384.343 730.84C381.303 729.72 378.89 728.093 377.103 725.96C375.343 723.827 374.463 721.293 374.463 718.36C374.463 715.4 375.343 712.84 377.103 710.68C378.863 708.493 381.236 706.84 384.223 705.72C387.236 704.573 390.556 704 394.183 704C397.356 704 400.303 704.493 403.023 705.48C405.743 706.44 408.156 707.827 410.263 709.64V704.56H414.943L414.983 714.48L411.543 715.16C407.303 710.52 401.516 708.2 394.183 708.2C391.383 708.2 388.903 708.64 386.743 709.52C384.61 710.373 382.956 711.56 381.783 713.08C380.61 714.6 380.023 716.333 380.023 718.28C380.023 720.28 380.676 722.027 381.983 723.52C383.29 725.013 385.05 726.173 387.263 727C389.476 727.8 391.93 728.2 394.623 728.2C401.903 728.2 407.97 726.027 412.823 721.68L415.263 725.36ZM465.482 704.56V715.32H460.762V708.72H446.562V727.8H455.282V732H432.562V727.8H441.242V708.72H427.042V715.32H422.362V704.56H465.482ZM494.128 716.2C498.288 716.68 501.581 717.28 504.008 718C506.434 718.72 508.208 719.64 509.328 720.76C510.448 721.853 511.008 723.253 511.008 724.96C511.008 727.333 509.861 729.2 507.568 730.56C505.301 731.893 502.168 732.56 498.168 732.56C494.888 732.56 491.608 732.08 488.328 731.12C485.074 730.133 482.074 728.787 479.328 727.08V732H474.528V721.92L477.728 721.28C480.368 723.547 483.488 725.307 487.088 726.56C490.688 727.813 494.381 728.44 498.168 728.44C500.488 728.44 502.288 728.147 503.568 727.56C504.874 726.947 505.528 726.08 505.528 724.96C505.528 724.16 505.101 723.533 504.248 723.08C503.394 722.6 501.968 722.187 499.968 721.84C497.968 721.493 494.861 721.067 490.648 720.56C486.728 720.107 483.608 719.533 481.288 718.84C478.968 718.12 477.274 717.213 476.208 716.12C475.168 715 474.648 713.6 474.648 711.92C474.648 709.44 475.821 707.507 478.168 706.12C480.514 704.733 483.834 704.04 488.128 704.04C491.168 704.04 494.061 704.48 496.808 705.36C499.581 706.213 502.114 707.427 504.408 709V704.56H509.128V714.44L506.088 715.04C503.981 712.853 501.394 711.173 498.328 710C495.261 708.827 491.848 708.24 488.088 708.24C485.688 708.24 483.768 708.573 482.328 709.24C480.888 709.907 480.168 710.8 480.168 711.92C480.168 712.693 480.568 713.32 481.368 713.8C482.168 714.253 483.514 714.653 485.408 715C487.301 715.347 490.208 715.747 494.128 716.2ZM562.15 716.2C566.31 716.68 569.603 717.28 572.03 718C574.456 718.72 576.23 719.64 577.35 720.76C578.47 721.853 579.03 723.253 579.03 724.96C579.03 727.333 577.883 729.2 575.59 730.56C573.323 731.893 570.19 732.56 566.19 732.56C562.91 732.56 559.63 732.08 556.35 731.12C553.096 730.133 550.096 728.787 547.35 727.08V732H542.55V721.92L545.75 721.28C548.39 723.547 551.51 725.307 555.11 726.56C558.71 727.813 562.403 728.44 566.19 728.44C568.51 728.44 570.31 728.147 571.59 727.56C572.896 726.947 573.55 726.08 573.55 724.96C573.55 724.16 573.123 723.533 572.27 723.08C571.416 722.6 569.99 722.187 567.99 721.84C565.99 721.493 562.883 721.067 558.67 720.56C554.75 720.107 551.63 719.533 549.31 718.84C546.99 718.12 545.296 717.213 544.23 716.12C543.19 715 542.67 713.6 542.67 711.92C542.67 709.44 543.843 707.507 546.19 706.12C548.536 704.733 551.856 704.04 556.15 704.04C559.19 704.04 562.083 704.48 564.83 705.36C567.603 706.213 570.136 707.427 572.43 709V704.56H577.15V714.44L574.11 715.04C572.003 712.853 569.416 711.173 566.35 710C563.283 708.827 559.87 708.24 556.11 708.24C553.71 708.24 551.79 708.573 550.35 709.24C548.91 709.907 548.19 710.8 548.19 711.92C548.19 712.693 548.59 713.32 549.39 713.8C550.19 714.253 551.536 714.653 553.43 715C555.323 715.347 558.23 715.747 562.15 716.2ZM633.282 708.76V727.8H641.722V732H619.522V727.8H627.962V719.96H601.362V727.8H609.762V732H587.522V727.8H596.042V708.76H587.522V704.56H609.762V708.76H601.362V716H627.962V708.76H619.522V704.56H641.722V708.76H633.282ZM699.447 727.8V732H680.087V727.8H685.967L682.247 722.52H662.727L658.967 727.8H664.847V732H645.447V727.8H653.167L667.527 708.72H661.407V704.56H683.487V708.72H677.407L691.807 727.8H699.447ZM679.647 718.8L672.567 708.72H672.447L665.327 718.8H679.647ZM754.648 721.28V722.64C754.648 724.48 754.222 726.16 753.368 727.68C752.515 729.173 751.342 730.36 749.848 731.24C748.382 732.12 746.755 732.56 744.968 732.56C743.208 732.56 741.608 732.227 740.168 731.56C738.728 730.867 737.475 730.027 736.408 729.04C735.342 728.027 734.222 726.813 733.048 725.4C731.902 724.04 730.982 723.04 730.288 722.4C729.595 721.76 728.715 721.253 727.648 720.88C726.582 720.48 725.195 720.28 723.488 720.28H716.648V727.8H724.888V732H702.848V727.76H711.328V708.76H702.848V704.56H736.488C739.982 704.56 742.702 705.253 744.648 706.64C746.622 708.027 747.608 709.947 747.608 712.4C747.608 714.827 746.648 716.747 744.728 718.16C742.835 719.573 740.235 720.28 736.928 720.28H733.008C733.755 720.6 734.502 721.053 735.248 721.64C735.995 722.227 736.835 723.013 737.768 724C739.208 725.493 740.422 726.56 741.408 727.2C742.422 727.813 743.608 728.12 744.968 728.12C745.875 728.12 746.715 727.893 747.488 727.44C748.262 726.987 748.875 726.347 749.328 725.52C749.808 724.693 750.048 723.76 750.048 722.72V721.28H754.648ZM716.648 708.76V716.32H736.648C738.462 716.32 739.848 715.973 740.808 715.28C741.795 714.56 742.288 713.6 742.288 712.4C742.288 711.28 741.795 710.4 740.808 709.76C739.848 709.093 738.462 708.76 736.648 708.76H716.648ZM799.024 715.32V708.76H773.664V716.4H785.624V712.56H789.864V724.2H785.624V720.36H773.664V727.8H799.024V721.24H803.744V732H759.984V727.8H768.424V708.76H759.984V704.56H803.744V715.32H799.024ZM841.198 704.56C844.665 704.56 847.811 705.013 850.638 705.92C853.491 706.827 855.785 708.307 857.518 710.36C859.278 712.387 860.158 715.027 860.158 718.28C860.158 721.533 859.278 724.187 857.518 726.24C855.785 728.267 853.491 729.733 850.638 730.64C847.811 731.547 844.665 732 841.198 732H813.878V727.8H822.358V708.76H813.878V704.56H841.198ZM840.438 727.8C843.131 727.8 845.491 727.573 847.518 727.12C849.571 726.667 851.265 725.747 852.598 724.36C853.931 722.947 854.598 720.92 854.598 718.28C854.598 714.52 853.291 712 850.678 710.72C848.065 709.413 844.651 708.76 840.438 708.76H827.678V727.8H840.438ZM927.968 717.72C931.782 718.733 933.688 720.947 933.688 724.36C933.688 726.813 932.768 728.707 930.928 730.04C929.115 731.347 926.475 732 923.008 732H889.048V727.8H897.528V708.76H889.048V704.56H922.248C925.262 704.56 927.568 705.227 929.168 706.56C930.795 707.893 931.608 709.653 931.608 711.84C931.608 713.173 931.275 714.333 930.608 715.32C929.968 716.307 929.088 717.107 927.968 717.72ZM902.848 708.76V716.36H921.008C924.555 716.36 926.328 715.067 926.328 712.48C926.328 711.2 925.902 710.267 925.048 709.68C924.222 709.067 923.208 708.76 922.008 708.76H902.848ZM922.568 727.8C926.462 727.8 928.408 726.52 928.408 723.96C928.408 721.427 926.542 720.16 922.808 720.16H902.848V727.8H922.568ZM964.7 721.44V727.8H973.06V732H951.06V727.8H959.38V721.64L945.5 708.76H939.14V704.56H956.82V708.76H952.3L962.54 718.56L972.42 708.76H967.22V704.56H984.86V708.76H977.9L964.7 721.44ZM1057.79 708.76H1050.59L1034.51 732.52H1031.71L1015.55 708.76H1008.35V704.56H1027.35V708.76H1022.11L1033.79 726.32L1045.35 708.76H1039.55V704.56H1057.79V708.76ZM1109.49 727.8V732H1090.13V727.8H1096.01L1092.29 722.52H1072.77L1069.01 727.8H1074.89V732H1055.49V727.8H1063.21L1077.57 708.72H1071.45V704.56H1093.53V708.72H1087.45L1101.85 727.8H1109.49ZM1089.69 718.8L1082.61 708.72H1082.49L1075.37 718.8H1089.69ZM1164.69 721.28V722.64C1164.69 724.48 1164.27 726.16 1163.41 727.68C1162.56 729.173 1161.39 730.36 1159.89 731.24C1158.43 732.12 1156.8 732.56 1155.01 732.56C1153.25 732.56 1151.65 732.227 1150.21 731.56C1148.77 730.867 1147.52 730.027 1146.45 729.04C1145.39 728.027 1144.27 726.813 1143.09 725.4C1141.95 724.04 1141.03 723.04 1140.33 722.4C1139.64 721.76 1138.76 721.253 1137.69 720.88C1136.63 720.48 1135.24 720.28 1133.53 720.28H1126.69V727.8H1134.93V732H1112.89V727.76H1121.37V708.76H1112.89V704.56H1146.53C1150.03 704.56 1152.75 705.253 1154.69 706.64C1156.67 708.027 1157.65 709.947 1157.65 712.4C1157.65 714.827 1156.69 716.747 1154.77 718.16C1152.88 719.573 1150.28 720.28 1146.97 720.28H1143.05C1143.8 720.6 1144.55 721.053 1145.29 721.64C1146.04 722.227 1146.88 723.013 1147.81 724C1149.25 725.493 1150.47 726.56 1151.45 727.2C1152.47 727.813 1153.65 728.12 1155.01 728.12C1155.92 728.12 1156.76 727.893 1157.53 727.44C1158.31 726.987 1158.92 726.347 1159.37 725.52C1159.85 724.693 1160.09 723.76 1160.09 722.72V721.28H1164.69ZM1126.69 708.76V716.32H1146.69C1148.51 716.32 1149.89 715.973 1150.85 715.28C1151.84 714.56 1152.33 713.6 1152.33 712.4C1152.33 711.28 1151.84 710.4 1150.85 709.76C1149.89 709.093 1148.51 708.76 1146.69 708.76H1126.69ZM1183.83 708.76V727.8H1192.27V732H1170.03V727.8H1178.51V708.76H1170.03V704.56H1192.27V708.76H1183.83ZM1221.73 732.52C1217.63 732.52 1213.93 731.92 1210.65 730.72C1207.4 729.52 1204.84 727.84 1202.97 725.68C1201.13 723.493 1200.21 721.027 1200.21 718.28C1200.21 715.533 1201.13 713.08 1202.97 710.92C1204.84 708.733 1207.4 707.04 1210.65 705.84C1213.93 704.613 1217.63 704 1221.73 704C1225.81 704 1229.48 704.613 1232.73 705.84C1236.01 707.04 1238.57 708.733 1240.41 710.92C1242.25 713.08 1243.17 715.533 1243.17 718.28C1243.17 721.027 1242.25 723.493 1240.41 725.68C1238.57 727.84 1236.03 729.52 1232.77 730.72C1229.52 731.92 1225.84 732.52 1221.73 732.52ZM1221.69 728.2C1224.87 728.2 1227.65 727.773 1230.05 726.92C1232.48 726.067 1234.35 724.893 1235.65 723.4C1236.96 721.907 1237.61 720.2 1237.61 718.28C1237.61 716.307 1236.96 714.573 1235.65 713.08C1234.35 711.587 1232.48 710.427 1230.05 709.6C1227.65 708.747 1224.87 708.32 1221.69 708.32C1218.49 708.32 1215.69 708.747 1213.29 709.6C1210.89 710.453 1209.04 711.64 1207.73 713.16C1206.43 714.653 1205.77 716.36 1205.77 718.28C1205.77 720.227 1206.41 721.96 1207.69 723.48C1209 724.973 1210.85 726.133 1213.25 726.96C1215.68 727.787 1218.49 728.2 1221.69 728.2ZM1300.83 708.76H1292.43V718.08C1292.43 721.227 1291.66 723.88 1290.11 726.04C1288.57 728.2 1286.45 729.827 1283.75 730.92C1281.06 731.987 1277.97 732.52 1274.47 732.52C1270.93 732.52 1267.79 731.987 1265.07 730.92C1262.38 729.827 1260.27 728.2 1258.75 726.04C1257.26 723.88 1256.51 721.227 1256.51 718.08V708.76H1248.07V704.56H1269.55V708.76H1261.71L1261.79 718.28C1261.82 721.667 1262.97 724.173 1265.23 725.8C1267.5 727.4 1270.58 728.2 1274.47 728.2C1278.34 728.2 1281.41 727.387 1283.67 725.76C1285.97 724.107 1287.13 721.587 1287.15 718.2L1287.23 708.76H1279.47V704.56H1300.83V708.76ZM1327.11 716.2C1331.27 716.68 1334.56 717.28 1336.99 718C1339.41 718.72 1341.19 719.64 1342.31 720.76C1343.43 721.853 1343.99 723.253 1343.99 724.96C1343.99 727.333 1342.84 729.2 1340.55 730.56C1338.28 731.893 1335.15 732.56 1331.15 732.56C1327.87 732.56 1324.59 732.08 1321.31 731.12C1318.05 730.133 1315.05 728.787 1312.31 727.08V732H1307.51V721.92L1310.71 721.28C1313.35 723.547 1316.47 725.307 1320.07 726.56C1323.67 727.813 1327.36 728.44 1331.15 728.44C1333.47 728.44 1335.27 728.147 1336.55 727.56C1337.85 726.947 1338.51 726.08 1338.51 724.96C1338.51 724.16 1338.08 723.533 1337.23 723.08C1336.37 722.6 1334.95 722.187 1332.95 721.84C1330.95 721.493 1327.84 721.067 1323.63 720.56C1319.71 720.107 1316.59 719.533 1314.27 718.84C1311.95 718.12 1310.25 717.213 1309.19 716.12C1308.15 715 1307.63 713.6 1307.63 711.92C1307.63 709.44 1308.8 707.507 1311.15 706.12C1313.49 704.733 1316.81 704.04 1321.11 704.04C1324.15 704.04 1327.04 704.48 1329.79 705.36C1332.56 706.213 1335.09 707.427 1337.39 709V704.56H1342.11V714.44L1339.07 715.04C1336.96 712.853 1334.37 711.173 1331.31 710C1328.24 708.827 1324.83 708.24 1321.07 708.24C1318.67 708.24 1316.75 708.573 1315.31 709.24C1313.87 709.907 1313.15 710.8 1313.15 711.92C1313.15 712.693 1313.55 713.32 1314.35 713.8C1315.15 714.253 1316.49 714.653 1318.39 715C1320.28 715.347 1323.19 715.747 1327.11 716.2ZM126.52 804.2C130.68 804.68 133.973 805.28 136.4 806C138.827 806.72 140.6 807.64 141.72 808.76C142.84 809.853 143.4 811.253 143.4 812.96C143.4 815.333 142.253 817.2 139.96 818.56C137.693 819.893 134.56 820.56 130.56 820.56C127.28 820.56 124 820.08 120.72 819.12C117.467 818.133 114.467 816.787 111.72 815.08V820H106.92V809.92L110.12 809.28C112.76 811.547 115.88 813.307 119.48 814.56C123.08 815.813 126.773 816.44 130.56 816.44C132.88 816.44 134.68 816.147 135.96 815.56C137.267 814.947 137.92 814.08 137.92 812.96C137.92 812.16 137.493 811.533 136.64 811.08C135.787 810.6 134.36 810.187 132.36 809.84C130.36 809.493 127.253 809.067 123.04 808.56C119.12 808.107 116 807.533 113.68 806.84C111.36 806.12 109.667 805.213 108.6 804.12C107.56 803 107.04 801.6 107.04 799.92C107.04 797.44 108.213 795.507 110.56 794.12C112.907 792.733 116.227 792.04 120.52 792.04C123.56 792.04 126.453 792.48 129.2 793.36C131.973 794.213 134.507 795.427 136.8 797V792.56H141.52V802.44L138.48 803.04C136.373 800.853 133.787 799.173 130.72 798C127.653 796.827 124.24 796.24 120.48 796.24C118.08 796.24 116.16 796.573 114.72 797.24C113.28 797.907 112.56 798.8 112.56 799.92C112.56 800.693 112.96 801.32 113.76 801.8C114.56 802.253 115.907 802.653 117.8 803C119.693 803.347 122.6 803.747 126.52 804.2ZM202.384 815.8V820H183.024V815.8H188.904L185.184 810.52H165.664L161.904 815.8H167.784V820H148.384V815.8H156.104L170.464 796.72H164.344V792.56H186.424V796.72H180.344L194.744 815.8H202.384ZM182.584 806.8L175.504 796.72H175.384L168.264 806.8H182.584ZM245.186 808.48V820H205.786V815.8H214.266V796.76H205.786V792.56H227.986V796.76H219.506V815.8H240.466V808.48H245.186ZM292.157 803.32V796.76H266.797V804.4H278.757V800.56H282.997V812.2H278.757V808.36H266.797V815.8H292.157V809.24H296.877V820H253.117V815.8H261.557V796.76H253.117V792.56H296.877V803.32H292.157ZM327.759 804.2C331.919 804.68 335.212 805.28 337.639 806C340.066 806.72 341.839 807.64 342.959 808.76C344.079 809.853 344.639 811.253 344.639 812.96C344.639 815.333 343.492 817.2 341.199 818.56C338.932 819.893 335.799 820.56 331.799 820.56C328.519 820.56 325.239 820.08 321.959 819.12C318.706 818.133 315.706 816.787 312.959 815.08V820H308.159V809.92L311.359 809.28C313.999 811.547 317.119 813.307 320.719 814.56C324.319 815.813 328.012 816.44 331.799 816.44C334.119 816.44 335.919 816.147 337.199 815.56C338.506 814.947 339.159 814.08 339.159 812.96C339.159 812.16 338.732 811.533 337.879 811.08C337.026 810.6 335.599 810.187 333.599 809.84C331.599 809.493 328.492 809.067 324.279 808.56C320.359 808.107 317.239 807.533 314.919 806.84C312.599 806.12 310.906 805.213 309.839 804.12C308.799 803 308.279 801.6 308.279 799.92C308.279 797.44 309.452 795.507 311.799 794.12C314.146 792.733 317.466 792.04 321.759 792.04C324.799 792.04 327.692 792.48 330.439 793.36C333.212 794.213 335.746 795.427 338.039 797V792.56H342.759V802.44L339.719 803.04C337.612 800.853 335.026 799.173 331.959 798C328.892 796.827 325.479 796.24 321.719 796.24C319.319 796.24 317.399 796.573 315.959 797.24C314.519 797.907 313.799 798.8 313.799 799.92C313.799 800.693 314.199 801.32 314.999 801.8C315.799 802.253 317.146 802.653 319.039 803C320.932 803.347 323.839 803.747 327.759 804.2ZM413.891 815.8V820H393.291V815.8H400.131V805.6C400.131 803.653 400.411 801.147 400.971 798.08L384.811 820.16H382.011L366.011 798.2C366.465 801.48 366.691 803.947 366.691 805.6V815.8H373.571V820H353.131V815.8H361.691V796.76H353.131V792.56H367.851L383.611 814.28L399.131 792.56H413.851V796.76H405.411V815.8H413.891ZM460.909 803.32V796.76H435.549V804.4H447.509V800.56H451.749V812.2H447.509V808.36H435.549V815.8H460.909V809.24H465.629V820H421.869V815.8H430.309V796.76H421.869V792.56H465.629V803.32H460.909ZM531.043 796.76H522.563V820.24L519.843 820.28L489.363 799.08V815.8H498.403V820H475.763V815.8H484.243V796.76H475.763V792.56H489.363L517.683 812.44V796.76H509.243V792.56H531.043V796.76ZM538.666 820.52C537.439 820.52 536.439 820.24 535.666 819.68C534.892 819.12 534.506 818.4 534.506 817.52C534.506 816.613 534.879 815.88 535.626 815.32C536.399 814.76 537.412 814.48 538.666 814.48C539.946 814.48 540.959 814.76 541.706 815.32C542.452 815.853 542.826 816.587 542.826 817.52C542.826 818.427 542.452 819.16 541.706 819.72C540.959 820.253 539.946 820.52 538.666 820.52Z" fill="#DED8CB"/>
<path d="M78.58 95C78.4067 95 78.2983 94.8917 78.255 94.675L70.585 50.02C70.5417 49.8467 70.6067 49.76 70.78 49.76H78.06C78.2333 49.76 78.3417 49.8467 78.385 50.02L82.545 79.4L86.835 50.02C86.8783 49.8467 87.0083 49.76 87.225 49.76H93.075C93.2483 49.76 93.3567 49.8467 93.4 50.02L97.625 79.4L101.85 50.02C101.893 49.8467 102.002 49.76 102.175 49.76H109.39C109.607 49.76 109.693 49.8467 109.65 50.02L101.915 94.675C101.872 94.7617 101.807 94.8483 101.72 94.935C101.633 94.9783 101.59 95 101.59 95H93.725C93.595 95 93.4867 94.8917 93.4 94.675L90.085 71.34L86.77 94.675C86.7267 94.8917 86.6183 95 86.445 95H78.58ZM115.689 95C115.516 95 115.429 94.8917 115.429 94.675L115.494 50.02C115.494 49.8467 115.602 49.76 115.819 49.76H123.034C123.251 49.76 123.359 49.8467 123.359 50.02L123.294 67.7H133.044V50.02C133.044 49.8467 133.131 49.76 133.304 49.76H140.519C140.736 49.76 140.844 49.8467 140.844 50.02L140.974 94.675C140.974 94.8917 140.866 95 140.649 95H133.369C133.152 95 133.044 94.8917 133.044 94.675V75.565H123.294V94.675C123.294 94.8917 123.207 95 123.034 95H115.689ZM146.019 94.675L154.079 50.02C154.122 49.8467 154.23 49.76 154.404 49.76H163.829C164.002 49.76 164.11 49.8467 164.154 50.02L171.889 94.675C171.932 94.8917 171.845 95 171.629 95H164.414C164.24 95 164.132 94.8917 164.089 94.675L163.374 89.93H154.534L153.819 94.675C153.775 94.8917 153.667 95 153.494 95H146.279C146.105 95 146.019 94.8917 146.019 94.675ZM155.834 82.975H162.074L159.409 64.71L159.019 62.305L158.759 64.71L155.834 82.975ZM181.307 95C181.134 95 181.047 94.8917 181.047 94.675V57.625H172.597C172.381 57.625 172.272 57.5167 172.272 57.3L172.337 50.02C172.337 49.8467 172.424 49.76 172.597 49.76H197.297C197.514 49.76 197.622 49.8467 197.622 50.02V57.3C197.622 57.5167 197.536 57.625 197.362 57.625H188.847L188.912 94.675C188.912 94.8917 188.826 95 188.652 95H181.307ZM213.515 95.65C211.175 95.65 209.03 95.065 207.08 93.895C205.174 92.6817 203.635 91.1 202.465 89.15C201.339 87.1567 200.775 84.9683 200.775 82.585V79.595C200.775 79.3783 200.884 79.27 201.1 79.27H208.38C208.554 79.27 208.64 79.3783 208.64 79.595V82.585C208.64 84.015 209.117 85.25 210.07 86.29C211.024 87.2867 212.172 87.785 213.515 87.785C214.859 87.785 216.007 87.265 216.96 86.225C217.914 85.185 218.39 83.9717 218.39 82.585C218.39 80.9817 217.35 79.595 215.27 78.425C214.577 78.035 213.494 77.4283 212.02 76.605C210.547 75.7817 209.16 75.0017 207.86 74.265C205.477 72.8783 203.7 71.145 202.53 69.065C201.404 66.9417 200.84 64.5583 200.84 61.915C200.84 59.4883 201.425 57.3217 202.595 55.415C203.765 53.465 205.304 51.9267 207.21 50.8C209.16 49.6733 211.262 49.11 213.515 49.11C215.812 49.11 217.914 49.695 219.82 50.865C221.77 51.9917 223.309 53.53 224.435 55.48C225.605 57.3867 226.19 59.5317 226.19 61.915V67.245C226.19 67.4183 226.104 67.505 225.93 67.505H218.65C218.477 67.505 218.39 67.4183 218.39 67.245L218.325 61.915C218.325 60.3983 217.849 59.1633 216.895 58.21C215.942 57.2567 214.815 56.78 213.515 56.78C212.172 56.78 211.024 57.3 210.07 58.34C209.117 59.3367 208.64 60.5283 208.64 61.915C208.64 63.345 208.944 64.5367 209.55 65.49C210.157 66.4433 211.262 67.3533 212.865 68.22C213.082 68.35 213.494 68.5883 214.1 68.935C214.75 69.2383 215.444 69.6067 216.18 70.04C216.917 70.43 217.567 70.7767 218.13 71.08C218.737 71.3833 219.105 71.5783 219.235 71.665C221.402 72.8783 223.114 74.3733 224.37 76.15C225.627 77.8833 226.255 80.0283 226.255 82.585C226.255 85.055 225.67 87.2867 224.5 89.28C223.374 91.23 221.835 92.79 219.885 93.96C217.979 95.0867 215.855 95.65 213.515 95.65ZM229.246 94.675L237.306 50.02C237.35 49.8467 237.458 49.76 237.631 49.76H247.056C247.23 49.76 247.338 49.8467 247.381 50.02L255.116 94.675C255.16 94.8917 255.073 95 254.856 95H247.641C247.468 95 247.36 94.8917 247.316 94.675L246.601 89.93H237.761L237.046 94.675C237.003 94.8917 236.895 95 236.721 95H229.506C229.333 95 229.246 94.8917 229.246 94.675ZM239.061 82.975H245.301L242.636 64.71L242.246 62.305L241.986 64.71L239.061 82.975ZM261.471 95C261.254 95 261.146 94.8917 261.146 94.675L261.276 50.02C261.276 49.8467 261.362 49.76 261.536 49.76H274.016C278.002 49.76 281.144 50.9733 283.441 53.4C285.781 55.8267 286.951 59.12 286.951 63.28C286.951 66.3567 286.344 69.0217 285.131 71.275C283.917 73.5283 282.336 75.2617 280.386 76.475C278.436 77.6883 276.312 78.295 274.016 78.295H269.076V94.675C269.076 94.8917 268.967 95 268.751 95H261.471ZM269.076 70.43H274.016C275.402 70.43 276.594 69.78 277.591 68.48C278.631 67.1367 279.151 65.4033 279.151 63.28C279.151 61.59 278.696 60.2033 277.786 59.12C276.876 58.0367 275.619 57.495 274.016 57.495L269.076 57.56V70.43ZM293.636 95C293.419 95 293.311 94.8917 293.311 94.675L293.441 50.02C293.441 49.8467 293.527 49.76 293.701 49.76H306.181C310.167 49.76 313.309 50.9733 315.606 53.4C317.946 55.8267 319.116 59.12 319.116 63.28C319.116 66.3567 318.509 69.0217 317.296 71.275C316.082 73.5283 314.501 75.2617 312.551 76.475C310.601 77.6883 308.477 78.295 306.181 78.295H301.241V94.675C301.241 94.8917 301.132 95 300.916 95H293.636ZM301.241 70.43H306.181C307.567 70.43 308.759 69.78 309.756 68.48C310.796 67.1367 311.316 65.4033 311.316 63.28C311.316 61.59 310.861 60.2033 309.951 59.12C309.041 58.0367 307.784 57.495 306.181 57.495L301.241 57.56V70.43Z" fill="#FF6A3B"/>
</svg>
