<svg width="659" height="606" viewBox="0 0 659 606" fill="none" xmlns="http://www.w3.org/2000/svg">
<ellipse cx="299.5" cy="256.999" rx="201.5" ry="199" fill="#FF6A3B"/>
<g filter="url(#filter0_d_102_8)">
<mask id="path-2-outside-1_102_8" maskUnits="userSpaceOnUse" x="17.5433" y="70.9745" width="580.073" height="351.326" fill="black">
<rect fill="white" x="17.5433" y="70.9745" width="580.073" height="351.326"/>
<path d="M145.585 406.34C143.565 406.696 141.599 406.696 139.685 406.339C137.903 406.075 136.316 405.603 134.923 404.923C133.643 404.223 132.567 403.372 131.696 402.368C130.845 401.477 130.34 400.583 130.182 399.685C130.043 398.9 130.1 397.907 130.351 396.705C130.714 395.485 131.143 394.31 131.638 393.181C132.245 392.033 132.826 391.063 133.381 390.271C134.047 389.459 134.605 389.014 135.054 388.935C135.615 388.836 135.991 389.001 136.183 389.43C136.354 389.747 136.489 390.186 136.588 390.747C136.78 391.176 136.981 391.661 137.192 392.202C137.403 392.743 137.819 393.133 138.439 393.37C139.792 393.826 141.35 394.13 143.112 394.282C144.986 394.414 147.943 394.124 151.982 393.412C157.143 392.502 161.83 390.866 166.041 388.503C170.344 386.009 173.942 383.119 176.833 379.833C179.816 376.414 181.936 372.686 183.19 368.647C184.557 364.588 184.864 360.427 184.113 356.163C183.084 350.329 180.411 345.999 176.095 343.173C171.892 340.328 166.572 338.374 160.138 337.31C153.795 336.115 146.634 335.526 138.655 335.545C130.788 335.544 122.733 335.46 114.49 335.294C106.226 335.016 98.0064 334.325 89.8292 333.222C81.7445 331.986 74.2869 329.715 67.4565 326.408C60.7382 323.08 54.9243 318.321 50.0149 312.129C45.2176 305.918 41.9089 297.651 40.0887 287.329C38.051 275.772 38.4683 264.361 41.3409 253.095C44.1936 241.717 48.8118 230.838 55.1954 220.457C61.5789 210.077 69.2989 200.386 78.3552 191.385C87.4116 182.384 97.1047 174.369 107.435 167.342C117.764 160.314 128.358 154.455 139.216 149.764C150.166 144.941 160.577 141.659 170.451 139.918C186.384 137.109 199.006 137.833 208.318 142.091C217.722 146.218 223.413 153.891 225.392 165.111C226.282 170.16 225.955 175.192 224.41 180.208C222.865 185.224 220.96 189.84 218.696 194.057C216.411 198.162 214.141 201.686 211.883 204.629C209.718 207.441 208.404 209.176 207.942 209.836L206.665 208.5C206.758 208.368 207.579 207.124 209.131 204.768C210.682 202.412 212.247 199.475 213.825 195.957C215.402 192.44 216.753 188.615 217.875 184.484C218.998 180.353 219.213 176.323 218.52 172.396C216.918 163.308 211.972 157.239 203.683 154.188C195.374 151.026 184.039 150.711 169.677 153.243C154.866 155.855 141.372 160.027 129.195 165.761C117.017 171.494 106.113 178.218 96.4827 185.932C86.9447 193.514 78.6871 201.796 71.7097 210.778C64.8445 219.739 59.2532 228.708 54.9356 237.683C50.7302 246.639 47.8052 255.31 46.1606 263.699C44.6283 272.067 44.4359 279.505 45.5833 286.013C47.1265 294.765 50.244 301.619 54.9359 306.576C59.6079 311.421 65.29 315.105 71.9819 317.627C78.6541 320.037 85.9732 321.523 93.9392 322.085C102.017 322.627 110.224 322.916 118.56 322.95C126.896 322.984 135.017 323.114 142.924 323.339C150.923 323.433 158.189 324.292 164.723 325.916C171.237 327.428 176.731 330.046 181.205 333.769C185.659 337.38 188.51 342.72 189.756 349.788C190.904 356.296 190.837 362.15 189.556 367.351C188.387 372.531 186.482 377.148 183.842 381.2C181.201 385.252 178.059 388.756 174.416 391.712C170.904 394.761 167.303 397.305 163.614 399.343C159.924 401.382 156.446 402.979 153.179 404.134C150.024 405.268 147.493 406.004 145.585 406.34ZM311.531 377.079C309.511 377.436 307.545 377.435 305.631 377.079C303.849 376.814 302.261 376.342 300.869 375.662C299.589 374.962 298.513 374.111 297.642 373.108C296.791 372.217 296.286 371.322 296.128 370.425C295.989 369.639 296.045 368.646 296.296 367.445C296.66 366.224 297.089 365.049 297.584 363.921C298.191 362.772 298.772 361.802 299.327 361.01C299.993 360.199 300.551 359.753 301 359.674C301.561 359.575 301.937 359.74 302.128 360.169C302.3 360.486 302.435 360.925 302.534 361.486C302.725 361.915 302.927 362.4 303.138 362.941C303.349 363.482 303.765 363.872 304.385 364.11C305.738 364.565 307.296 364.869 309.058 365.021C310.932 365.153 313.889 364.863 317.928 364.151C323.089 363.241 327.776 361.605 331.987 359.243C336.29 356.749 339.887 353.858 342.779 350.572C345.762 347.154 347.881 343.425 349.136 339.386C350.503 335.327 350.81 331.166 350.058 326.902C349.03 321.068 346.357 316.738 342.041 313.913C337.838 311.067 332.518 309.113 326.083 308.05C319.741 306.854 312.58 306.266 304.601 306.284C296.734 306.283 288.679 306.2 280.435 306.034C272.172 305.755 263.952 305.064 255.775 303.961C247.69 302.726 240.233 300.454 233.402 297.147C226.684 293.819 220.87 289.06 215.961 282.869C211.163 276.658 207.855 268.391 206.035 258.068C203.997 246.511 204.414 235.1 207.287 223.835C210.14 212.457 214.758 201.577 221.141 191.197C227.525 180.816 235.245 171.125 244.301 162.124C253.357 153.123 263.051 145.109 273.38 138.081C283.71 131.054 294.304 125.194 305.161 120.503C316.111 115.68 326.523 112.398 336.397 110.657C352.33 107.848 364.952 108.572 374.264 112.831C383.668 116.957 389.359 124.63 391.338 135.85C392.228 140.899 391.901 145.932 390.356 150.947C388.811 155.963 386.906 160.58 384.641 164.797C382.357 168.901 380.086 172.425 377.829 175.369C375.664 178.18 374.35 179.916 373.888 180.575L372.611 179.239C372.703 179.107 373.525 177.863 375.077 175.507C376.628 173.151 378.193 170.214 379.77 166.697C381.348 163.179 382.699 159.355 383.821 155.223C384.944 151.092 385.159 147.063 384.466 143.136C382.864 134.047 377.918 127.978 369.629 124.928C361.32 121.765 349.985 121.45 335.623 123.982C320.812 126.594 307.318 130.766 295.141 136.5C282.963 142.234 272.059 148.958 262.429 156.672C252.891 164.254 244.633 172.535 237.656 181.517C230.79 190.479 225.199 199.447 220.881 208.422C216.676 217.378 213.751 226.05 212.107 234.438C210.574 242.806 210.382 250.245 211.529 256.752C213.072 265.504 216.19 272.358 220.882 277.316C225.554 282.161 231.236 285.844 237.928 288.366C244.6 290.776 251.919 292.262 259.885 292.824C267.963 293.367 276.17 293.655 284.506 293.689C292.842 293.723 300.963 293.853 308.87 294.078C316.869 294.172 324.135 295.031 330.669 296.655C337.183 298.168 342.677 300.785 347.151 304.508C351.605 308.119 354.456 313.459 355.702 320.528C356.85 327.035 356.783 332.889 355.502 338.09C354.333 343.271 352.428 347.887 349.788 351.939C347.147 355.991 344.005 359.495 340.361 362.451C336.85 365.5 333.249 368.044 329.56 370.083C325.87 372.122 322.392 373.718 319.124 374.873C315.97 376.008 313.438 376.743 311.531 377.079ZM477.477 347.819C475.457 348.175 473.49 348.175 471.576 347.818C469.795 347.554 468.207 347.081 466.815 346.402C465.535 345.702 464.459 344.85 463.588 343.847C462.737 342.956 462.232 342.061 462.074 341.164C461.935 340.378 461.991 339.385 462.242 338.184C462.605 336.963 463.035 335.788 463.53 334.66C464.137 333.511 464.718 332.541 465.273 331.749C465.939 330.938 466.497 330.492 466.946 330.413C467.507 330.314 467.883 330.479 468.074 330.908C468.246 331.225 468.381 331.664 468.48 332.225C468.671 332.654 468.873 333.139 469.084 333.68C469.295 334.222 469.711 334.611 470.331 334.849C471.684 335.304 473.241 335.608 475.004 335.76C476.878 335.893 479.835 335.603 483.874 334.89C489.035 333.98 493.721 332.344 497.932 329.982C502.236 327.488 505.833 324.598 508.725 321.311C511.708 317.893 513.827 314.164 515.082 310.125C516.449 306.066 516.756 301.905 516.004 297.642C514.975 291.807 512.303 287.477 507.987 284.652C503.783 281.807 498.464 279.852 492.029 278.789C485.687 277.593 478.526 277.005 470.547 277.024C462.68 277.023 454.625 276.939 446.381 276.773C438.118 276.494 429.898 275.804 421.721 274.7C413.636 273.465 406.179 271.194 399.348 267.886C392.63 264.559 386.816 259.799 381.907 253.608C377.109 247.397 373.801 239.13 371.98 228.807C369.943 217.251 370.36 205.839 373.233 194.574C376.085 183.196 380.704 172.317 387.087 161.936C393.471 151.555 401.191 141.864 410.247 132.863C419.303 123.862 428.996 115.848 439.326 108.82C449.656 101.793 460.25 95.9336 471.107 91.2426C482.057 86.4196 492.469 83.1376 502.343 81.3965C518.275 78.5872 530.898 79.3117 540.21 83.5699C549.614 87.6962 555.305 95.3694 557.284 106.589C558.174 111.639 557.847 116.671 556.301 121.687C554.756 126.702 552.852 131.319 550.587 135.536C548.303 139.641 546.032 143.165 543.775 146.108C541.61 148.919 540.296 150.655 539.834 151.315L538.557 149.978C538.649 149.846 539.471 148.602 541.023 146.246C542.574 143.89 544.138 140.953 545.716 137.436C547.294 133.918 548.644 130.094 549.767 125.963C550.89 121.831 551.105 117.802 550.412 113.875C548.81 104.787 543.864 98.7172 535.575 95.6669C527.266 92.5044 515.931 92.1893 501.569 94.7217C486.758 97.3332 473.264 101.506 461.086 107.239C448.909 112.973 438.005 119.697 428.374 127.411C418.836 134.993 410.579 143.275 403.601 152.256C396.736 161.218 391.145 170.186 386.827 179.162C382.622 188.117 379.697 196.789 378.052 205.177C376.52 213.546 376.328 220.984 377.475 227.491C379.018 236.243 382.136 243.098 386.828 248.055C391.5 252.9 397.182 256.583 403.874 259.105C410.546 261.515 417.865 263.001 425.831 263.563C433.909 264.106 442.116 264.394 450.452 264.428C458.788 264.462 466.909 264.592 474.815 264.818C482.815 264.911 490.081 265.77 496.615 267.395C503.129 268.907 508.623 271.525 513.097 275.248C517.551 278.858 520.402 284.198 521.648 291.267C522.796 297.774 522.729 303.629 521.448 308.829C520.279 314.01 518.374 318.626 515.733 322.678C513.093 326.73 509.951 330.234 506.307 333.191C502.796 336.239 499.195 338.783 495.505 340.822C491.816 342.861 488.337 344.458 485.07 345.612C481.915 346.747 479.384 347.482 477.477 347.819Z"/>
</mask>
<path d="M145.585 406.34C143.565 406.696 141.599 406.696 139.685 406.339C137.903 406.075 136.316 405.603 134.923 404.923C133.643 404.223 132.567 403.372 131.696 402.368C130.845 401.477 130.34 400.583 130.182 399.685C130.043 398.9 130.1 397.907 130.351 396.705C130.714 395.485 131.143 394.31 131.638 393.181C132.245 392.033 132.826 391.063 133.381 390.271C134.047 389.459 134.605 389.014 135.054 388.935C135.615 388.836 135.991 389.001 136.183 389.43C136.354 389.747 136.489 390.186 136.588 390.747C136.78 391.176 136.981 391.661 137.192 392.202C137.403 392.743 137.819 393.133 138.439 393.37C139.792 393.826 141.35 394.13 143.112 394.282C144.986 394.414 147.943 394.124 151.982 393.412C157.143 392.502 161.83 390.866 166.041 388.503C170.344 386.009 173.942 383.119 176.833 379.833C179.816 376.414 181.936 372.686 183.19 368.647C184.557 364.588 184.864 360.427 184.113 356.163C183.084 350.329 180.411 345.999 176.095 343.173C171.892 340.328 166.572 338.374 160.138 337.31C153.795 336.115 146.634 335.526 138.655 335.545C130.788 335.544 122.733 335.46 114.49 335.294C106.226 335.016 98.0064 334.325 89.8292 333.222C81.7445 331.986 74.2869 329.715 67.4565 326.408C60.7382 323.08 54.9243 318.321 50.0149 312.129C45.2176 305.918 41.9089 297.651 40.0887 287.329C38.051 275.772 38.4683 264.361 41.3409 253.095C44.1936 241.717 48.8118 230.838 55.1954 220.457C61.5789 210.077 69.2989 200.386 78.3552 191.385C87.4116 182.384 97.1047 174.369 107.435 167.342C117.764 160.314 128.358 154.455 139.216 149.764C150.166 144.941 160.577 141.659 170.451 139.918C186.384 137.109 199.006 137.833 208.318 142.091C217.722 146.218 223.413 153.891 225.392 165.111C226.282 170.16 225.955 175.192 224.41 180.208C222.865 185.224 220.96 189.84 218.696 194.057C216.411 198.162 214.141 201.686 211.883 204.629C209.718 207.441 208.404 209.176 207.942 209.836L206.665 208.5C206.758 208.368 207.579 207.124 209.131 204.768C210.682 202.412 212.247 199.475 213.825 195.957C215.402 192.44 216.753 188.615 217.875 184.484C218.998 180.353 219.213 176.323 218.52 172.396C216.918 163.308 211.972 157.239 203.683 154.188C195.374 151.026 184.039 150.711 169.677 153.243C154.866 155.855 141.372 160.027 129.195 165.761C117.017 171.494 106.113 178.218 96.4827 185.932C86.9447 193.514 78.6871 201.796 71.7097 210.778C64.8445 219.739 59.2532 228.708 54.9356 237.683C50.7302 246.639 47.8052 255.31 46.1606 263.699C44.6283 272.067 44.4359 279.505 45.5833 286.013C47.1265 294.765 50.244 301.619 54.9359 306.576C59.6079 311.421 65.29 315.105 71.9819 317.627C78.6541 320.037 85.9732 321.523 93.9392 322.085C102.017 322.627 110.224 322.916 118.56 322.95C126.896 322.984 135.017 323.114 142.924 323.339C150.923 323.433 158.189 324.292 164.723 325.916C171.237 327.428 176.731 330.046 181.205 333.769C185.659 337.38 188.51 342.72 189.756 349.788C190.904 356.296 190.837 362.15 189.556 367.351C188.387 372.531 186.482 377.148 183.842 381.2C181.201 385.252 178.059 388.756 174.416 391.712C170.904 394.761 167.303 397.305 163.614 399.343C159.924 401.382 156.446 402.979 153.179 404.134C150.024 405.268 147.493 406.004 145.585 406.34ZM311.531 377.079C309.511 377.436 307.545 377.435 305.631 377.079C303.849 376.814 302.261 376.342 300.869 375.662C299.589 374.962 298.513 374.111 297.642 373.108C296.791 372.217 296.286 371.322 296.128 370.425C295.989 369.639 296.045 368.646 296.296 367.445C296.66 366.224 297.089 365.049 297.584 363.921C298.191 362.772 298.772 361.802 299.327 361.01C299.993 360.199 300.551 359.753 301 359.674C301.561 359.575 301.937 359.74 302.128 360.169C302.3 360.486 302.435 360.925 302.534 361.486C302.725 361.915 302.927 362.4 303.138 362.941C303.349 363.482 303.765 363.872 304.385 364.11C305.738 364.565 307.296 364.869 309.058 365.021C310.932 365.153 313.889 364.863 317.928 364.151C323.089 363.241 327.776 361.605 331.987 359.243C336.29 356.749 339.887 353.858 342.779 350.572C345.762 347.154 347.881 343.425 349.136 339.386C350.503 335.327 350.81 331.166 350.058 326.902C349.03 321.068 346.357 316.738 342.041 313.913C337.838 311.067 332.518 309.113 326.083 308.05C319.741 306.854 312.58 306.266 304.601 306.284C296.734 306.283 288.679 306.2 280.435 306.034C272.172 305.755 263.952 305.064 255.775 303.961C247.69 302.726 240.233 300.454 233.402 297.147C226.684 293.819 220.87 289.06 215.961 282.869C211.163 276.658 207.855 268.391 206.035 258.068C203.997 246.511 204.414 235.1 207.287 223.835C210.14 212.457 214.758 201.577 221.141 191.197C227.525 180.816 235.245 171.125 244.301 162.124C253.357 153.123 263.051 145.109 273.38 138.081C283.71 131.054 294.304 125.194 305.161 120.503C316.111 115.68 326.523 112.398 336.397 110.657C352.33 107.848 364.952 108.572 374.264 112.831C383.668 116.957 389.359 124.63 391.338 135.85C392.228 140.899 391.901 145.932 390.356 150.947C388.811 155.963 386.906 160.58 384.641 164.797C382.357 168.901 380.086 172.425 377.829 175.369C375.664 178.18 374.35 179.916 373.888 180.575L372.611 179.239C372.703 179.107 373.525 177.863 375.077 175.507C376.628 173.151 378.193 170.214 379.77 166.697C381.348 163.179 382.699 159.355 383.821 155.223C384.944 151.092 385.159 147.063 384.466 143.136C382.864 134.047 377.918 127.978 369.629 124.928C361.32 121.765 349.985 121.45 335.623 123.982C320.812 126.594 307.318 130.766 295.141 136.5C282.963 142.234 272.059 148.958 262.429 156.672C252.891 164.254 244.633 172.535 237.656 181.517C230.79 190.479 225.199 199.447 220.881 208.422C216.676 217.378 213.751 226.05 212.107 234.438C210.574 242.806 210.382 250.245 211.529 256.752C213.072 265.504 216.19 272.358 220.882 277.316C225.554 282.161 231.236 285.844 237.928 288.366C244.6 290.776 251.919 292.262 259.885 292.824C267.963 293.367 276.17 293.655 284.506 293.689C292.842 293.723 300.963 293.853 308.87 294.078C316.869 294.172 324.135 295.031 330.669 296.655C337.183 298.168 342.677 300.785 347.151 304.508C351.605 308.119 354.456 313.459 355.702 320.528C356.85 327.035 356.783 332.889 355.502 338.09C354.333 343.271 352.428 347.887 349.788 351.939C347.147 355.991 344.005 359.495 340.361 362.451C336.85 365.5 333.249 368.044 329.56 370.083C325.87 372.122 322.392 373.718 319.124 374.873C315.97 376.008 313.438 376.743 311.531 377.079ZM477.477 347.819C475.457 348.175 473.49 348.175 471.576 347.818C469.795 347.554 468.207 347.081 466.815 346.402C465.535 345.702 464.459 344.85 463.588 343.847C462.737 342.956 462.232 342.061 462.074 341.164C461.935 340.378 461.991 339.385 462.242 338.184C462.605 336.963 463.035 335.788 463.53 334.66C464.137 333.511 464.718 332.541 465.273 331.749C465.939 330.938 466.497 330.492 466.946 330.413C467.507 330.314 467.883 330.479 468.074 330.908C468.246 331.225 468.381 331.664 468.48 332.225C468.671 332.654 468.873 333.139 469.084 333.68C469.295 334.222 469.711 334.611 470.331 334.849C471.684 335.304 473.241 335.608 475.004 335.76C476.878 335.893 479.835 335.603 483.874 334.89C489.035 333.98 493.721 332.344 497.932 329.982C502.236 327.488 505.833 324.598 508.725 321.311C511.708 317.893 513.827 314.164 515.082 310.125C516.449 306.066 516.756 301.905 516.004 297.642C514.975 291.807 512.303 287.477 507.987 284.652C503.783 281.807 498.464 279.852 492.029 278.789C485.687 277.593 478.526 277.005 470.547 277.024C462.68 277.023 454.625 276.939 446.381 276.773C438.118 276.494 429.898 275.804 421.721 274.7C413.636 273.465 406.179 271.194 399.348 267.886C392.63 264.559 386.816 259.799 381.907 253.608C377.109 247.397 373.801 239.13 371.98 228.807C369.943 217.251 370.36 205.839 373.233 194.574C376.085 183.196 380.704 172.317 387.087 161.936C393.471 151.555 401.191 141.864 410.247 132.863C419.303 123.862 428.996 115.848 439.326 108.82C449.656 101.793 460.25 95.9336 471.107 91.2426C482.057 86.4196 492.469 83.1376 502.343 81.3965C518.275 78.5872 530.898 79.3117 540.21 83.5699C549.614 87.6962 555.305 95.3694 557.284 106.589C558.174 111.639 557.847 116.671 556.301 121.687C554.756 126.702 552.852 131.319 550.587 135.536C548.303 139.641 546.032 143.165 543.775 146.108C541.61 148.919 540.296 150.655 539.834 151.315L538.557 149.978C538.649 149.846 539.471 148.602 541.023 146.246C542.574 143.89 544.138 140.953 545.716 137.436C547.294 133.918 548.644 130.094 549.767 125.963C550.89 121.831 551.105 117.802 550.412 113.875C548.81 104.787 543.864 98.7172 535.575 95.6669C527.266 92.5044 515.931 92.1893 501.569 94.7217C486.758 97.3332 473.264 101.506 461.086 107.239C448.909 112.973 438.005 119.697 428.374 127.411C418.836 134.993 410.579 143.275 403.601 152.256C396.736 161.218 391.145 170.186 386.827 179.162C382.622 188.117 379.697 196.789 378.052 205.177C376.52 213.546 376.328 220.984 377.475 227.491C379.018 236.243 382.136 243.098 386.828 248.055C391.5 252.9 397.182 256.583 403.874 259.105C410.546 261.515 417.865 263.001 425.831 263.563C433.909 264.106 442.116 264.394 450.452 264.428C458.788 264.462 466.909 264.592 474.815 264.818C482.815 264.911 490.081 265.77 496.615 267.395C503.129 268.907 508.623 271.525 513.097 275.248C517.551 278.858 520.402 284.198 521.648 291.267C522.796 297.774 522.729 303.629 521.448 308.829C520.279 314.01 518.374 318.626 515.733 322.678C513.093 326.73 509.951 330.234 506.307 333.191C502.796 336.239 499.195 338.783 495.505 340.822C491.816 342.861 488.337 344.458 485.07 345.612C481.915 346.747 479.384 347.482 477.477 347.819Z" fill="white"/>
<path d="M139.685 406.339L139.868 405.356L139.85 405.353L139.831 405.35L139.685 406.339ZM134.923 404.923L134.443 405.8L134.464 405.811L134.484 405.822L134.923 404.923ZM131.696 402.368L132.451 401.713L132.436 401.695L132.419 401.678L131.696 402.368ZM130.351 396.705L129.392 396.42L129.38 396.46L129.372 396.501L130.351 396.705ZM131.638 393.181L130.754 392.714L130.737 392.746L130.722 392.779L131.638 393.181ZM133.381 390.271L132.608 389.636L132.584 389.666L132.562 389.697L133.381 390.271ZM136.183 389.43L135.269 389.837L135.285 389.872L135.303 389.906L136.183 389.43ZM136.588 390.747L135.603 390.92L135.625 391.041L135.675 391.154L136.588 390.747ZM138.439 393.37L138.081 394.304L138.101 394.311L138.12 394.318L138.439 393.37ZM143.112 394.282L143.026 395.278L143.034 395.279L143.041 395.279L143.112 394.282ZM166.041 388.503L166.53 389.376L166.542 389.369L166.041 388.503ZM176.833 379.833L177.584 380.493L177.586 380.49L176.833 379.833ZM183.19 368.647L182.242 368.328L182.239 368.339L182.235 368.35L183.19 368.647ZM176.095 343.173L175.535 344.001L175.541 344.006L175.548 344.01L176.095 343.173ZM160.138 337.31L159.952 338.293L159.963 338.295L159.975 338.297L160.138 337.31ZM138.655 335.545L138.655 336.545L138.657 336.545L138.655 335.545ZM114.49 335.294L114.456 336.294L114.469 336.294L114.49 335.294ZM89.8292 333.222L89.6782 334.21L89.6868 334.212L89.6955 334.213L89.8292 333.222ZM67.4565 326.408L67.0126 327.304L67.0206 327.308L67.4565 326.408ZM50.0149 312.129L49.2234 312.741L49.2313 312.751L50.0149 312.129ZM41.3409 253.095L42.3099 253.342L42.3109 253.338L41.3409 253.095ZM139.216 149.764L139.612 150.682L139.619 150.679L139.216 149.764ZM208.318 142.091L207.902 143.001L207.909 143.004L207.916 143.007L208.318 142.091ZM218.696 194.057L219.569 194.544L219.573 194.537L219.577 194.53L218.696 194.057ZM211.883 204.629L212.675 205.24L212.676 205.238L211.883 204.629ZM207.942 209.836L207.219 210.527L208.062 211.409L208.761 210.41L207.942 209.836ZM206.665 208.5L205.846 207.926L205.376 208.598L205.942 209.19L206.665 208.5ZM203.683 154.188L203.327 155.123L203.338 155.127L203.683 154.188ZM96.4827 185.932L97.1049 186.715L97.1078 186.713L96.4827 185.932ZM71.7097 210.778L70.92 210.164L70.9159 210.169L71.7097 210.778ZM54.9356 237.683L54.0344 237.25L54.0304 237.258L54.9356 237.683ZM46.1606 263.699L45.1792 263.506L45.177 263.519L46.1606 263.699ZM54.9359 306.576L54.2096 307.264L54.216 307.27L54.9359 306.576ZM71.9819 317.627L71.6292 318.563L71.6422 318.567L71.9819 317.627ZM93.9392 322.085L93.8688 323.082L93.8723 323.083L93.9392 322.085ZM142.924 323.339L142.895 324.339L142.904 324.339L142.912 324.339L142.924 323.339ZM164.723 325.916L164.482 326.887L164.489 326.889L164.497 326.89L164.723 325.916ZM181.205 333.769L180.565 334.538L180.575 334.546L181.205 333.769ZM189.556 367.351L188.585 367.111L188.583 367.121L188.58 367.131L189.556 367.351ZM174.416 391.712L173.786 390.936L173.773 390.946L173.76 390.957L174.416 391.712ZM153.179 404.134L152.845 403.191L152.84 403.193L153.179 404.134ZM145.411 405.355C143.504 405.692 141.658 405.69 139.868 405.356L139.502 407.322C141.54 407.702 143.627 407.701 145.759 407.325L145.411 405.355ZM139.831 405.35C138.135 405.099 136.649 404.653 135.362 404.024L134.484 405.822C135.983 406.553 137.671 407.052 139.538 407.329L139.831 405.35ZM135.403 404.045C134.216 403.397 133.237 402.618 132.451 401.713L130.941 403.024C131.897 404.125 133.069 405.049 134.443 405.8L135.403 404.045ZM132.419 401.678C131.657 400.88 131.28 400.157 131.167 399.512L129.197 399.859C129.4 401.008 130.032 402.074 130.973 403.059L132.419 401.678ZM131.167 399.512C131.059 398.9 131.092 398.047 131.329 396.91L129.372 396.501C129.107 397.767 129.028 398.899 129.197 399.859L131.167 399.512ZM131.309 396.991C131.661 395.808 132.076 394.672 132.554 393.583L130.722 392.779C130.21 393.947 129.767 395.161 129.392 396.42L131.309 396.991ZM132.522 393.649C133.116 392.526 133.676 391.593 134.2 390.845L132.562 389.697C131.977 390.532 131.375 391.54 130.754 392.714L132.522 393.649ZM134.154 390.906C134.461 390.531 134.718 390.273 134.923 390.11C135.138 389.938 135.236 389.918 135.228 389.919L134.88 387.95C134.423 388.03 134.018 388.273 133.675 388.547C133.323 388.828 132.967 389.199 132.608 389.636L134.154 390.906ZM135.228 389.919C135.304 389.906 135.349 389.906 135.37 389.908C135.389 389.909 135.38 389.911 135.355 389.9C135.343 389.895 135.329 389.887 135.316 389.878C135.302 389.868 135.29 389.858 135.281 389.848C135.263 389.829 135.262 389.82 135.269 389.837L137.096 389.023C136.914 388.616 136.607 388.265 136.159 388.069C135.732 387.881 135.283 387.879 134.88 387.95L135.228 389.919ZM135.303 389.906C135.403 390.09 135.514 390.411 135.603 390.92L137.573 390.573C137.465 389.96 137.305 389.404 137.062 388.954L135.303 389.906ZM135.675 391.154C135.859 391.566 136.054 392.036 136.26 392.565L138.124 391.839C137.908 391.286 137.701 390.786 137.502 390.339L135.675 391.154ZM136.26 392.565C136.589 393.408 137.24 393.982 138.081 394.304L138.797 392.436C138.398 392.284 138.217 392.078 138.124 391.839L136.26 392.565ZM138.12 394.318C139.564 394.804 141.202 395.121 143.026 395.278L143.198 393.285C141.497 393.139 140.02 392.848 138.758 392.423L138.12 394.318ZM143.041 395.279C145.047 395.421 148.108 395.11 152.156 394.397L151.809 392.427C147.778 393.138 144.925 393.407 143.182 393.284L143.041 395.279ZM152.156 394.397C157.418 393.469 162.213 391.797 166.53 389.376L165.551 387.631C161.447 389.934 156.868 391.535 151.809 392.427L152.156 394.397ZM166.542 389.369C170.927 386.827 174.612 383.871 177.584 380.493L176.082 379.172C173.271 382.367 169.762 385.191 165.539 387.638L166.542 389.369ZM177.586 380.49C180.655 376.975 182.846 373.125 184.145 368.943L182.235 368.35C181.025 372.246 178.978 375.854 176.079 379.175L177.586 380.49ZM184.138 368.966C185.559 364.747 185.878 360.416 185.097 355.989L183.128 356.337C183.851 360.437 183.555 364.429 182.242 368.328L184.138 368.966ZM185.097 355.989C184.028 349.927 181.225 345.336 176.643 342.337L175.548 344.01C179.598 346.661 182.139 350.73 183.128 356.337L185.097 355.989ZM176.656 342.345C172.304 339.399 166.839 337.404 160.301 336.324L159.975 338.297C166.306 339.343 171.48 341.257 175.535 344.001L176.656 342.345ZM160.323 336.328C153.906 335.118 146.681 334.526 138.653 334.545L138.657 336.545C146.588 336.527 153.684 337.112 159.952 338.293L160.323 336.328ZM138.655 334.545C130.795 334.544 122.747 334.46 114.51 334.294L114.469 336.294C122.719 336.46 130.781 336.544 138.655 336.545L138.655 334.545ZM114.523 334.295C106.294 334.018 98.1068 333.33 89.9629 332.231L89.6955 334.213C97.9059 335.321 106.159 336.014 114.456 336.294L114.523 334.295ZM89.9803 332.233C81.9867 331.012 74.626 328.768 67.8923 325.507L67.0206 327.308C73.9478 330.662 81.5023 332.961 89.6782 334.21L89.9803 332.233ZM67.9003 325.511C61.3212 322.253 55.6213 317.59 50.7984 311.508L49.2313 312.751C54.2273 319.051 60.1552 323.907 67.0126 327.304L67.9003 325.511ZM50.8063 311.518C46.1355 305.471 42.8746 297.37 41.0735 287.155L39.1039 287.503C40.9431 297.933 44.2997 306.366 49.2234 312.741L50.8063 311.518ZM41.0735 287.155C39.0602 275.737 39.4727 264.469 42.3099 253.342L40.3719 252.848C37.4639 264.253 37.0417 275.807 39.1039 287.503L41.0735 287.155ZM42.3109 253.338C45.1378 242.063 49.715 231.278 56.0472 220.981L54.3435 219.933C47.9086 230.398 43.2494 241.371 40.3709 252.852L42.3109 253.338ZM56.0472 220.981C62.3874 210.671 70.0573 201.042 79.0602 192.094L77.6503 190.675C68.5405 199.729 60.7705 209.482 54.3435 219.933L56.0472 220.981ZM79.0602 192.094C88.0737 183.135 97.7193 175.161 107.997 168.169L106.872 166.515C96.4901 173.578 86.7494 181.632 77.6503 190.675L79.0602 192.094ZM107.997 168.169C118.278 161.175 128.816 155.347 139.612 150.682L138.819 148.846C127.9 153.564 117.251 159.454 106.872 166.515L107.997 168.169ZM139.619 150.679C150.509 145.883 160.843 142.628 170.625 140.903L170.277 138.933C160.311 140.691 149.822 144 138.812 148.849L139.619 150.679ZM170.625 140.903C186.464 138.11 198.853 138.863 207.902 143.001L208.734 141.182C199.159 136.803 186.303 136.107 170.277 138.933L170.625 140.903ZM207.916 143.007C216.977 146.983 222.479 154.351 224.407 165.285L226.377 164.937C224.348 153.43 218.468 145.453 208.72 141.176L207.916 143.007ZM224.407 165.285C225.269 170.174 224.954 175.046 223.454 179.914L225.365 180.503C226.956 175.339 227.295 170.146 226.377 164.937L224.407 165.285ZM223.454 179.914C221.926 184.874 220.046 189.429 217.815 193.584L219.577 194.53C221.874 190.251 223.803 185.574 225.365 180.503L223.454 179.914ZM217.822 193.571C215.555 197.644 213.311 201.125 211.09 204.021L212.676 205.238C214.97 202.247 217.267 198.68 219.569 194.544L217.822 193.571ZM211.091 204.019C208.932 206.823 207.601 208.58 207.123 209.263L208.761 210.41C209.207 209.773 210.504 208.059 212.675 205.24L211.091 204.019ZM208.665 209.145L207.388 207.809L205.942 209.19L207.219 210.527L208.665 209.145ZM207.484 209.073C207.588 208.926 208.423 207.661 209.966 205.318L208.296 204.218C207.52 205.396 206.927 206.295 206.517 206.916C206.311 207.227 206.152 207.468 206.038 207.639C205.982 207.724 205.937 207.792 205.903 207.841C205.887 207.866 205.873 207.886 205.863 207.901C205.858 207.908 205.854 207.914 205.851 207.919C205.849 207.921 205.848 207.923 205.847 207.924C205.847 207.925 205.847 207.925 205.846 207.926C205.846 207.926 205.846 207.926 205.846 207.926L207.484 209.073ZM209.966 205.318C211.555 202.904 213.145 199.917 214.737 196.367L212.912 195.548C211.349 199.033 209.809 201.919 208.296 204.218L209.966 205.318ZM214.737 196.367C216.338 192.797 217.705 188.922 218.84 184.746L216.91 184.222C215.8 188.308 214.466 192.083 212.912 195.548L214.737 196.367ZM218.84 184.746C219.998 180.483 220.225 176.305 219.505 172.223L217.536 172.57C218.201 176.342 217.997 180.222 216.91 184.222L218.84 184.746ZM219.505 172.223C217.844 162.803 212.67 156.43 204.028 153.25L203.338 155.127C211.275 158.048 215.991 163.813 217.536 172.57L219.505 172.223ZM204.039 153.254C195.485 149.998 183.941 149.713 169.503 152.258L169.851 154.228C184.137 151.709 195.263 152.054 203.327 155.123L204.039 153.254ZM169.503 152.258C154.616 154.883 141.035 159.081 128.769 164.856L129.621 166.666C141.709 160.974 155.117 156.826 169.851 154.228L169.503 152.258ZM128.769 164.856C116.526 170.62 105.554 177.385 95.8575 185.152L97.1078 186.713C106.672 179.052 117.508 172.369 129.621 166.666L128.769 164.856ZM95.8604 185.149C86.2645 192.778 77.9496 201.115 70.92 210.164L72.4994 211.391C79.4246 202.477 87.6249 194.251 97.1049 186.715L95.8604 185.149ZM70.9159 210.169C64.0145 219.178 58.3853 228.205 54.0344 237.25L55.8367 238.117C60.121 229.211 65.6746 220.3 72.5035 211.386L70.9159 210.169ZM54.0304 237.258C49.7955 246.276 46.8419 255.026 45.1793 263.506L47.142 263.891C48.7685 255.595 51.6648 247.001 55.8407 238.108L54.0304 237.258ZM45.177 263.519C43.6291 271.972 43.4254 279.534 44.5985 286.187L46.5681 285.839C45.4463 279.477 45.6275 272.162 47.1443 263.879L45.177 263.519ZM44.5985 286.187C46.1656 295.074 49.3479 302.127 54.2096 307.264L55.6621 305.889C51.1401 301.111 48.0874 294.456 46.5681 285.839L44.5985 286.187ZM54.216 307.27C58.9974 312.229 64.8074 315.992 71.6293 318.563L72.3346 316.691C65.7725 314.218 60.2184 310.614 55.6557 305.882L54.216 307.27ZM71.6422 318.567C78.4112 321.012 85.8222 322.515 93.8688 323.082L94.0096 321.087C86.1242 320.531 78.897 319.061 72.3216 316.686L71.6422 318.567ZM93.8723 323.083C101.972 323.626 110.2 323.915 118.556 323.95L118.564 321.95C110.249 321.916 102.063 321.628 94.0062 321.087L93.8723 323.083ZM118.556 323.95C126.884 323.984 134.997 324.114 142.895 324.339L142.952 322.34C135.037 322.114 126.908 321.984 118.564 321.95L118.556 323.95ZM142.912 324.339C150.848 324.432 158.035 325.284 164.482 326.887L164.964 324.946C158.343 323.299 150.998 322.433 142.935 322.339L142.912 324.339ZM164.497 326.89C170.881 328.373 176.228 330.928 180.565 334.538L181.845 333C177.234 329.164 171.592 326.484 164.949 324.942L164.497 326.89ZM180.575 334.546C184.799 337.97 187.556 343.069 188.772 349.962L190.741 349.615C189.464 342.37 186.52 336.79 181.835 332.992L180.575 334.546ZM188.772 349.962C189.9 356.364 189.826 362.074 188.585 367.111L190.527 367.59C191.848 362.226 191.907 356.228 190.741 349.615L188.772 349.962ZM188.58 367.131C187.435 372.207 185.573 376.711 183.004 380.654L184.68 381.746C187.391 377.585 189.339 372.856 190.531 367.571L188.58 367.131ZM183.004 380.654C180.418 384.621 177.346 388.047 173.786 390.936L175.046 392.489C178.772 389.465 181.984 385.882 184.68 381.746L183.004 380.654ZM173.76 390.957C170.296 393.964 166.752 396.466 163.13 398.468L164.097 400.219C167.854 398.143 171.512 395.557 175.071 392.467L173.76 390.957ZM163.13 398.468C159.479 400.486 156.051 402.058 152.845 403.191L153.512 405.076C156.841 403.9 160.369 402.279 164.097 400.219L163.13 398.468ZM152.84 403.193C149.706 404.32 147.237 405.034 145.411 405.355L145.759 407.325C147.748 406.974 150.341 406.217 153.517 405.075L152.84 403.193ZM305.631 377.079L305.814 376.096L305.796 376.092L305.777 376.089L305.631 377.079ZM300.869 375.662L300.389 376.54L300.41 376.551L300.43 376.561L300.869 375.662ZM297.642 373.108L298.397 372.452L298.381 372.434L298.365 372.417L297.642 373.108ZM296.296 367.445L295.338 367.16L295.326 367.199L295.318 367.24L296.296 367.445ZM297.584 363.921L296.7 363.453L296.683 363.485L296.668 363.519L297.584 363.921ZM299.327 361.01L298.554 360.375L298.53 360.405L298.507 360.437L299.327 361.01ZM302.128 360.169L301.215 360.576L301.231 360.611L301.249 360.645L302.128 360.169ZM302.534 361.486L301.549 361.659L301.571 361.781L301.621 361.893L302.534 361.486ZM304.385 364.11L304.027 365.043L304.046 365.051L304.066 365.057L304.385 364.11ZM309.058 365.021L308.972 366.017L308.979 366.018L308.987 366.019L309.058 365.021ZM331.987 359.243L332.476 360.115L332.488 360.108L331.987 359.243ZM342.779 350.572L343.529 351.232L343.532 351.229L342.779 350.572ZM349.136 339.386L348.188 339.067L348.184 339.078L348.181 339.089L349.136 339.386ZM342.041 313.913L341.481 314.741L341.487 314.745L341.494 314.749L342.041 313.913ZM326.083 308.05L325.898 309.032L325.909 309.034L325.92 309.036L326.083 308.05ZM304.601 306.284L304.601 307.284L304.603 307.284L304.601 306.284ZM280.435 306.034L280.402 307.033L280.415 307.033L280.435 306.034ZM255.775 303.961L255.624 304.95L255.633 304.951L255.641 304.952L255.775 303.961ZM233.402 297.147L232.958 298.043L232.967 298.047L233.402 297.147ZM215.961 282.869L215.169 283.48L215.177 283.49L215.961 282.869ZM207.287 223.835L208.256 224.082L208.257 224.078L207.287 223.835ZM305.161 120.503L305.558 121.421L305.565 121.418L305.161 120.503ZM374.264 112.831L373.848 113.74L373.855 113.743L373.862 113.746L374.264 112.831ZM384.641 164.797L385.515 165.283L385.519 165.276L385.522 165.27L384.641 164.797ZM377.829 175.369L378.621 175.979L378.622 175.977L377.829 175.369ZM373.888 180.575L373.165 181.266L374.007 182.148L374.707 181.149L373.888 180.575ZM372.611 179.239L371.792 178.665L371.322 179.337L371.888 179.93L372.611 179.239ZM369.629 124.928L369.273 125.862L369.284 125.866L369.629 124.928ZM262.429 156.672L263.051 157.454L263.054 157.452L262.429 156.672ZM237.656 181.517L236.866 180.903L236.862 180.909L237.656 181.517ZM220.881 208.422L219.98 207.989L219.976 207.997L220.881 208.422ZM212.107 234.438L211.125 234.246L211.123 234.258L212.107 234.438ZM220.882 277.316L220.155 278.003L220.162 278.01L220.882 277.316ZM237.928 288.366L237.575 289.302L237.588 289.307L237.928 288.366ZM259.885 292.824L259.815 293.822L259.818 293.822L259.885 292.824ZM308.87 294.078L308.841 295.078L308.849 295.078L308.858 295.078L308.87 294.078ZM330.669 296.655L330.427 297.626L330.435 297.628L330.443 297.63L330.669 296.655ZM347.151 304.508L346.511 305.277L346.521 305.285L347.151 304.508ZM355.502 338.09L354.531 337.851L354.528 337.86L354.526 337.87L355.502 338.09ZM340.361 362.451L339.731 361.675L339.718 361.685L339.706 361.696L340.361 362.451ZM319.124 374.873L318.791 373.93L318.786 373.932L319.124 374.873ZM311.357 376.095C309.449 376.431 307.604 376.429 305.814 376.096L305.447 378.062C307.485 378.441 309.573 378.44 311.705 378.064L311.357 376.095ZM305.777 376.089C304.081 375.838 302.595 375.392 301.308 374.764L300.43 376.561C301.928 377.292 303.617 377.791 305.484 378.068L305.777 376.089ZM301.349 374.785C300.162 374.136 299.183 373.357 298.397 372.452L296.887 373.763C297.843 374.865 299.015 375.789 300.389 376.54L301.349 374.785ZM298.365 372.417C297.603 371.619 297.226 370.897 297.112 370.251L295.143 370.598C295.346 371.748 295.978 372.814 296.919 373.798L298.365 372.417ZM297.112 370.251C297.005 369.64 297.038 368.786 297.275 367.649L295.318 367.24C295.053 368.506 294.974 369.639 295.143 370.598L297.112 370.251ZM297.255 367.73C297.607 366.547 298.022 365.412 298.5 364.322L296.668 363.519C296.156 364.686 295.712 365.9 295.338 367.16L297.255 367.73ZM298.468 364.388C299.062 363.265 299.622 362.332 300.146 361.584L298.507 360.437C297.923 361.272 297.32 362.28 296.7 363.453L298.468 364.388ZM300.099 361.645C300.407 361.27 300.664 361.013 300.869 360.849C301.084 360.677 301.182 360.657 301.174 360.659L300.826 358.689C300.369 358.77 299.964 359.012 299.621 359.286C299.269 359.567 298.913 359.938 298.554 360.375L300.099 361.645ZM301.174 360.659C301.25 360.645 301.295 360.645 301.316 360.647C301.335 360.648 301.326 360.65 301.301 360.639C301.289 360.634 301.275 360.627 301.262 360.617C301.248 360.607 301.236 360.597 301.227 360.588C301.208 360.568 301.207 360.559 301.215 360.576L303.042 359.762C302.86 359.355 302.553 359.005 302.105 358.808C301.678 358.621 301.229 358.618 300.826 358.689L301.174 360.659ZM301.249 360.645C301.349 360.829 301.46 361.15 301.549 361.659L303.519 361.312C303.411 360.699 303.251 360.143 303.008 359.693L301.249 360.645ZM301.621 361.893C301.804 362.305 302 362.775 302.206 363.305L304.069 362.578C303.854 362.025 303.647 361.525 303.447 361.079L301.621 361.893ZM302.206 363.305C302.535 364.147 303.185 364.721 304.027 365.043L304.743 363.176C304.344 363.023 304.163 362.818 304.069 362.578L302.206 363.305ZM304.066 365.057C305.51 365.543 307.148 365.86 308.972 366.017L309.144 364.025C307.443 363.878 305.966 363.587 304.704 363.162L304.066 365.057ZM308.987 366.019C310.993 366.16 314.054 365.85 318.102 365.136L317.754 363.166C313.724 363.877 310.871 364.146 309.128 364.023L308.987 366.019ZM318.102 365.136C323.364 364.208 328.159 362.537 332.476 360.115L331.497 358.371C327.392 360.673 322.814 362.274 317.754 363.166L318.102 365.136ZM332.488 360.108C336.873 357.567 340.558 354.61 343.529 351.232L342.028 349.911C339.217 353.106 335.708 355.93 331.485 358.377L332.488 360.108ZM343.532 351.229C346.601 347.714 348.792 343.864 350.091 339.683L348.181 339.089C346.971 342.986 344.924 346.593 342.025 349.914L343.532 351.229ZM350.084 339.705C351.504 335.486 351.824 331.155 351.043 326.729L349.074 327.076C349.797 331.177 349.501 335.168 348.188 339.067L350.084 339.705ZM351.043 326.729C349.974 320.667 347.171 316.075 342.589 313.076L341.494 314.749C345.543 317.4 348.085 321.469 349.074 327.076L351.043 326.729ZM342.602 313.084C338.25 310.139 332.785 308.144 326.247 307.063L325.92 309.036C332.252 310.083 337.425 311.996 341.481 314.741L342.602 313.084ZM326.269 307.067C319.852 305.857 312.627 305.266 304.599 305.284L304.603 307.284C312.534 307.266 319.63 307.851 325.898 309.032L326.269 307.067ZM304.601 305.284C296.741 305.283 288.692 305.2 280.456 305.034L280.415 307.033C288.665 307.2 296.727 307.283 304.601 307.284L304.601 305.284ZM280.469 305.034C272.239 304.757 264.053 304.069 255.909 302.97L255.641 304.952C263.852 306.06 272.105 306.753 280.402 307.033L280.469 305.034ZM255.926 302.972C247.933 301.751 240.572 299.507 233.838 296.247L232.967 298.047C239.894 301.401 247.448 303.7 255.624 304.95L255.926 302.972ZM233.846 296.251C227.267 292.992 221.567 288.33 216.744 282.247L215.177 283.49C220.173 289.791 226.101 294.647 232.959 298.043L233.846 296.251ZM216.752 282.257C212.081 276.21 208.82 268.109 207.019 257.895L205.05 258.242C206.889 268.672 210.246 277.105 215.169 283.48L216.752 282.257ZM207.019 257.895C205.006 246.476 205.419 235.208 208.256 224.082L206.318 223.587C203.41 234.992 202.988 246.547 205.05 258.242L207.019 257.895ZM208.257 224.078C211.084 212.803 215.661 202.018 221.993 191.72L220.289 190.673C213.854 201.137 209.195 212.111 206.317 223.591L208.257 224.078ZM221.993 191.72C228.333 181.41 236.003 171.781 245.006 162.833L243.596 161.415C234.486 170.469 226.716 180.221 220.289 190.673L221.993 191.72ZM245.006 162.833C254.02 153.875 263.665 145.9 273.943 138.908L272.818 137.254C262.436 144.317 252.695 152.371 243.596 161.415L245.006 162.833ZM273.943 138.908C284.223 131.914 294.762 126.086 305.558 121.421L304.765 119.585C293.846 124.303 283.197 130.193 272.818 137.254L273.943 138.908ZM305.565 121.418C316.455 116.622 326.789 113.367 336.571 111.642L336.223 109.672C326.257 111.43 315.768 114.739 304.758 119.588L305.565 121.418ZM336.571 111.642C352.41 108.849 364.799 109.602 373.848 113.74L374.68 111.921C365.105 107.543 352.249 106.847 336.223 109.672L336.571 111.642ZM373.862 113.746C382.923 117.722 388.425 125.091 390.353 136.024L392.323 135.677C390.294 124.17 384.413 116.192 374.665 111.915L373.862 113.746ZM390.353 136.024C391.215 140.913 390.899 145.785 389.4 150.653L391.311 151.242C392.902 146.078 393.241 140.886 392.323 135.677L390.353 136.024ZM389.4 150.653C387.872 155.613 385.991 160.169 383.76 164.323L385.522 165.27C387.82 160.99 389.749 156.314 391.311 151.242L389.4 150.653ZM383.768 164.31C381.501 168.383 379.257 171.864 377.035 174.76L378.622 175.977C380.916 172.987 383.213 169.42 385.515 165.283L383.768 164.31ZM377.037 174.758C374.877 177.562 373.547 179.319 373.069 180.002L374.707 181.149C375.153 180.512 376.45 178.798 378.621 175.979L377.037 174.758ZM374.611 179.885L373.334 178.548L371.888 179.93L373.165 181.266L374.611 179.885ZM373.43 179.812C373.533 179.665 374.369 178.4 375.912 176.057L374.241 174.957C373.466 176.135 372.873 177.034 372.462 177.656C372.257 177.966 372.098 178.207 371.984 178.378C371.927 178.463 371.883 178.531 371.849 178.58C371.833 178.605 371.819 178.625 371.809 178.64C371.804 178.648 371.8 178.654 371.797 178.658C371.795 178.66 371.794 178.662 371.793 178.663C371.793 178.664 371.792 178.664 371.792 178.665C371.792 178.665 371.792 178.665 371.792 178.665L373.43 179.812ZM375.912 176.057C377.501 173.643 379.09 170.656 380.683 167.106L378.858 166.287C377.295 169.772 375.755 172.659 374.241 174.957L375.912 176.057ZM380.683 167.106C382.284 163.536 383.651 159.662 384.786 155.485L382.856 154.961C381.746 159.048 380.412 162.822 378.858 166.287L380.683 167.106ZM384.786 155.485C385.944 151.223 386.171 147.044 385.451 142.962L383.481 143.309C384.146 147.081 383.943 150.961 382.856 154.961L384.786 155.485ZM385.451 142.962C383.79 133.542 378.615 127.169 369.974 123.989L369.284 125.866C377.22 128.787 381.937 134.552 383.481 143.309L385.451 142.962ZM369.985 123.993C361.431 120.737 349.887 120.452 335.449 122.998L335.797 124.967C350.082 122.448 361.209 122.793 369.273 125.862L369.985 123.993ZM335.449 122.998C320.561 125.623 306.981 129.82 294.715 135.595L295.567 137.405C307.655 131.713 321.063 127.565 335.797 124.967L335.449 122.998ZM294.715 135.595C282.472 141.359 271.5 148.124 261.803 155.891L263.054 157.452C272.618 149.791 283.454 143.108 295.567 137.405L294.715 135.595ZM261.806 155.889C252.21 163.517 243.895 171.855 236.866 180.903L238.445 182.13C245.37 173.216 253.571 164.99 263.051 157.454L261.806 155.889ZM236.862 180.909C229.96 189.918 224.331 198.944 219.98 207.989L221.783 208.856C226.067 199.95 231.62 191.039 238.449 182.125L236.862 180.909ZM219.976 207.997C215.741 217.016 212.788 225.766 211.125 234.246L213.088 234.63C214.714 226.334 217.611 217.74 221.787 208.847L219.976 207.997ZM211.123 234.258C209.575 242.711 209.371 250.273 210.544 256.926L212.514 256.579C211.392 250.216 211.573 242.902 213.09 234.618L211.123 234.258ZM210.544 256.926C212.111 265.813 215.294 272.866 220.155 278.003L221.608 276.628C217.086 271.85 214.033 265.195 212.514 256.579L210.544 256.926ZM220.162 278.01C224.943 282.968 230.753 286.731 237.575 289.302L238.28 287.43C231.718 284.957 226.164 281.353 221.602 276.621L220.162 278.01ZM237.588 289.307C244.357 291.752 251.768 293.254 259.815 293.822L259.955 291.827C252.07 291.27 244.843 289.801 238.267 287.426L237.588 289.307ZM259.818 293.822C267.918 294.366 276.146 294.655 284.502 294.689L284.51 292.689C276.195 292.655 268.009 292.367 259.952 291.826L259.818 293.822ZM284.502 294.689C292.83 294.723 300.943 294.853 308.841 295.078L308.898 293.079C300.983 292.853 292.853 292.723 284.51 292.689L284.502 294.689ZM308.858 295.078C316.794 295.171 323.981 296.023 330.427 297.626L330.91 295.685C324.289 294.039 316.944 293.173 308.881 293.079L308.858 295.078ZM330.443 297.63C336.827 299.112 342.174 301.668 346.511 305.277L347.791 303.74C343.18 299.903 337.538 297.224 330.895 295.681L330.443 297.63ZM346.521 305.285C350.745 308.709 353.502 313.808 354.717 320.701L356.687 320.354C355.41 313.11 352.466 307.529 347.781 303.732L346.521 305.285ZM354.717 320.701C355.846 327.103 355.772 332.813 354.531 337.851L356.473 338.329C357.794 332.966 357.853 326.967 356.687 320.354L354.717 320.701ZM354.526 337.87C353.381 342.946 351.519 347.45 348.95 351.393L350.625 352.485C353.337 348.324 355.285 343.595 356.477 338.31L354.526 337.87ZM348.95 351.393C346.364 355.361 343.292 358.786 339.731 361.675L340.991 363.228C344.718 360.204 347.93 356.621 350.625 352.485L348.95 351.393ZM339.706 361.696C336.242 364.704 332.698 367.206 329.076 369.207L330.043 370.958C333.8 368.882 337.458 366.297 341.017 363.207L339.706 361.696ZM329.076 369.207C325.425 371.225 321.997 372.797 318.791 373.93L319.458 375.816C322.786 374.639 326.315 373.018 330.043 370.958L329.076 369.207ZM318.786 373.932C315.652 375.059 313.183 375.773 311.357 376.095L311.705 378.064C313.694 377.713 316.287 376.956 319.463 375.814L318.786 373.932ZM471.576 347.818L471.76 346.835L471.741 346.831L471.723 346.829L471.576 347.818ZM466.815 346.402L466.335 347.279L466.355 347.29L466.376 347.3L466.815 346.402ZM463.588 343.847L464.343 343.191L464.327 343.173L464.311 343.156L463.588 343.847ZM462.242 338.184L461.284 337.899L461.272 337.939L461.263 337.979L462.242 338.184ZM463.53 334.66L462.646 334.192L462.629 334.225L462.614 334.258L463.53 334.66ZM465.273 331.749L464.5 331.115L464.475 331.144L464.453 331.176L465.273 331.749ZM468.074 330.908L467.161 331.316L467.177 331.351L467.195 331.385L468.074 330.908ZM468.48 332.225L467.495 332.399L467.517 332.52L467.567 332.632L468.48 332.225ZM470.331 334.849L469.973 335.783L469.992 335.79L470.012 335.797L470.331 334.849ZM475.004 335.76L474.918 336.757L474.925 336.757L474.933 336.758L475.004 335.76ZM497.932 329.982L498.422 330.854L498.434 330.847L497.932 329.982ZM508.725 321.311L509.475 321.972L509.478 321.969L508.725 321.311ZM515.082 310.125L514.134 309.806L514.13 309.817L514.127 309.829L515.082 310.125ZM507.987 284.652L507.427 285.48L507.433 285.484L507.439 285.488L507.987 284.652ZM492.029 278.789L491.844 279.772L491.855 279.774L491.866 279.775L492.029 278.789ZM470.547 277.024L470.547 278.024L470.549 278.024L470.547 277.024ZM446.381 276.773L446.348 277.772L446.361 277.773L446.381 276.773ZM421.721 274.7L421.57 275.689L421.579 275.69L421.587 275.691L421.721 274.7ZM399.348 267.886L398.904 268.782L398.912 268.786L399.348 267.886ZM381.907 253.608L381.115 254.219L381.123 254.229L381.907 253.608ZM373.233 194.574L374.202 194.821L374.203 194.817L373.233 194.574ZM471.107 91.2426L471.504 92.1606L471.51 92.1577L471.107 91.2426ZM540.21 83.5699L539.794 84.4793L539.801 84.4825L539.808 84.4856L540.21 83.5699ZM550.587 135.536L551.461 136.022L551.465 136.015L551.468 136.009L550.587 135.536ZM543.775 146.108L544.567 146.718L544.568 146.717L543.775 146.108ZM539.834 151.315L539.111 152.005L539.953 152.888L540.653 151.888L539.834 151.315ZM538.557 149.978L537.738 149.404L537.268 150.076L537.834 150.669L538.557 149.978ZM535.575 95.6669L535.219 96.6016L535.229 96.6054L535.575 95.6669ZM428.374 127.411L428.997 128.194L429 128.191L428.374 127.411ZM403.601 152.256L402.812 151.643L402.808 151.648L403.601 152.256ZM386.827 179.162L385.926 178.728L385.922 178.737L386.827 179.162ZM378.052 205.177L377.071 204.985L377.069 204.997L378.052 205.177ZM386.828 248.055L386.101 248.742L386.108 248.749L386.828 248.055ZM403.874 259.105L403.521 260.041L403.534 260.046L403.874 259.105ZM425.831 263.563L425.761 264.561L425.764 264.561L425.831 263.563ZM474.815 264.818L474.787 265.817L474.795 265.818L474.804 265.818L474.815 264.818ZM496.615 267.395L496.373 268.365L496.381 268.367L496.388 268.369L496.615 267.395ZM513.097 275.248L512.457 276.016L512.467 276.024L513.097 275.248ZM521.448 308.829L520.477 308.59L520.474 308.6L520.472 308.609L521.448 308.829ZM506.307 333.191L505.677 332.414L505.664 332.425L505.652 332.436L506.307 333.191ZM485.07 345.612L484.737 344.669L484.732 344.671L485.07 345.612ZM477.303 346.834C475.395 347.17 473.55 347.168 471.76 346.835L471.393 348.801C473.431 349.181 475.519 349.179 477.65 348.803L477.303 346.834ZM471.723 346.829C470.027 346.577 468.54 346.131 467.254 345.503L466.376 347.3C467.874 348.032 469.563 348.53 471.43 348.807L471.723 346.829ZM467.294 345.524C466.108 344.876 465.129 344.096 464.343 343.191L462.833 344.502C463.789 345.604 464.961 346.528 466.335 347.279L467.294 345.524ZM464.311 343.156C463.549 342.359 463.172 341.636 463.058 340.99L461.089 341.337C461.291 342.487 461.924 343.553 462.865 344.538L464.311 343.156ZM463.058 340.99C462.951 340.379 462.984 339.525 463.221 338.388L461.263 337.979C460.999 339.245 460.92 340.378 461.089 341.337L463.058 340.99ZM463.201 338.469C463.552 337.287 463.968 336.151 464.445 335.062L462.614 334.258C462.102 335.426 461.658 336.64 461.284 337.899L463.201 338.469ZM464.414 335.127C465.008 334.004 465.567 333.072 466.092 332.323L464.453 331.176C463.869 332.011 463.266 333.019 462.646 334.192L464.414 335.127ZM466.045 332.384C466.353 332.01 466.61 331.752 466.815 331.588C467.03 331.416 467.128 331.397 467.119 331.398L466.772 329.428C466.315 329.509 465.909 329.752 465.567 330.025C465.214 330.307 464.859 330.678 464.5 331.115L466.045 332.384ZM467.119 331.398C467.196 331.385 467.241 331.385 467.261 331.386C467.28 331.387 467.272 331.389 467.247 331.379C467.235 331.373 467.221 331.366 467.207 331.356C467.194 331.347 467.182 331.336 467.173 331.327C467.154 331.307 467.153 331.298 467.161 331.316L468.988 330.501C468.806 330.094 468.499 329.744 468.05 329.547C467.624 329.36 467.174 329.357 466.772 329.428L467.119 331.398ZM467.195 331.385C467.294 331.568 467.405 331.89 467.495 332.399L469.465 332.051C469.357 331.439 469.197 330.882 468.954 330.432L467.195 331.385ZM467.567 332.632C467.75 333.044 467.945 333.514 468.152 334.044L470.015 333.317C469.8 332.764 469.592 332.264 469.393 331.818L467.567 332.632ZM468.152 334.044C468.481 334.886 469.131 335.46 469.973 335.783L470.689 333.915C470.29 333.762 470.109 333.557 470.015 333.317L468.152 334.044ZM470.012 335.797C471.456 336.283 473.094 336.599 474.918 336.757L475.089 334.764C473.389 334.617 471.912 334.326 470.65 333.901L470.012 335.797ZM474.933 336.758C476.939 336.899 480 336.589 484.048 335.875L483.7 333.906C479.67 334.616 476.817 334.886 475.074 334.763L474.933 336.758ZM484.048 335.875C489.31 334.947 494.104 333.276 498.422 330.854L497.443 329.11C493.338 331.412 488.76 333.013 483.7 333.906L484.048 335.875ZM498.434 330.847C502.818 328.306 506.504 325.35 509.475 321.972L507.974 320.651C505.163 323.845 501.653 326.67 497.431 329.117L498.434 330.847ZM509.478 321.969C512.546 318.453 514.738 314.603 516.037 310.422L514.127 309.829C512.917 313.725 510.87 317.332 507.971 320.654L509.478 321.969ZM516.03 310.444C517.45 306.225 517.77 301.894 516.989 297.468L515.019 297.815C515.743 301.916 515.447 305.908 514.134 309.806L516.03 310.444ZM516.989 297.468C515.92 291.406 513.117 286.815 508.535 283.815L507.439 285.488C511.489 288.14 514.031 292.208 515.019 297.815L516.989 297.468ZM508.548 283.824C504.195 280.878 498.731 278.883 492.192 277.802L491.866 279.775C498.198 280.822 503.371 282.735 507.427 285.48L508.548 283.824ZM492.215 277.806C485.798 276.597 478.573 276.005 470.545 276.024L470.549 278.024C478.48 278.005 485.576 278.59 491.844 279.772L492.215 277.806ZM470.547 276.024C462.687 276.023 454.638 275.939 446.401 275.773L446.361 277.773C454.611 277.939 462.673 278.023 470.547 278.024L470.547 276.024ZM446.415 275.773C438.185 275.496 429.999 274.808 421.855 273.709L421.587 275.691C429.798 276.799 438.051 277.493 446.348 277.772L446.415 275.773ZM421.872 273.712C413.878 272.49 406.518 270.247 399.784 266.986L398.912 268.786C405.84 272.14 413.394 274.44 421.57 275.689L421.872 273.712ZM399.792 266.99C393.213 263.732 387.513 259.069 382.69 252.987L381.123 254.229C386.119 260.53 392.047 265.386 398.904 268.782L399.792 266.99ZM382.698 252.997C378.027 246.949 374.766 238.848 372.965 228.634L370.996 228.981C372.835 239.412 376.191 247.844 381.115 254.219L382.698 252.997ZM372.965 228.634C370.952 217.215 371.364 205.948 374.202 194.821L372.264 194.327C369.356 205.731 368.933 217.286 370.996 228.981L372.965 228.634ZM374.203 194.817C377.03 183.542 381.607 172.757 387.939 162.46L386.235 161.412C379.8 171.876 375.141 182.85 372.263 194.331L374.203 194.817ZM387.939 162.46C394.279 152.149 401.949 142.52 410.952 133.572L409.542 132.154C400.432 141.208 392.662 150.961 386.235 161.412L387.939 162.46ZM410.952 133.572C419.965 124.614 429.611 116.639 439.889 109.647L438.764 107.994C428.382 115.056 418.641 123.11 409.542 132.154L410.952 133.572ZM439.889 109.647C450.169 102.653 460.708 96.8252 471.504 92.1606L470.711 90.3246C459.792 95.0421 449.143 100.932 438.764 107.994L439.889 109.647ZM471.51 92.1577C482.401 87.361 492.735 84.1061 502.516 82.3814L502.169 80.4117C492.203 82.169 481.714 85.4781 470.704 90.3274L471.51 92.1577ZM502.516 82.3814C518.356 79.5884 530.745 80.3413 539.794 84.4793L540.625 82.6605C531.051 78.282 518.195 77.586 502.169 80.4117L502.516 82.3814ZM539.808 84.4856C548.868 88.4611 554.371 95.8299 556.299 106.763L558.268 106.416C556.239 94.9088 550.359 86.9312 540.611 82.6542L539.808 84.4856ZM556.299 106.763C557.161 111.652 556.845 116.524 555.346 121.392L557.257 121.981C558.848 116.818 559.187 111.625 558.268 106.416L556.299 106.763ZM555.346 121.392C553.818 126.352 551.937 130.908 549.706 135.063L551.468 136.009C553.766 131.73 555.695 127.053 557.257 121.981L555.346 121.392ZM549.713 135.05C547.447 139.122 545.202 142.603 542.981 145.499L544.568 146.717C546.862 143.726 549.159 140.159 551.461 136.022L549.713 135.05ZM542.982 145.498C540.823 148.301 539.493 150.058 539.015 150.741L540.653 151.888C541.099 151.251 542.396 149.537 544.567 146.718L542.982 145.498ZM540.557 150.624L539.28 149.287L537.834 150.669L539.111 152.005L540.557 150.624ZM539.376 150.552C539.479 150.404 540.315 149.139 541.858 146.796L540.187 145.696C539.412 146.874 538.819 147.774 538.408 148.395C538.203 148.706 538.044 148.946 537.93 149.117C537.873 149.203 537.828 149.27 537.795 149.32C537.778 149.345 537.765 149.364 537.755 149.379C537.75 149.387 537.746 149.393 537.743 149.397C537.741 149.4 537.74 149.401 537.739 149.403C537.739 149.403 537.738 149.404 537.738 149.404C537.738 149.404 537.738 149.405 537.738 149.404L539.376 150.552ZM541.858 146.796C543.447 144.383 545.036 141.395 546.629 137.845L544.804 137.027C543.241 140.512 541.701 143.398 540.187 145.696L541.858 146.796ZM546.629 137.845C548.23 134.275 549.597 130.401 550.732 126.225L548.802 125.7C547.692 129.787 546.358 133.562 544.804 137.027L546.629 137.845ZM550.732 126.225C551.89 121.962 552.117 117.784 551.397 113.701L549.427 114.049C550.092 117.82 549.889 121.7 548.802 125.7L550.732 126.225ZM551.397 113.701C549.736 104.282 544.561 97.9083 535.92 94.7284L535.229 96.6054C543.166 99.5261 547.883 105.291 549.427 114.049L551.397 113.701ZM535.93 94.7323C527.377 91.4767 515.833 91.1911 501.395 93.7369L501.742 95.7065C516.028 93.1875 527.155 93.532 535.219 96.6015L535.93 94.7323ZM501.395 93.7369C486.507 96.362 472.927 100.559 460.66 106.335L461.512 108.144C473.601 102.452 487.009 98.3044 501.742 95.7065L501.395 93.7369ZM460.66 106.335C448.418 112.099 437.446 118.863 427.749 126.63L429 128.191C438.563 120.531 449.399 113.847 461.512 108.144L460.66 106.335ZM427.752 126.628C418.156 134.256 409.841 142.594 402.812 151.643L404.391 152.87C411.316 143.955 419.517 135.73 428.997 128.194L427.752 126.628ZM402.808 151.648C395.906 160.657 390.277 169.684 385.926 178.728L387.728 179.595C392.013 170.689 397.566 161.779 404.395 152.864L402.808 151.648ZM385.922 178.737C381.687 187.755 378.734 196.505 377.071 204.985L379.034 205.37C380.66 197.073 383.557 188.479 387.732 179.587L385.922 178.737ZM377.069 204.997C375.521 213.451 375.317 221.012 376.49 227.665L378.46 227.318C377.338 220.955 377.519 213.641 379.036 205.357L377.069 204.997ZM376.49 227.665C378.057 236.552 381.24 243.606 386.101 248.742L387.554 247.367C383.032 242.59 379.979 235.934 378.46 227.318L376.49 227.665ZM386.108 248.749C390.889 253.707 396.699 257.47 403.521 260.041L404.226 258.17C397.664 255.697 392.11 252.092 387.547 247.361L386.108 248.749ZM403.534 260.046C410.303 262.491 417.714 263.993 425.761 264.561L425.901 262.566C418.016 262.01 410.789 260.54 404.213 258.165L403.534 260.046ZM425.764 264.561C433.864 265.105 442.092 265.394 450.448 265.428L450.456 263.428C442.141 263.394 433.955 263.107 425.898 262.566L425.764 264.561ZM450.448 265.428C458.776 265.462 466.889 265.592 474.787 265.817L474.844 263.818C466.929 263.592 458.799 263.462 450.456 263.428L450.448 265.428ZM474.804 265.818C482.739 265.91 489.927 266.762 496.373 268.365L496.856 266.424C490.235 264.778 482.89 263.912 474.827 263.818L474.804 265.818ZM496.388 268.369C502.773 269.851 508.12 272.407 512.457 276.016L513.736 274.479C509.126 270.642 503.484 267.963 496.841 266.421L496.388 268.369ZM512.467 276.024C516.691 279.448 519.448 284.547 520.663 291.44L522.633 291.093C521.356 283.849 518.412 278.269 513.727 274.471L512.467 276.024ZM520.663 291.44C521.792 297.842 521.718 303.552 520.477 308.59L522.419 309.068C523.74 303.705 523.799 297.707 522.633 291.093L520.663 291.44ZM520.472 308.609C519.327 313.685 517.465 318.189 514.896 322.132L516.571 323.224C519.283 319.063 521.231 314.335 522.423 309.049L520.472 308.609ZM514.896 322.132C512.31 326.1 509.238 329.525 505.677 332.414L506.937 333.967C510.664 330.943 513.876 327.361 516.571 323.224L514.896 322.132ZM505.652 332.436C502.188 335.443 498.644 337.945 495.022 339.947L495.989 341.697C499.746 339.621 503.404 337.036 506.963 333.946L505.652 332.436ZM495.022 339.947C491.37 341.964 487.943 343.536 484.737 344.669L485.404 346.555C488.732 345.379 492.261 343.757 495.989 341.697L495.022 339.947ZM484.732 344.671C481.598 345.798 479.128 346.512 477.303 346.834L477.65 348.803C479.64 348.453 482.233 347.695 485.409 346.553L484.732 344.671Z" fill="black" mask="url(#path-2-outside-1_102_8)"/>
</g>
<defs>
<filter id="filter0_d_102_8" x="14.811" y="72.7607" width="585.319" height="356.032" filterUnits="userSpaceOnUse" color-interpolation-filters="sRGB">
<feFlood flood-opacity="0" result="BackgroundImageFix"/>
<feColorMatrix in="SourceAlpha" type="matrix" values="0 0 0 0 0 0 0 0 0 0 0 0 0 0 0 0 0 0 127 0" result="hardAlpha"/>
<feOffset dy="4"/>
<feGaussianBlur stdDeviation="2"/>
<feComposite in2="hardAlpha" operator="out"/>
<feColorMatrix type="matrix" values="0 0 0 0 0 0 0 0 0 0 0 0 0 0 0 0 0 0 0.25 0"/>
<feBlend mode="normal" in2="BackgroundImageFix" result="effect1_dropShadow_102_8"/>
<feBlend mode="normal" in="SourceGraphic" in2="effect1_dropShadow_102_8" result="shape"/>
</filter>
</defs>
</svg>
